%TF.GenerationSoftware,KiCad,Pcbnew,8.0.2-1*%
%TF.CreationDate,2024-07-01T17:17:08+01:00*%
%TF.ProjectId,solderbit-gamepad,736f6c64-6572-4626-9974-2d67616d6570,v0.6*%
%TF.SameCoordinates,Original*%
%TF.FileFunction,Soldermask,Top*%
%TF.FilePolarity,Negative*%
%FSLAX46Y46*%
G04 Gerber Fmt 4.6, Leading zero omitted, Abs format (unit mm)*
G04 Created by KiCad (PCBNEW 8.0.2-1) date 2024-07-01 17:17:08*
%MOMM*%
%LPD*%
G01*
G04 APERTURE LIST*
G04 Aperture macros list*
%AMRoundRect*
0 Rectangle with rounded corners*
0 $1 Rounding radius*
0 $2 $3 $4 $5 $6 $7 $8 $9 X,Y pos of 4 corners*
0 Add a 4 corners polygon primitive as box body*
4,1,4,$2,$3,$4,$5,$6,$7,$8,$9,$2,$3,0*
0 Add four circle primitives for the rounded corners*
1,1,$1+$1,$2,$3*
1,1,$1+$1,$4,$5*
1,1,$1+$1,$6,$7*
1,1,$1+$1,$8,$9*
0 Add four rect primitives between the rounded corners*
20,1,$1+$1,$2,$3,$4,$5,0*
20,1,$1+$1,$4,$5,$6,$7,0*
20,1,$1+$1,$6,$7,$8,$9,0*
20,1,$1+$1,$8,$9,$2,$3,0*%
%AMFreePoly0*
4,1,53,1.982861,2.497452,2.265674,2.456790,2.539821,2.376293,2.799722,2.257600,3.040086,2.103127,3.256020,1.916020,3.443127,1.700086,3.597600,1.459722,3.716293,1.199821,3.796790,0.925674,3.837452,0.642861,3.840000,0.500000,3.840000,-0.500000,3.837452,-0.642861,3.796790,-0.925674,3.716293,-1.199821,3.597600,-1.459722,3.443127,-1.700086,3.256020,-1.916020,3.040086,-2.103127,
2.799722,-2.257600,2.539821,-2.376293,2.265674,-2.456790,1.982861,-2.497452,1.840000,-2.500000,-1.910000,-2.500000,-2.052869,-2.497572,-2.335699,-2.456908,-2.609863,-2.376406,-2.869780,-2.257706,-3.110159,-2.103224,-3.326105,-1.916105,-3.513224,-1.700159,-3.667706,-1.459780,-3.786406,-1.199863,-3.866908,-0.925699,-3.907572,-0.642869,-3.910000,-0.500000,-3.910000,0.500000,-3.907572,0.642869,
-3.866908,0.925699,-3.786406,1.199863,-3.667706,1.459780,-3.513224,1.700159,-3.326105,1.916105,-3.110159,2.103224,-2.869780,2.257706,-2.609863,2.376406,-2.335699,2.456908,-2.052869,2.497572,-1.910000,2.500000,1.840000,2.500000,1.982861,2.497452,1.982861,2.497452,$1*%
G04 Aperture macros list end*
%ADD10C,0.000000*%
%ADD11RoundRect,0.038000X0.625000X-1.275000X0.625000X1.275000X-0.625000X1.275000X-0.625000X-1.275000X0*%
%ADD12RoundRect,0.038000X-1.050000X-0.700000X1.050000X-0.700000X1.050000X0.700000X-1.050000X0.700000X0*%
%ADD13RoundRect,0.038000X1.750000X0.800000X-1.750000X0.800000X-1.750000X-0.800000X1.750000X-0.800000X0*%
%ADD14O,2.776000X1.176000*%
%ADD15RoundRect,0.038000X0.700000X-2.250000X0.700000X2.250000X-0.700000X2.250000X-0.700000X-2.250000X0*%
%ADD16RoundRect,0.322308X-0.590692X0.515692X-0.590692X-0.515692X0.590692X-0.515692X0.590692X0.515692X0*%
%ADD17RoundRect,0.322308X-0.515692X-0.590692X0.515692X-0.590692X0.515692X0.590692X-0.515692X0.590692X0*%
%ADD18RoundRect,0.316226X-0.521774X-0.621774X0.521774X-0.621774X0.521774X0.621774X-0.521774X0.621774X0*%
%ADD19RoundRect,0.322308X0.590692X-0.515692X0.590692X0.515692X-0.590692X0.515692X-0.590692X-0.515692X0*%
%ADD20RoundRect,0.269000X-0.269000X0.394000X-0.269000X-0.394000X0.269000X-0.394000X0.269000X0.394000X0*%
%ADD21RoundRect,0.316226X0.621774X-0.521774X0.621774X0.521774X-0.621774X0.521774X-0.621774X-0.521774X0*%
%ADD22RoundRect,0.038000X0.266700X-1.005050X0.266700X1.005050X-0.266700X1.005050X-0.266700X-1.005050X0*%
%ADD23C,1.800000*%
%ADD24RoundRect,0.038000X-0.500000X-1.000000X0.500000X-1.000000X0.500000X1.000000X-0.500000X1.000000X0*%
%ADD25FreePoly0,0.000000*%
%ADD26C,3.400000*%
%ADD27RoundRect,0.322308X0.515692X0.590692X-0.515692X0.590692X-0.515692X-0.590692X0.515692X-0.590692X0*%
G04 APERTURE END LIST*
D10*
G36*
X130551747Y-76774819D02*
G01*
X130551747Y-77522348D01*
X130431822Y-77522348D01*
X130311898Y-77522348D01*
X130311898Y-76774819D01*
X130311898Y-76027290D01*
X130431822Y-76027290D01*
X130551747Y-76027290D01*
X130551747Y-76774819D01*
G37*
G36*
X135316745Y-77014449D02*
G01*
X135316745Y-77522348D01*
X135200759Y-77522348D01*
X135084772Y-77522348D01*
X135086830Y-77016667D01*
X135088889Y-76510985D01*
X135202817Y-76508767D01*
X135316745Y-76506549D01*
X135316745Y-77014449D01*
G37*
G36*
X130494527Y-72877943D02*
G01*
X130534970Y-72896240D01*
X130538027Y-72898317D01*
X130572950Y-72932545D01*
X130598046Y-72978884D01*
X130612896Y-73036515D01*
X130614352Y-73047212D01*
X130620843Y-73101133D01*
X130417401Y-73101133D01*
X130213960Y-73101133D01*
X130219056Y-73075650D01*
X130235573Y-73023849D01*
X130262609Y-72974056D01*
X130297273Y-72930269D01*
X130336676Y-72896489D01*
X130357028Y-72884709D01*
X130399767Y-72871742D01*
X130447530Y-72869632D01*
X130494527Y-72877943D01*
G37*
G36*
X134627923Y-72877943D02*
G01*
X134668366Y-72896240D01*
X134671424Y-72898317D01*
X134706346Y-72932545D01*
X134731442Y-72978884D01*
X134746292Y-73036515D01*
X134747748Y-73047212D01*
X134754239Y-73101133D01*
X134550798Y-73101133D01*
X134347356Y-73101133D01*
X134352452Y-73075650D01*
X134368969Y-73023849D01*
X134396005Y-72974056D01*
X134430669Y-72930269D01*
X134470072Y-72896489D01*
X134490425Y-72884709D01*
X134533164Y-72871742D01*
X134580926Y-72869632D01*
X134627923Y-72877943D01*
G37*
G36*
X135237995Y-76044440D02*
G01*
X135282620Y-76061257D01*
X135315467Y-76088558D01*
X135335845Y-76125516D01*
X135343059Y-76170632D01*
X135336476Y-76215580D01*
X135315956Y-76253173D01*
X135291061Y-76276344D01*
X135260134Y-76290563D01*
X135221079Y-76297779D01*
X135180305Y-76297647D01*
X135144222Y-76289825D01*
X135133118Y-76284789D01*
X135100363Y-76260487D01*
X135080314Y-76229281D01*
X135070991Y-76187999D01*
X135070687Y-76184626D01*
X135073725Y-76137977D01*
X135089782Y-76098573D01*
X135116903Y-76068053D01*
X135153132Y-76048055D01*
X135196513Y-76040217D01*
X135237995Y-76044440D01*
G37*
G36*
X138405274Y-73254281D02*
G01*
X138409380Y-73259861D01*
X138410788Y-73273013D01*
X138409973Y-73296848D01*
X138408378Y-73320954D01*
X138398350Y-73388345D01*
X138378264Y-73443846D01*
X138347521Y-73488462D01*
X138305521Y-73523197D01*
X138278879Y-73537760D01*
X138230452Y-73553078D01*
X138179306Y-73556098D01*
X138130927Y-73546689D01*
X138118189Y-73541612D01*
X138082334Y-73517769D01*
X138058193Y-73486083D01*
X138045600Y-73449414D01*
X138044390Y-73410625D01*
X138054399Y-73372575D01*
X138075460Y-73338126D01*
X138107409Y-73310139D01*
X138132285Y-73297418D01*
X138150488Y-73292159D01*
X138180712Y-73285543D01*
X138219115Y-73278208D01*
X138261854Y-73270795D01*
X138305085Y-73263944D01*
X138344965Y-73258295D01*
X138377652Y-73254487D01*
X138397993Y-73253163D01*
X138405274Y-73254281D01*
G37*
G36*
X141595501Y-72905317D02*
G01*
X141652142Y-72920775D01*
X141699362Y-72949136D01*
X141737032Y-72990300D01*
X141765022Y-73044165D01*
X141780762Y-73098227D01*
X141790288Y-73167157D01*
X141791206Y-73239050D01*
X141783936Y-73309366D01*
X141768901Y-73373566D01*
X141751082Y-73418442D01*
X141719294Y-73465144D01*
X141676963Y-73500781D01*
X141625733Y-73524639D01*
X141567247Y-73536004D01*
X141503149Y-73534164D01*
X141489287Y-73532060D01*
X141441716Y-73518333D01*
X141397558Y-73495574D01*
X141363677Y-73467664D01*
X141334843Y-73426061D01*
X141312653Y-73372899D01*
X141297688Y-73311416D01*
X141290531Y-73244848D01*
X141291762Y-73176434D01*
X141300520Y-73115972D01*
X141320651Y-73048362D01*
X141349751Y-72993911D01*
X141388110Y-72952350D01*
X141436020Y-72923407D01*
X141493772Y-72906812D01*
X141529570Y-72902865D01*
X141595501Y-72905317D01*
G37*
G36*
X139670168Y-72913493D02*
G01*
X139686560Y-72920293D01*
X139732169Y-72949459D01*
X139767725Y-72990022D01*
X139793460Y-73042431D01*
X139809605Y-73107131D01*
X139815824Y-73169090D01*
X139814791Y-73253266D01*
X139803517Y-73328005D01*
X139782458Y-73392544D01*
X139752067Y-73446121D01*
X139712798Y-73487972D01*
X139665106Y-73517334D01*
X139609445Y-73533444D01*
X139598048Y-73534939D01*
X139567176Y-73536075D01*
X139537020Y-73533822D01*
X139527833Y-73532127D01*
X139475776Y-73511873D01*
X139430351Y-73477944D01*
X139393367Y-73431910D01*
X139376795Y-73400944D01*
X139368903Y-73381205D01*
X139363377Y-73360222D01*
X139359673Y-73334254D01*
X139357246Y-73299560D01*
X139355641Y-73255547D01*
X139355088Y-73192853D01*
X139357736Y-73142277D01*
X139364101Y-73100177D01*
X139374703Y-73062907D01*
X139387348Y-73032481D01*
X139418235Y-72984107D01*
X139459208Y-72945805D01*
X139507578Y-72918585D01*
X139560654Y-72903454D01*
X139615747Y-72901420D01*
X139670168Y-72913493D01*
G37*
G36*
X129132156Y-72908746D02*
G01*
X129184256Y-72930084D01*
X129228754Y-72965444D01*
X129265425Y-73014686D01*
X129271268Y-73025181D01*
X129278945Y-73040204D01*
X129284508Y-73053938D01*
X129288297Y-73069252D01*
X129290648Y-73089014D01*
X129291900Y-73116091D01*
X129292390Y-73153353D01*
X129292456Y-73203667D01*
X129292455Y-73205068D01*
X129292315Y-73255963D01*
X129291737Y-73293839D01*
X129290384Y-73321667D01*
X129287917Y-73342418D01*
X129283995Y-73359061D01*
X129278280Y-73374569D01*
X129271351Y-73389952D01*
X129237980Y-73445927D01*
X129196749Y-73489205D01*
X129148934Y-73519066D01*
X129095809Y-73534788D01*
X129038648Y-73535650D01*
X129019323Y-73532592D01*
X128965728Y-73514255D01*
X128920576Y-73482933D01*
X128884368Y-73439522D01*
X128857608Y-73384917D01*
X128840798Y-73320013D01*
X128834442Y-73245705D01*
X128835355Y-73205068D01*
X128844957Y-73125762D01*
X128864036Y-73057441D01*
X128892116Y-73000712D01*
X128928721Y-72956181D01*
X128973376Y-72924458D01*
X129025607Y-72906149D01*
X129072679Y-72901569D01*
X129132156Y-72908746D01*
G37*
G36*
X143838188Y-72909055D02*
G01*
X143888459Y-72931603D01*
X143932747Y-72968380D01*
X143970152Y-73018782D01*
X143977241Y-73031400D01*
X143983804Y-73044739D01*
X143988554Y-73058300D01*
X143991782Y-73074879D01*
X143993776Y-73097270D01*
X143994829Y-73128270D01*
X143995230Y-73170676D01*
X143995278Y-73205068D01*
X143995170Y-73255942D01*
X143994621Y-73293794D01*
X143993292Y-73321593D01*
X143990844Y-73342306D01*
X143986940Y-73358903D01*
X143981242Y-73374350D01*
X143974210Y-73389911D01*
X143940741Y-73445932D01*
X143899451Y-73489231D01*
X143851604Y-73519092D01*
X143798466Y-73534800D01*
X143741300Y-73535640D01*
X143722062Y-73532592D01*
X143678077Y-73519365D01*
X143641823Y-73497262D01*
X143613370Y-73469897D01*
X143587171Y-73437631D01*
X143568761Y-73405613D01*
X143554997Y-73367595D01*
X143547678Y-73339380D01*
X143536837Y-73262185D01*
X143539644Y-73179326D01*
X143547284Y-73129249D01*
X143566620Y-73058756D01*
X143595074Y-73000899D01*
X143632349Y-72955963D01*
X143678147Y-72924238D01*
X143732170Y-72906010D01*
X143782837Y-72901337D01*
X143838188Y-72909055D01*
G37*
G36*
X133675949Y-76498485D02*
G01*
X133687771Y-76501144D01*
X133709758Y-76507292D01*
X133709758Y-76619070D01*
X133709571Y-76659268D01*
X133709060Y-76693050D01*
X133708294Y-76717555D01*
X133707345Y-76729918D01*
X133706988Y-76730847D01*
X133698801Y-76727556D01*
X133681968Y-76719397D01*
X133677007Y-76716873D01*
X133644682Y-76706708D01*
X133604011Y-76702884D01*
X133561266Y-76705261D01*
X133522717Y-76713698D01*
X133505886Y-76720708D01*
X133461381Y-76752290D01*
X133421994Y-76796218D01*
X133390136Y-76849077D01*
X133368216Y-76907453D01*
X133365087Y-76920159D01*
X133362939Y-76937197D01*
X133360752Y-76968090D01*
X133358610Y-77010701D01*
X133356598Y-77062894D01*
X133354801Y-77122536D01*
X133353303Y-77187489D01*
X133352395Y-77240526D01*
X133348316Y-77522348D01*
X133233163Y-77522348D01*
X133118011Y-77522348D01*
X133120069Y-77016667D01*
X133122128Y-76510985D01*
X133236056Y-76508767D01*
X133349984Y-76506549D01*
X133350377Y-76608704D01*
X133350771Y-76710859D01*
X133378796Y-76656247D01*
X133412108Y-76602777D01*
X133451963Y-76557658D01*
X133495404Y-76523971D01*
X133516309Y-76512925D01*
X133550075Y-76502700D01*
X133592528Y-76496569D01*
X133636782Y-76495006D01*
X133675949Y-76498485D01*
G37*
G36*
X128089862Y-76108767D02*
G01*
X128108949Y-76110303D01*
X128117950Y-76113141D01*
X128119020Y-76117002D01*
X128115268Y-76126091D01*
X128105884Y-76148766D01*
X128091357Y-76183841D01*
X128072179Y-76230133D01*
X128048842Y-76286456D01*
X128021836Y-76351626D01*
X127991653Y-76424457D01*
X127958783Y-76503765D01*
X127923718Y-76588365D01*
X127886950Y-76677071D01*
X127848968Y-76768701D01*
X127810265Y-76862067D01*
X127771332Y-76955986D01*
X127732659Y-77049273D01*
X127694738Y-77140743D01*
X127658060Y-77229211D01*
X127623116Y-77313493D01*
X127590397Y-77392403D01*
X127560395Y-77464756D01*
X127533600Y-77529368D01*
X127510505Y-77585055D01*
X127491599Y-77630630D01*
X127477374Y-77664910D01*
X127468322Y-77686709D01*
X127466021Y-77692241D01*
X127440214Y-77754202D01*
X127333279Y-77754202D01*
X127288309Y-77753858D01*
X127257466Y-77752706D01*
X127238897Y-77750567D01*
X127230753Y-77747261D01*
X127230241Y-77744208D01*
X127233755Y-77735622D01*
X127242974Y-77713216D01*
X127257502Y-77677948D01*
X127276945Y-77630780D01*
X127300905Y-77572671D01*
X127328988Y-77504580D01*
X127360797Y-77427467D01*
X127395936Y-77342293D01*
X127434009Y-77250016D01*
X127474621Y-77151597D01*
X127517376Y-77047995D01*
X127561878Y-76940170D01*
X127569078Y-76922726D01*
X127904018Y-76111237D01*
X128013592Y-76109007D01*
X128058730Y-76108385D01*
X128089862Y-76108767D01*
G37*
G36*
X137020237Y-76108767D02*
G01*
X137039323Y-76110303D01*
X137048324Y-76113141D01*
X137049394Y-76117002D01*
X137045643Y-76126091D01*
X137036258Y-76148766D01*
X137021732Y-76183841D01*
X137002554Y-76230133D01*
X136979217Y-76286456D01*
X136952211Y-76351626D01*
X136922027Y-76424457D01*
X136889158Y-76503765D01*
X136854093Y-76588365D01*
X136817324Y-76677071D01*
X136779343Y-76768701D01*
X136740640Y-76862067D01*
X136701706Y-76955986D01*
X136663033Y-77049273D01*
X136625112Y-77140743D01*
X136588434Y-77229211D01*
X136553490Y-77313493D01*
X136520772Y-77392403D01*
X136490769Y-77464756D01*
X136463975Y-77529368D01*
X136440879Y-77585055D01*
X136421973Y-77630630D01*
X136407749Y-77664910D01*
X136398696Y-77686709D01*
X136396395Y-77692241D01*
X136370588Y-77754202D01*
X136263653Y-77754202D01*
X136218684Y-77753858D01*
X136187840Y-77752706D01*
X136169272Y-77750567D01*
X136161127Y-77747261D01*
X136160616Y-77744208D01*
X136164129Y-77735622D01*
X136173348Y-77713216D01*
X136187877Y-77677948D01*
X136207320Y-77630780D01*
X136231280Y-77572671D01*
X136259362Y-77504580D01*
X136291171Y-77427467D01*
X136326310Y-77342293D01*
X136364384Y-77250016D01*
X136404996Y-77151597D01*
X136447751Y-77047995D01*
X136492253Y-76940170D01*
X136499453Y-76922726D01*
X136834392Y-76111237D01*
X136943967Y-76109007D01*
X136989105Y-76108385D01*
X137020237Y-76108767D01*
G37*
G36*
X135902032Y-76215325D02*
G01*
X135904735Y-76225764D01*
X135906604Y-76246240D01*
X135907752Y-76278405D01*
X135908292Y-76323913D01*
X135908373Y-76358226D01*
X135908373Y-76506988D01*
X136028297Y-76506988D01*
X136148222Y-76506988D01*
X136148222Y-76598716D01*
X136148222Y-76690445D01*
X136030296Y-76692657D01*
X135912370Y-76694869D01*
X135912370Y-76978691D01*
X135912413Y-77053931D01*
X135912602Y-77114912D01*
X135913023Y-77163366D01*
X135913764Y-77201024D01*
X135914914Y-77229617D01*
X135916559Y-77250876D01*
X135918788Y-77266532D01*
X135921689Y-77278317D01*
X135925348Y-77287961D01*
X135928360Y-77294269D01*
X135944733Y-77318161D01*
X135965367Y-77337734D01*
X135970442Y-77341040D01*
X136000321Y-77351581D01*
X136038077Y-77355934D01*
X136076798Y-77353992D01*
X136109575Y-77345649D01*
X136114696Y-77343261D01*
X136132442Y-77334676D01*
X136143245Y-77330537D01*
X136143827Y-77330469D01*
X136145566Y-77337935D01*
X136146979Y-77358217D01*
X136147915Y-77388142D01*
X136148222Y-77421441D01*
X136148222Y-77512413D01*
X136126235Y-77521495D01*
X136076604Y-77535887D01*
X136017020Y-77543246D01*
X135952021Y-77543311D01*
X135886140Y-77535817D01*
X135884388Y-77535507D01*
X135822752Y-77517386D01*
X135770316Y-77487252D01*
X135728419Y-77446157D01*
X135698399Y-77395152D01*
X135695068Y-77386882D01*
X135691573Y-77376180D01*
X135688668Y-77363044D01*
X135686282Y-77345892D01*
X135684342Y-77323144D01*
X135682777Y-77293219D01*
X135681513Y-77254536D01*
X135680479Y-77205513D01*
X135679604Y-77144570D01*
X135678814Y-77070125D01*
X135678372Y-77020664D01*
X135675553Y-76690872D01*
X135592089Y-76690872D01*
X135508624Y-76690872D01*
X135508624Y-76598930D01*
X135508624Y-76506988D01*
X135592572Y-76506988D01*
X135676519Y-76506988D01*
X135676519Y-76392168D01*
X135676519Y-76277347D01*
X135782452Y-76247213D01*
X135821899Y-76235924D01*
X135856199Y-76225983D01*
X135882217Y-76218306D01*
X135896817Y-76213813D01*
X135898379Y-76213271D01*
X135902032Y-76215325D01*
G37*
G36*
X129677466Y-76495277D02*
G01*
X129736138Y-76505718D01*
X129738771Y-76506389D01*
X129820160Y-76534867D01*
X129890944Y-76575287D01*
X129951010Y-76627527D01*
X130000247Y-76691466D01*
X130038542Y-76766981D01*
X130065785Y-76853949D01*
X130068653Y-76866761D01*
X130075446Y-76913143D01*
X130078941Y-76969508D01*
X130079155Y-77030199D01*
X130076104Y-77089558D01*
X130069806Y-77141925D01*
X130067795Y-77152918D01*
X130043216Y-77237458D01*
X130005232Y-77314209D01*
X129954975Y-77381968D01*
X129893581Y-77439528D01*
X129822181Y-77485684D01*
X129741911Y-77519231D01*
X129716273Y-77526656D01*
X129671965Y-77535036D01*
X129617676Y-77540507D01*
X129559178Y-77542895D01*
X129502245Y-77542027D01*
X129452649Y-77537729D01*
X129436449Y-77535068D01*
X129350348Y-77510843D01*
X129273564Y-77474136D01*
X129206693Y-77425867D01*
X129150328Y-77366953D01*
X129105063Y-77298313D01*
X129071493Y-77220865D01*
X129050212Y-77135530D01*
X129041814Y-77043224D01*
X129043840Y-77003987D01*
X129280585Y-77003987D01*
X129282729Y-77069104D01*
X129293746Y-77132431D01*
X129313694Y-77191775D01*
X129342633Y-77244940D01*
X129380623Y-77289732D01*
X129427723Y-77323958D01*
X129433753Y-77327131D01*
X129494969Y-77349410D01*
X129560781Y-77357419D01*
X129628345Y-77351039D01*
X129677441Y-77337120D01*
X129722193Y-77312522D01*
X129755645Y-77282317D01*
X129790095Y-77238293D01*
X129814962Y-77189064D01*
X129830874Y-77132363D01*
X129838459Y-77065923D01*
X129838346Y-76987479D01*
X129838205Y-76984376D01*
X129829843Y-76905482D01*
X129812492Y-76839211D01*
X129785761Y-76784699D01*
X129749255Y-76741086D01*
X129715449Y-76715151D01*
X129662914Y-76690672D01*
X129603366Y-76677796D01*
X129541069Y-76676789D01*
X129480285Y-76687919D01*
X129450730Y-76698575D01*
X129400883Y-76728352D01*
X129359552Y-76769505D01*
X129326798Y-76819839D01*
X129302679Y-76877160D01*
X129287255Y-76939274D01*
X129280585Y-77003987D01*
X129043840Y-77003987D01*
X129046893Y-76944867D01*
X129048167Y-76934718D01*
X129067369Y-76840939D01*
X129098683Y-76757331D01*
X129141834Y-76684216D01*
X129196545Y-76621918D01*
X129262540Y-76570760D01*
X129339543Y-76531065D01*
X129414060Y-76506420D01*
X129472304Y-76495699D01*
X129539592Y-76490268D01*
X129609965Y-76490127D01*
X129677466Y-76495277D01*
G37*
G36*
X132565644Y-76494763D02*
G01*
X132636716Y-76510575D01*
X132699556Y-76537934D01*
X132756316Y-76577649D01*
X132782740Y-76602046D01*
X132828565Y-76657585D01*
X132864123Y-76722684D01*
X132889722Y-76798255D01*
X132905675Y-76885212D01*
X132912255Y-76982688D01*
X132914259Y-77078628D01*
X132571371Y-77080713D01*
X132228483Y-77082799D01*
X132233232Y-77122904D01*
X132243341Y-77168077D01*
X132261712Y-77214312D01*
X132285598Y-77255865D01*
X132311413Y-77286245D01*
X132358937Y-77321858D01*
X132411078Y-77345869D01*
X132470855Y-77359307D01*
X132536837Y-77363221D01*
X132597800Y-77360685D01*
X132650960Y-77352103D01*
X132702805Y-77335930D01*
X132759828Y-77310622D01*
X132761650Y-77309723D01*
X132791989Y-77294853D01*
X132816477Y-77283087D01*
X132831923Y-77275946D01*
X132835604Y-77274504D01*
X132836669Y-77281973D01*
X132837536Y-77302272D01*
X132838112Y-77332244D01*
X132838306Y-77366312D01*
X132838306Y-77458119D01*
X132800129Y-77477465D01*
X132732124Y-77505299D01*
X132653885Y-77526192D01*
X132569834Y-77539597D01*
X132484395Y-77544965D01*
X132401989Y-77541746D01*
X132346687Y-77533738D01*
X132269080Y-77510537D01*
X132199120Y-77473793D01*
X132137827Y-77424516D01*
X132086221Y-77363715D01*
X132045322Y-77292400D01*
X132016150Y-77211579D01*
X132014410Y-77204952D01*
X131999332Y-77124273D01*
X131993380Y-77039146D01*
X131996372Y-76953963D01*
X132002077Y-76914731D01*
X132228910Y-76914731D01*
X132458766Y-76914731D01*
X132688623Y-76914731D01*
X132684232Y-76866309D01*
X132674087Y-76815735D01*
X132654342Y-76767104D01*
X132627496Y-76725767D01*
X132610094Y-76707622D01*
X132568127Y-76680882D01*
X132518517Y-76665655D01*
X132465087Y-76662309D01*
X132411662Y-76671212D01*
X132376064Y-76685055D01*
X132334007Y-76713808D01*
X132295742Y-76754630D01*
X132264015Y-76803633D01*
X132241570Y-76856931D01*
X132234352Y-76885722D01*
X132228910Y-76914731D01*
X132002077Y-76914731D01*
X132008128Y-76873114D01*
X132028467Y-76800990D01*
X132031331Y-76793498D01*
X132066972Y-76722355D01*
X132114676Y-76656506D01*
X132171676Y-76598986D01*
X132235207Y-76552831D01*
X132265851Y-76536257D01*
X132313708Y-76515253D01*
X132357749Y-76501350D01*
X132403660Y-76493333D01*
X132457129Y-76489991D01*
X132484189Y-76489689D01*
X132565644Y-76494763D01*
G37*
G36*
X141735868Y-76494763D02*
G01*
X141806940Y-76510575D01*
X141869780Y-76537934D01*
X141926539Y-76577649D01*
X141952963Y-76602046D01*
X141998789Y-76657585D01*
X142034346Y-76722684D01*
X142059946Y-76798255D01*
X142075898Y-76885212D01*
X142082478Y-76982688D01*
X142084482Y-77078628D01*
X141741594Y-77080713D01*
X141398706Y-77082799D01*
X141403456Y-77122904D01*
X141413564Y-77168077D01*
X141431936Y-77214312D01*
X141455821Y-77255865D01*
X141481636Y-77286245D01*
X141529160Y-77321858D01*
X141581301Y-77345869D01*
X141641079Y-77359307D01*
X141707060Y-77363221D01*
X141768024Y-77360685D01*
X141821183Y-77352103D01*
X141873029Y-77335930D01*
X141930051Y-77310622D01*
X141931874Y-77309723D01*
X141962212Y-77294853D01*
X141986700Y-77283087D01*
X142002146Y-77275946D01*
X142005827Y-77274504D01*
X142006892Y-77281973D01*
X142007759Y-77302272D01*
X142008336Y-77332244D01*
X142008530Y-77366312D01*
X142008530Y-77458119D01*
X141970352Y-77477465D01*
X141902348Y-77505299D01*
X141824108Y-77526192D01*
X141740058Y-77539597D01*
X141654618Y-77544965D01*
X141572212Y-77541746D01*
X141516911Y-77533738D01*
X141439304Y-77510537D01*
X141369344Y-77473793D01*
X141308051Y-77424516D01*
X141256444Y-77363715D01*
X141215546Y-77292400D01*
X141186374Y-77211579D01*
X141184633Y-77204952D01*
X141169556Y-77124273D01*
X141163603Y-77039146D01*
X141166595Y-76953963D01*
X141172300Y-76914731D01*
X141399133Y-76914731D01*
X141628990Y-76914731D01*
X141858846Y-76914731D01*
X141854456Y-76866309D01*
X141844311Y-76815735D01*
X141824566Y-76767104D01*
X141797720Y-76725767D01*
X141780317Y-76707622D01*
X141738351Y-76680882D01*
X141688740Y-76665655D01*
X141635311Y-76662309D01*
X141581886Y-76671212D01*
X141546287Y-76685055D01*
X141504230Y-76713808D01*
X141465966Y-76754630D01*
X141434238Y-76803633D01*
X141411794Y-76856931D01*
X141404575Y-76885722D01*
X141399133Y-76914731D01*
X141172300Y-76914731D01*
X141178351Y-76873114D01*
X141198691Y-76800990D01*
X141201554Y-76793498D01*
X141237195Y-76722355D01*
X141284899Y-76656506D01*
X141341900Y-76598986D01*
X141405430Y-76552831D01*
X141436074Y-76536257D01*
X141483931Y-76515253D01*
X141527972Y-76501350D01*
X141573883Y-76493333D01*
X141627353Y-76489991D01*
X141654412Y-76489689D01*
X141735868Y-76494763D01*
G37*
G36*
X142980683Y-76499726D02*
G01*
X143051411Y-76523905D01*
X143113700Y-76561102D01*
X143167019Y-76610838D01*
X143210842Y-76672638D01*
X143244638Y-76746026D01*
X143267878Y-76830524D01*
X143278834Y-76909470D01*
X143282193Y-77015622D01*
X143274097Y-77114321D01*
X143255037Y-77204777D01*
X143225502Y-77286197D01*
X143185982Y-77357790D01*
X143136965Y-77418765D01*
X143078943Y-77468331D01*
X143012404Y-77505696D01*
X142937838Y-77530069D01*
X142889948Y-77538071D01*
X142808369Y-77540519D01*
X142734057Y-77528730D01*
X142666958Y-77502683D01*
X142607016Y-77462355D01*
X142554176Y-77407724D01*
X142550013Y-77402424D01*
X142528380Y-77374441D01*
X142528291Y-77680249D01*
X142528203Y-77986056D01*
X142412234Y-77986056D01*
X142296265Y-77986056D01*
X142298306Y-77248521D01*
X142298895Y-77035730D01*
X142528203Y-77035730D01*
X142530628Y-77104755D01*
X142538474Y-77161225D01*
X142552597Y-77207908D01*
X142573855Y-77247573D01*
X142603101Y-77282990D01*
X142605370Y-77285281D01*
X142653855Y-77324393D01*
X142706339Y-77348380D01*
X142763531Y-77357395D01*
X142826143Y-77351588D01*
X142867522Y-77340760D01*
X142905222Y-77322067D01*
X142942710Y-77291832D01*
X142975800Y-77253999D01*
X142997656Y-77218167D01*
X143020959Y-77156205D01*
X143036140Y-77085337D01*
X143042836Y-77010594D01*
X143040687Y-76937005D01*
X143029329Y-76869599D01*
X143024049Y-76851264D01*
X142998001Y-76793114D01*
X142962057Y-76745938D01*
X142918276Y-76710197D01*
X142868719Y-76686353D01*
X142815445Y-76674866D01*
X142760515Y-76676198D01*
X142705989Y-76690810D01*
X142653927Y-76719162D01*
X142609348Y-76758458D01*
X142578054Y-76798994D01*
X142555010Y-76844866D01*
X142539499Y-76898525D01*
X142530804Y-76962425D01*
X142528203Y-77035730D01*
X142298895Y-77035730D01*
X142300346Y-76510985D01*
X142414274Y-76508767D01*
X142528203Y-76506549D01*
X142528203Y-76590715D01*
X142528927Y-76629210D01*
X142530963Y-76657224D01*
X142534106Y-76672597D01*
X142536198Y-76674882D01*
X142543962Y-76669012D01*
X142544193Y-76667180D01*
X142549332Y-76658258D01*
X142563080Y-76640919D01*
X142582927Y-76618239D01*
X142593107Y-76607187D01*
X142651040Y-76555804D01*
X142715006Y-76519188D01*
X142785341Y-76497166D01*
X142816021Y-76492324D01*
X142902043Y-76489040D01*
X142980683Y-76499726D01*
G37*
G36*
X131750991Y-76774819D02*
G01*
X131750991Y-77522348D01*
X131635064Y-77522348D01*
X131519137Y-77522348D01*
X131519137Y-77440620D01*
X131519008Y-77404167D01*
X131518315Y-77381554D01*
X131516600Y-77370627D01*
X131513407Y-77369238D01*
X131508276Y-77375234D01*
X131505951Y-77378659D01*
X131459416Y-77434652D01*
X131401607Y-77481629D01*
X131335927Y-77516921D01*
X131323261Y-77521928D01*
X131276953Y-77534366D01*
X131221664Y-77541786D01*
X131163696Y-77543867D01*
X131109351Y-77540292D01*
X131077347Y-77534382D01*
X131006759Y-77508583D01*
X130944240Y-77469659D01*
X130890339Y-77418599D01*
X130845608Y-77356389D01*
X130810596Y-77284018D01*
X130785854Y-77202473D01*
X130771932Y-77112742D01*
X130770477Y-77057471D01*
X131009641Y-77057471D01*
X131018090Y-77129393D01*
X131034207Y-77189297D01*
X131058864Y-77239635D01*
X131087540Y-77277123D01*
X131132572Y-77318050D01*
X131180516Y-77344478D01*
X131233173Y-77356887D01*
X131292345Y-77355757D01*
X131344911Y-77345598D01*
X131381429Y-77329934D01*
X131419166Y-77302883D01*
X131453635Y-77267992D01*
X131469239Y-77247247D01*
X131488477Y-77215510D01*
X131502697Y-77183492D01*
X131512572Y-77148020D01*
X131518774Y-77105923D01*
X131521978Y-77054028D01*
X131522856Y-76994681D01*
X131522768Y-76947103D01*
X131522108Y-76912170D01*
X131520440Y-76886535D01*
X131517331Y-76866854D01*
X131512347Y-76849781D01*
X131505054Y-76831971D01*
X131500423Y-76821781D01*
X131467239Y-76766141D01*
X131425105Y-76723716D01*
X131374217Y-76694641D01*
X131314772Y-76679053D01*
X131292419Y-76676835D01*
X131228224Y-76679884D01*
X131171152Y-76697186D01*
X131121706Y-76728437D01*
X131080389Y-76773334D01*
X131052314Y-76821412D01*
X131024356Y-76896556D01*
X131010377Y-76975316D01*
X131009641Y-77057471D01*
X130770477Y-77057471D01*
X130769381Y-77015813D01*
X130770980Y-76984535D01*
X130783877Y-76884527D01*
X130807927Y-76793916D01*
X130842750Y-76713463D01*
X130887967Y-76643925D01*
X130943196Y-76586063D01*
X130986674Y-76553516D01*
X131044529Y-76522061D01*
X131104936Y-76501890D01*
X131172145Y-76491848D01*
X131219326Y-76490201D01*
X131290784Y-76494182D01*
X131351067Y-76506899D01*
X131403089Y-76529520D01*
X131449760Y-76563212D01*
X131482235Y-76595592D01*
X131519137Y-76636637D01*
X131519137Y-76331963D01*
X131519137Y-76027290D01*
X131635064Y-76027290D01*
X131750991Y-76027290D01*
X131750991Y-76774819D01*
G37*
G36*
X145454359Y-76774819D02*
G01*
X145454359Y-77522348D01*
X145338432Y-77522348D01*
X145222505Y-77522348D01*
X145222505Y-77440620D01*
X145222376Y-77404167D01*
X145221683Y-77381554D01*
X145219968Y-77370627D01*
X145216775Y-77369238D01*
X145211644Y-77375234D01*
X145209319Y-77378659D01*
X145162784Y-77434652D01*
X145104975Y-77481629D01*
X145039295Y-77516921D01*
X145026629Y-77521928D01*
X144980321Y-77534366D01*
X144925032Y-77541786D01*
X144867064Y-77543867D01*
X144812719Y-77540292D01*
X144780715Y-77534382D01*
X144710127Y-77508583D01*
X144647608Y-77469659D01*
X144593707Y-77418599D01*
X144548976Y-77356389D01*
X144513964Y-77284018D01*
X144489222Y-77202473D01*
X144475300Y-77112742D01*
X144473845Y-77057471D01*
X144713009Y-77057471D01*
X144721458Y-77129393D01*
X144737575Y-77189297D01*
X144762232Y-77239635D01*
X144790908Y-77277123D01*
X144835940Y-77318050D01*
X144883884Y-77344478D01*
X144936541Y-77356887D01*
X144995713Y-77355757D01*
X145048279Y-77345598D01*
X145084797Y-77329934D01*
X145122533Y-77302883D01*
X145157003Y-77267992D01*
X145172607Y-77247247D01*
X145191845Y-77215510D01*
X145206065Y-77183492D01*
X145215940Y-77148020D01*
X145222142Y-77105923D01*
X145225346Y-77054028D01*
X145226224Y-76994681D01*
X145226136Y-76947103D01*
X145225476Y-76912170D01*
X145223808Y-76886535D01*
X145220699Y-76866854D01*
X145215715Y-76849781D01*
X145208422Y-76831971D01*
X145203791Y-76821781D01*
X145170607Y-76766141D01*
X145128473Y-76723716D01*
X145077585Y-76694641D01*
X145018140Y-76679053D01*
X144995787Y-76676835D01*
X144931592Y-76679884D01*
X144874520Y-76697186D01*
X144825074Y-76728437D01*
X144783757Y-76773334D01*
X144755682Y-76821412D01*
X144727724Y-76896556D01*
X144713745Y-76975316D01*
X144713009Y-77057471D01*
X144473845Y-77057471D01*
X144472749Y-77015813D01*
X144474348Y-76984535D01*
X144487245Y-76884527D01*
X144511295Y-76793916D01*
X144546118Y-76713463D01*
X144591335Y-76643925D01*
X144646564Y-76586063D01*
X144690042Y-76553516D01*
X144747897Y-76522061D01*
X144808304Y-76501890D01*
X144875513Y-76491848D01*
X144922694Y-76490201D01*
X144994151Y-76494182D01*
X145054435Y-76506899D01*
X145106457Y-76529520D01*
X145153128Y-76563212D01*
X145185603Y-76595592D01*
X145222505Y-76636637D01*
X145222505Y-76331963D01*
X145222505Y-76027290D01*
X145338432Y-76027290D01*
X145454359Y-76027290D01*
X145454359Y-76774819D01*
G37*
G36*
X134101511Y-76351086D02*
G01*
X134101707Y-76441036D01*
X134102289Y-76516911D01*
X134103249Y-76578363D01*
X134104577Y-76625048D01*
X134106267Y-76656619D01*
X134108308Y-76672729D01*
X134109506Y-76674882D01*
X134117271Y-76669012D01*
X134117501Y-76667180D01*
X134122641Y-76658258D01*
X134136388Y-76640919D01*
X134156235Y-76618239D01*
X134166416Y-76607187D01*
X134224572Y-76556027D01*
X134289911Y-76519123D01*
X134362261Y-76496536D01*
X134441451Y-76488322D01*
X134505256Y-76491632D01*
X134580998Y-76506938D01*
X134647429Y-76534995D01*
X134705075Y-76576182D01*
X134754460Y-76630877D01*
X134796111Y-76699460D01*
X134797804Y-76702864D01*
X134821469Y-76757635D01*
X134838115Y-76813389D01*
X134848531Y-76874156D01*
X134853506Y-76943966D01*
X134854210Y-76990683D01*
X134849523Y-77091399D01*
X134835325Y-77180781D01*
X134811139Y-77260689D01*
X134776491Y-77332982D01*
X134759632Y-77360129D01*
X134727788Y-77401063D01*
X134688543Y-77440927D01*
X134646514Y-77475567D01*
X134606315Y-77500828D01*
X134599875Y-77503946D01*
X134535208Y-77527021D01*
X134464672Y-77540829D01*
X134393627Y-77544784D01*
X134327432Y-77538301D01*
X134313377Y-77535252D01*
X134249831Y-77511826D01*
X134190482Y-77474147D01*
X134144539Y-77431257D01*
X134101511Y-77383709D01*
X134101511Y-77453029D01*
X134101511Y-77522348D01*
X133985584Y-77522348D01*
X133869657Y-77522348D01*
X133869657Y-77035730D01*
X134101511Y-77035730D01*
X134103936Y-77104755D01*
X134111782Y-77161225D01*
X134125906Y-77207908D01*
X134147163Y-77247573D01*
X134176410Y-77282990D01*
X134178678Y-77285281D01*
X134227163Y-77324393D01*
X134279647Y-77348380D01*
X134336839Y-77357395D01*
X134399451Y-77351588D01*
X134440830Y-77340760D01*
X134478530Y-77322067D01*
X134516018Y-77291832D01*
X134549108Y-77253999D01*
X134570964Y-77218167D01*
X134594267Y-77156205D01*
X134609448Y-77085337D01*
X134616145Y-77010594D01*
X134613995Y-76937005D01*
X134602637Y-76869599D01*
X134597357Y-76851264D01*
X134571309Y-76793114D01*
X134535365Y-76745938D01*
X134491584Y-76710197D01*
X134442027Y-76686353D01*
X134388753Y-76674866D01*
X134333823Y-76676198D01*
X134279297Y-76690810D01*
X134227235Y-76719162D01*
X134182656Y-76758458D01*
X134151362Y-76798994D01*
X134128318Y-76844866D01*
X134112808Y-76898525D01*
X134104112Y-76962425D01*
X134101511Y-77035730D01*
X133869657Y-77035730D01*
X133869657Y-76774819D01*
X133869657Y-76027290D01*
X133985584Y-76027290D01*
X134101511Y-76027290D01*
X134101511Y-76351086D01*
G37*
G36*
X128642009Y-76490985D02*
G01*
X128711306Y-76496612D01*
X128774848Y-76507216D01*
X128827020Y-76522289D01*
X128848820Y-76530577D01*
X128848820Y-76630712D01*
X128848538Y-76668611D01*
X128847771Y-76699933D01*
X128846630Y-76721653D01*
X128845229Y-76730747D01*
X128845061Y-76730847D01*
X128836571Y-76727491D01*
X128817896Y-76718686D01*
X128793053Y-76706328D01*
X128792689Y-76706143D01*
X128745876Y-76687195D01*
X128691222Y-76672608D01*
X128635131Y-76663628D01*
X128584005Y-76661504D01*
X128568996Y-76662554D01*
X128527451Y-76670942D01*
X128487967Y-76685873D01*
X128454984Y-76705185D01*
X128432942Y-76726718D01*
X128431020Y-76729723D01*
X128417859Y-76766364D01*
X128419406Y-76803865D01*
X128435322Y-76838346D01*
X128441138Y-76845622D01*
X128451894Y-76856644D01*
X128464899Y-76866828D01*
X128482348Y-76877264D01*
X128506434Y-76889042D01*
X128539352Y-76903249D01*
X128583295Y-76920976D01*
X128628958Y-76938849D01*
X128708769Y-76973908D01*
X128773420Y-77011375D01*
X128823633Y-77051821D01*
X128860131Y-77095814D01*
X128881426Y-77137775D01*
X128891810Y-77178802D01*
X128896206Y-77226926D01*
X128894777Y-77276615D01*
X128887685Y-77322336D01*
X128875089Y-77358557D01*
X128874979Y-77358771D01*
X128841314Y-77407730D01*
X128794918Y-77451758D01*
X128738866Y-77488348D01*
X128688658Y-77510751D01*
X128625214Y-77528288D01*
X128551937Y-77539602D01*
X128473859Y-77544371D01*
X128396008Y-77542274D01*
X128328043Y-77533846D01*
X128290507Y-77525828D01*
X128251921Y-77515642D01*
X128222110Y-77506006D01*
X128177243Y-77489220D01*
X128177243Y-77387192D01*
X128177621Y-77348334D01*
X128178654Y-77315460D01*
X128180191Y-77291769D01*
X128182078Y-77280460D01*
X128182336Y-77280071D01*
X128191607Y-77280631D01*
X128207180Y-77288914D01*
X128208320Y-77289705D01*
X128279334Y-77330108D01*
X128357305Y-77356443D01*
X128440986Y-77368366D01*
X128494114Y-77368425D01*
X128555490Y-77361428D01*
X128602885Y-77347123D01*
X128636665Y-77325262D01*
X128657193Y-77295600D01*
X128664836Y-77257891D01*
X128664905Y-77253283D01*
X128660643Y-77221571D01*
X128646984Y-77193772D01*
X128622523Y-77168661D01*
X128585851Y-77145006D01*
X128535564Y-77121581D01*
X128497041Y-77106675D01*
X128415044Y-77074332D01*
X128347774Y-77042260D01*
X128294033Y-77009311D01*
X128252623Y-76974337D01*
X128222343Y-76936189D01*
X128201994Y-76893719D01*
X128190379Y-76845780D01*
X128186867Y-76809680D01*
X128186776Y-76754217D01*
X128193826Y-76709353D01*
X128209547Y-76670717D01*
X128235465Y-76633935D01*
X128256151Y-76611340D01*
X128301948Y-76571028D01*
X128352561Y-76540132D01*
X128412284Y-76516291D01*
X128447839Y-76506036D01*
X128505450Y-76495491D01*
X128571782Y-76490542D01*
X128642009Y-76490985D01*
G37*
G36*
X140678940Y-76491731D02*
G01*
X140747184Y-76506313D01*
X140806013Y-76533789D01*
X140855313Y-76574044D01*
X140894969Y-76626966D01*
X140924866Y-76692439D01*
X140941339Y-76752155D01*
X140944280Y-76769392D01*
X140946715Y-76791792D01*
X140948686Y-76820795D01*
X140950234Y-76857839D01*
X140951399Y-76904366D01*
X140952223Y-76961814D01*
X140952745Y-77031624D01*
X140953008Y-77115236D01*
X140953056Y-77164574D01*
X140953195Y-77522348D01*
X140837805Y-77522348D01*
X140722416Y-77522348D01*
X140719696Y-77180564D01*
X140719019Y-77097672D01*
X140718369Y-77029157D01*
X140717656Y-76973404D01*
X140716791Y-76928799D01*
X140715684Y-76893730D01*
X140714243Y-76866582D01*
X140712381Y-76845743D01*
X140710005Y-76829598D01*
X140707028Y-76816534D01*
X140703357Y-76804937D01*
X140698905Y-76793194D01*
X140697961Y-76790809D01*
X140671917Y-76741774D01*
X140637790Y-76706453D01*
X140594950Y-76684414D01*
X140542766Y-76675224D01*
X140529060Y-76674882D01*
X140482731Y-76682554D01*
X140439494Y-76704457D01*
X140400741Y-76738926D01*
X140367864Y-76784291D01*
X140342254Y-76838886D01*
X140325303Y-76901043D01*
X140321816Y-76923164D01*
X140319935Y-76945675D01*
X140318205Y-76981751D01*
X140316683Y-77028967D01*
X140315430Y-77084897D01*
X140314502Y-77147118D01*
X140313960Y-77213203D01*
X140313844Y-77252518D01*
X140313598Y-77522348D01*
X140198140Y-77522348D01*
X140082682Y-77522348D01*
X140079893Y-77180564D01*
X140079145Y-77096137D01*
X140078356Y-77026153D01*
X140077460Y-76969061D01*
X140076388Y-76923314D01*
X140075071Y-76887363D01*
X140073441Y-76859660D01*
X140071431Y-76838656D01*
X140068971Y-76822803D01*
X140065994Y-76810553D01*
X140063212Y-76802354D01*
X140036850Y-76752318D01*
X140001083Y-76713690D01*
X139957579Y-76687710D01*
X139908006Y-76675617D01*
X139891714Y-76674882D01*
X139838934Y-76682158D01*
X139792584Y-76704027D01*
X139752560Y-76740552D01*
X139729927Y-76772119D01*
X139718045Y-76792135D01*
X139708186Y-76811191D01*
X139700140Y-76830996D01*
X139693698Y-76853264D01*
X139688650Y-76879707D01*
X139684787Y-76912037D01*
X139681899Y-76951966D01*
X139679776Y-77001206D01*
X139678209Y-77061470D01*
X139676988Y-77134468D01*
X139676011Y-77212543D01*
X139672440Y-77522348D01*
X139557234Y-77522348D01*
X139442027Y-77522348D01*
X139444086Y-77016667D01*
X139446144Y-76510985D01*
X139560072Y-76508767D01*
X139674001Y-76506549D01*
X139674001Y-76582720D01*
X139674796Y-76618619D01*
X139677010Y-76644413D01*
X139680388Y-76657657D01*
X139681996Y-76658892D01*
X139689766Y-76653637D01*
X139689990Y-76652023D01*
X139695526Y-76640743D01*
X139710037Y-76622341D01*
X139730380Y-76600130D01*
X139753410Y-76577418D01*
X139775985Y-76557516D01*
X139789457Y-76547286D01*
X139839933Y-76520454D01*
X139899907Y-76501178D01*
X139964328Y-76490382D01*
X140028144Y-76488987D01*
X140074850Y-76495148D01*
X140126779Y-76513553D01*
X140177440Y-76544460D01*
X140222732Y-76584635D01*
X140258554Y-76630845D01*
X140267865Y-76647391D01*
X140287151Y-76685339D01*
X140311629Y-76650129D01*
X140362399Y-76589592D01*
X140420695Y-76543153D01*
X140486434Y-76510850D01*
X140559530Y-76492718D01*
X140639902Y-76488794D01*
X140678940Y-76491731D01*
G37*
G36*
X138838475Y-76491665D02*
G01*
X138884616Y-76495909D01*
X138901578Y-76498804D01*
X138967423Y-76518798D01*
X139026271Y-76549189D01*
X139075626Y-76588264D01*
X139112992Y-76634309D01*
X139121993Y-76650200D01*
X139131386Y-76669209D01*
X139139295Y-76687343D01*
X139145861Y-76706155D01*
X139151229Y-76727194D01*
X139155543Y-76752015D01*
X139158947Y-76782167D01*
X139161584Y-76819203D01*
X139163597Y-76864675D01*
X139165132Y-76920134D01*
X139166330Y-76987132D01*
X139167338Y-77067220D01*
X139168168Y-77148584D01*
X139171784Y-77522348D01*
X139055424Y-77522348D01*
X138939064Y-77522348D01*
X138936765Y-77449953D01*
X138934466Y-77377557D01*
X138904756Y-77417402D01*
X138860362Y-77464469D01*
X138804712Y-77503188D01*
X138759329Y-77524525D01*
X138720211Y-77535047D01*
X138671605Y-77541488D01*
X138619562Y-77543541D01*
X138570131Y-77540898D01*
X138538716Y-77535721D01*
X138472423Y-77513018D01*
X138417019Y-77478922D01*
X138373089Y-77434270D01*
X138341219Y-77379897D01*
X138321995Y-77316640D01*
X138316003Y-77245333D01*
X138317082Y-77219420D01*
X138319625Y-77203019D01*
X138539206Y-77203019D01*
X138540857Y-77247367D01*
X138554897Y-77286464D01*
X138579648Y-77319094D01*
X138613434Y-77344037D01*
X138654580Y-77360078D01*
X138701408Y-77365998D01*
X138752242Y-77360581D01*
X138805408Y-77342608D01*
X138808457Y-77341188D01*
X138857089Y-77309813D01*
X138894632Y-77267173D01*
X138920812Y-77213779D01*
X138935354Y-77150145D01*
X138938464Y-77098377D01*
X138938293Y-77064342D01*
X138937269Y-77043396D01*
X138934627Y-77032640D01*
X138929599Y-77029173D01*
X138921419Y-77030095D01*
X138920475Y-77030300D01*
X138906212Y-77032827D01*
X138879568Y-77037021D01*
X138843998Y-77042357D01*
X138802961Y-77048308D01*
X138790557Y-77050071D01*
X138723024Y-77060713D01*
X138669588Y-77071920D01*
X138628360Y-77084520D01*
X138597448Y-77099340D01*
X138574963Y-77117207D01*
X138559013Y-77138949D01*
X138551617Y-77154639D01*
X138539206Y-77203019D01*
X138319625Y-77203019D01*
X138328075Y-77148532D01*
X138350586Y-77087820D01*
X138385295Y-77036448D01*
X138432884Y-76993577D01*
X138494033Y-76958370D01*
X138546273Y-76937491D01*
X138563562Y-76933059D01*
X138593629Y-76926894D01*
X138633420Y-76919493D01*
X138679880Y-76911354D01*
X138729954Y-76902975D01*
X138780586Y-76894852D01*
X138828722Y-76887484D01*
X138871307Y-76881367D01*
X138905286Y-76877000D01*
X138927603Y-76874880D01*
X138931513Y-76874756D01*
X138936854Y-76867692D01*
X138938193Y-76849095D01*
X138935733Y-76822860D01*
X138929676Y-76792882D01*
X138926691Y-76782048D01*
X138905779Y-76736791D01*
X138873229Y-76702444D01*
X138829158Y-76679079D01*
X138773683Y-76666767D01*
X138734592Y-76664716D01*
X138652872Y-76671948D01*
X138573671Y-76692898D01*
X138500391Y-76726414D01*
X138447673Y-76762011D01*
X138429269Y-76776273D01*
X138416677Y-76785240D01*
X138413694Y-76786812D01*
X138412610Y-76779315D01*
X138411711Y-76758815D01*
X138411080Y-76728299D01*
X138410802Y-76690753D01*
X138410796Y-76684138D01*
X138410796Y-76581464D01*
X138472757Y-76553138D01*
X138508447Y-76536971D01*
X138534676Y-76525854D01*
X138556495Y-76518118D01*
X138578954Y-76512093D01*
X138607102Y-76506110D01*
X138626660Y-76502267D01*
X138673122Y-76495613D01*
X138727438Y-76491584D01*
X138784319Y-76490246D01*
X138838475Y-76491665D01*
G37*
G36*
X143939262Y-76491665D02*
G01*
X143985403Y-76495909D01*
X144002365Y-76498804D01*
X144068210Y-76518798D01*
X144127058Y-76549189D01*
X144176413Y-76588264D01*
X144213779Y-76634309D01*
X144222779Y-76650200D01*
X144232173Y-76669209D01*
X144240082Y-76687343D01*
X144246648Y-76706155D01*
X144252016Y-76727194D01*
X144256330Y-76752015D01*
X144259734Y-76782167D01*
X144262370Y-76819203D01*
X144264384Y-76864675D01*
X144265918Y-76920134D01*
X144267117Y-76987132D01*
X144268125Y-77067220D01*
X144268955Y-77148584D01*
X144272571Y-77522348D01*
X144156211Y-77522348D01*
X144039851Y-77522348D01*
X144037552Y-77449953D01*
X144035253Y-77377557D01*
X144005543Y-77417402D01*
X143961149Y-77464469D01*
X143905499Y-77503188D01*
X143860116Y-77524525D01*
X143820998Y-77535047D01*
X143772392Y-77541488D01*
X143720349Y-77543541D01*
X143670918Y-77540898D01*
X143639503Y-77535721D01*
X143573210Y-77513018D01*
X143517806Y-77478922D01*
X143473876Y-77434270D01*
X143442006Y-77379897D01*
X143422782Y-77316640D01*
X143416790Y-77245333D01*
X143417869Y-77219420D01*
X143420412Y-77203019D01*
X143639992Y-77203019D01*
X143641644Y-77247367D01*
X143655684Y-77286464D01*
X143680435Y-77319094D01*
X143714221Y-77344037D01*
X143755367Y-77360078D01*
X143802195Y-77365998D01*
X143853029Y-77360581D01*
X143906195Y-77342608D01*
X143909243Y-77341188D01*
X143957876Y-77309813D01*
X143995419Y-77267173D01*
X144021599Y-77213779D01*
X144036141Y-77150145D01*
X144039251Y-77098377D01*
X144039080Y-77064342D01*
X144038056Y-77043396D01*
X144035414Y-77032640D01*
X144030386Y-77029173D01*
X144022206Y-77030095D01*
X144021262Y-77030300D01*
X144006999Y-77032827D01*
X143980355Y-77037021D01*
X143944785Y-77042357D01*
X143903748Y-77048308D01*
X143891344Y-77050071D01*
X143823811Y-77060713D01*
X143770375Y-77071920D01*
X143729147Y-77084520D01*
X143698235Y-77099340D01*
X143675750Y-77117207D01*
X143659800Y-77138949D01*
X143652404Y-77154639D01*
X143639992Y-77203019D01*
X143420412Y-77203019D01*
X143428862Y-77148532D01*
X143451373Y-77087820D01*
X143486082Y-77036448D01*
X143533671Y-76993577D01*
X143594820Y-76958370D01*
X143647060Y-76937491D01*
X143664349Y-76933059D01*
X143694416Y-76926894D01*
X143734207Y-76919493D01*
X143780667Y-76911354D01*
X143830741Y-76902975D01*
X143881373Y-76894852D01*
X143929509Y-76887484D01*
X143972094Y-76881367D01*
X144006073Y-76877000D01*
X144028390Y-76874880D01*
X144032300Y-76874756D01*
X144037641Y-76867692D01*
X144038980Y-76849095D01*
X144036520Y-76822860D01*
X144030463Y-76792882D01*
X144027477Y-76782048D01*
X144006566Y-76736791D01*
X143974016Y-76702444D01*
X143929945Y-76679079D01*
X143874470Y-76666767D01*
X143835379Y-76664716D01*
X143753659Y-76671948D01*
X143674458Y-76692898D01*
X143601178Y-76726414D01*
X143548460Y-76762011D01*
X143530056Y-76776273D01*
X143517464Y-76785240D01*
X143514481Y-76786812D01*
X143513397Y-76779315D01*
X143512497Y-76758815D01*
X143511867Y-76728299D01*
X143511589Y-76690753D01*
X143511583Y-76684138D01*
X143511583Y-76581464D01*
X143573544Y-76553138D01*
X143609233Y-76536971D01*
X143635463Y-76525854D01*
X143657282Y-76518118D01*
X143679741Y-76512093D01*
X143707889Y-76506110D01*
X143727447Y-76502267D01*
X143773909Y-76495613D01*
X143828225Y-76491584D01*
X143885106Y-76490246D01*
X143939262Y-76491665D01*
G37*
G36*
X137621915Y-76492580D02*
G01*
X137662904Y-76498227D01*
X137677179Y-76501807D01*
X137741246Y-76529327D01*
X137797619Y-76570651D01*
X137821896Y-76595208D01*
X137858454Y-76635869D01*
X137860798Y-76573427D01*
X137863141Y-76510985D01*
X137979068Y-76510985D01*
X138094995Y-76510985D01*
X138097177Y-76958703D01*
X138097585Y-77077777D01*
X138097544Y-77182060D01*
X138097008Y-77272744D01*
X138095931Y-77351025D01*
X138094269Y-77418096D01*
X138091975Y-77475149D01*
X138089004Y-77523380D01*
X138085310Y-77563981D01*
X138080849Y-77598146D01*
X138075575Y-77627068D01*
X138070996Y-77646270D01*
X138041636Y-77729229D01*
X138000546Y-77801336D01*
X137947881Y-77862440D01*
X137883791Y-77912392D01*
X137808430Y-77951040D01*
X137739219Y-77973959D01*
X137702786Y-77980833D01*
X137654538Y-77986074D01*
X137598574Y-77989597D01*
X137538994Y-77991314D01*
X137479899Y-77991137D01*
X137425387Y-77988981D01*
X137379559Y-77984758D01*
X137361853Y-77981971D01*
X137322060Y-77973210D01*
X137279179Y-77961863D01*
X137245926Y-77951518D01*
X137191564Y-77932694D01*
X137189333Y-77827458D01*
X137189015Y-77788547D01*
X137189713Y-77756134D01*
X137191292Y-77733167D01*
X137193615Y-77722593D01*
X137194204Y-77722222D01*
X137204296Y-77725382D01*
X137224977Y-77733796D01*
X137252388Y-77745868D01*
X137262444Y-77750471D01*
X137342375Y-77781366D01*
X137422482Y-77800942D01*
X137500830Y-77809307D01*
X137575487Y-77806573D01*
X137644516Y-77792848D01*
X137705984Y-77768243D01*
X137757956Y-77732866D01*
X137769894Y-77721699D01*
X137803486Y-77682370D01*
X137828329Y-77639211D01*
X137845292Y-77589524D01*
X137855241Y-77530610D01*
X137859044Y-77459773D01*
X137859144Y-77444224D01*
X137859020Y-77406809D01*
X137858361Y-77383250D01*
X137856738Y-77371415D01*
X137853724Y-77369170D01*
X137848887Y-77374382D01*
X137845958Y-77378659D01*
X137797788Y-77436858D01*
X137739283Y-77483442D01*
X137671919Y-77517575D01*
X137597174Y-77538418D01*
X137554644Y-77543824D01*
X137473652Y-77543012D01*
X137399166Y-77528163D01*
X137331795Y-77500102D01*
X137272144Y-77459656D01*
X137220821Y-77407650D01*
X137178434Y-77344908D01*
X137145589Y-77272255D01*
X137122894Y-77190519D01*
X137110956Y-77100523D01*
X137110523Y-77027077D01*
X137348131Y-77027077D01*
X137352674Y-77096689D01*
X137366586Y-77163338D01*
X137390232Y-77224150D01*
X137390656Y-77224991D01*
X137410190Y-77255384D01*
X137436991Y-77286653D01*
X137466698Y-77314445D01*
X137494946Y-77334408D01*
X137505428Y-77339452D01*
X137560394Y-77353159D01*
X137619986Y-77354921D01*
X137678516Y-77345008D01*
X137719909Y-77329275D01*
X137768505Y-77296245D01*
X137807367Y-77250644D01*
X137836432Y-77192633D01*
X137855637Y-77122375D01*
X137864922Y-77040030D01*
X137864593Y-76952632D01*
X137858712Y-76890846D01*
X137847121Y-76840621D01*
X137828468Y-76798131D01*
X137801398Y-76759552D01*
X137792742Y-76749612D01*
X137749267Y-76712796D01*
X137698378Y-76688398D01*
X137642881Y-76676534D01*
X137585583Y-76677325D01*
X137529289Y-76690888D01*
X137476806Y-76717343D01*
X137453101Y-76735244D01*
X137416304Y-76776528D01*
X137387042Y-76829229D01*
X137365682Y-76890471D01*
X137352589Y-76957380D01*
X137348131Y-77027077D01*
X137110523Y-77027077D01*
X137110382Y-77003093D01*
X137115152Y-76946450D01*
X137132538Y-76848299D01*
X137160702Y-76760812D01*
X137199313Y-76684444D01*
X137248040Y-76619652D01*
X137306551Y-76566892D01*
X137374516Y-76526618D01*
X137437252Y-76503178D01*
X137475426Y-76495614D01*
X137522627Y-76491304D01*
X137573306Y-76490283D01*
X137621915Y-76492580D01*
G37*
G36*
X131285818Y-70480195D02*
G01*
X131580598Y-70480212D01*
X131887998Y-70480239D01*
X132208283Y-70480277D01*
X132541715Y-70480324D01*
X132888557Y-70480380D01*
X133249073Y-70480446D01*
X133623526Y-70480521D01*
X134012179Y-70480604D01*
X134415296Y-70480696D01*
X134833138Y-70480797D01*
X135265971Y-70480905D01*
X135714056Y-70481021D01*
X136177658Y-70481144D01*
X136559962Y-70481248D01*
X137036250Y-70481380D01*
X137496810Y-70481510D01*
X137941903Y-70481640D01*
X138371791Y-70481769D01*
X138786736Y-70481898D01*
X139187000Y-70482027D01*
X139572843Y-70482156D01*
X139944529Y-70482287D01*
X140302317Y-70482420D01*
X140646471Y-70482554D01*
X140977252Y-70482691D01*
X141294921Y-70482830D01*
X141599740Y-70482972D01*
X141891971Y-70483118D01*
X142171875Y-70483268D01*
X142439715Y-70483422D01*
X142695751Y-70483581D01*
X142940246Y-70483745D01*
X143173461Y-70483914D01*
X143395657Y-70484090D01*
X143607097Y-70484271D01*
X143808043Y-70484460D01*
X143998755Y-70484655D01*
X144179495Y-70484859D01*
X144350526Y-70485070D01*
X144512109Y-70485289D01*
X144664505Y-70485517D01*
X144807976Y-70485755D01*
X144942784Y-70486002D01*
X145069191Y-70486259D01*
X145187458Y-70486526D01*
X145297846Y-70486804D01*
X145400618Y-70487094D01*
X145496036Y-70487394D01*
X145584360Y-70487707D01*
X145665852Y-70488033D01*
X145740775Y-70488371D01*
X145809390Y-70488722D01*
X145871958Y-70489087D01*
X145928742Y-70489466D01*
X145980002Y-70489859D01*
X146026001Y-70490267D01*
X146067000Y-70490691D01*
X146103261Y-70491130D01*
X146135045Y-70491585D01*
X146162615Y-70492057D01*
X146186232Y-70492545D01*
X146206157Y-70493051D01*
X146222652Y-70493574D01*
X146235980Y-70494115D01*
X146246401Y-70494675D01*
X146254177Y-70495254D01*
X146259570Y-70495852D01*
X146261851Y-70496236D01*
X146403382Y-70530838D01*
X146532799Y-70574246D01*
X146651914Y-70627414D01*
X146762543Y-70691294D01*
X146866498Y-70766841D01*
X146965593Y-70855008D01*
X146989392Y-70878699D01*
X147084226Y-70986263D01*
X147166358Y-71102922D01*
X147235086Y-71227430D01*
X147289709Y-71358539D01*
X147324505Y-71474158D01*
X147327895Y-71487415D01*
X147331094Y-71499582D01*
X147334107Y-71511133D01*
X147336938Y-71522540D01*
X147339593Y-71534276D01*
X147342078Y-71546814D01*
X147344397Y-71560627D01*
X147346555Y-71576187D01*
X147348558Y-71593968D01*
X147350411Y-71614441D01*
X147352119Y-71638080D01*
X147353687Y-71665358D01*
X147355121Y-71696747D01*
X147356426Y-71732719D01*
X147357607Y-71773749D01*
X147358668Y-71820308D01*
X147359616Y-71872870D01*
X147360456Y-71931907D01*
X147361192Y-71997891D01*
X147361829Y-72071296D01*
X147362374Y-72152595D01*
X147362832Y-72242259D01*
X147363206Y-72340763D01*
X147363504Y-72448578D01*
X147363729Y-72566178D01*
X147363887Y-72694035D01*
X147363983Y-72832622D01*
X147364023Y-72982412D01*
X147364011Y-73143878D01*
X147363953Y-73317491D01*
X147363854Y-73503726D01*
X147363719Y-73703055D01*
X147363554Y-73915950D01*
X147363363Y-74142885D01*
X147363152Y-74384332D01*
X147362926Y-74640764D01*
X147362690Y-74912653D01*
X147362660Y-74947970D01*
X147362435Y-75219253D01*
X147362230Y-75475022D01*
X147362041Y-75715750D01*
X147361860Y-75941914D01*
X147361682Y-76153988D01*
X147361499Y-76352447D01*
X147361307Y-76537766D01*
X147361099Y-76710420D01*
X147360868Y-76870885D01*
X147360609Y-77019634D01*
X147360316Y-77157144D01*
X147359981Y-77283890D01*
X147359600Y-77400345D01*
X147359165Y-77506986D01*
X147358672Y-77604287D01*
X147358113Y-77692723D01*
X147357482Y-77772769D01*
X147356774Y-77844901D01*
X147355981Y-77909593D01*
X147355099Y-77967321D01*
X147354120Y-78018559D01*
X147353039Y-78063782D01*
X147351849Y-78103465D01*
X147350545Y-78138084D01*
X147349120Y-78168114D01*
X147347567Y-78194028D01*
X147345882Y-78216304D01*
X147344057Y-78235414D01*
X147342086Y-78251835D01*
X147339964Y-78266042D01*
X147337684Y-78278509D01*
X147335239Y-78289711D01*
X147332625Y-78300124D01*
X147329834Y-78310222D01*
X147326860Y-78320481D01*
X147323698Y-78331376D01*
X147320341Y-78343381D01*
X147318503Y-78350272D01*
X147275257Y-78484371D01*
X147217632Y-78612702D01*
X147146562Y-78734097D01*
X147062981Y-78847392D01*
X146967824Y-78951420D01*
X146862024Y-79045013D01*
X146746517Y-79127005D01*
X146653604Y-79180432D01*
X146547776Y-79230083D01*
X146441187Y-79268517D01*
X146329254Y-79297147D01*
X146211473Y-79316859D01*
X146205726Y-79317470D01*
X146197807Y-79318061D01*
X146187453Y-79318632D01*
X146174399Y-79319182D01*
X146158384Y-79319713D01*
X146139144Y-79320225D01*
X146116416Y-79320718D01*
X146089936Y-79321192D01*
X146059441Y-79321647D01*
X146024668Y-79322085D01*
X145985354Y-79322505D01*
X145941236Y-79322907D01*
X145892050Y-79323293D01*
X145837533Y-79323661D01*
X145777422Y-79324013D01*
X145711454Y-79324349D01*
X145639365Y-79324668D01*
X145560893Y-79324972D01*
X145475774Y-79325261D01*
X145383744Y-79325535D01*
X145284542Y-79325794D01*
X145177903Y-79326039D01*
X145063564Y-79326269D01*
X144941262Y-79326486D01*
X144810734Y-79326689D01*
X144671717Y-79326879D01*
X144523947Y-79327057D01*
X144367161Y-79327221D01*
X144201096Y-79327374D01*
X144025489Y-79327514D01*
X143840076Y-79327643D01*
X143644595Y-79327760D01*
X143438782Y-79327867D01*
X143222374Y-79327963D01*
X142995107Y-79328048D01*
X142756719Y-79328123D01*
X142506947Y-79328188D01*
X142245526Y-79328244D01*
X141972194Y-79328291D01*
X141686688Y-79328328D01*
X141388744Y-79328358D01*
X141078100Y-79328378D01*
X140754491Y-79328391D01*
X140417655Y-79328396D01*
X140067329Y-79328394D01*
X139703249Y-79328385D01*
X139325152Y-79328369D01*
X138932776Y-79328346D01*
X138525855Y-79328318D01*
X138104129Y-79328283D01*
X137667333Y-79328243D01*
X137215203Y-79328198D01*
X136747478Y-79328148D01*
X136509584Y-79328121D01*
X136117727Y-79328075D01*
X135729701Y-79328024D01*
X135345816Y-79327969D01*
X134966382Y-79327910D01*
X134591708Y-79327847D01*
X134222104Y-79327781D01*
X133857879Y-79327711D01*
X133499343Y-79327638D01*
X133146806Y-79327561D01*
X132800578Y-79327481D01*
X132460967Y-79327398D01*
X132128284Y-79327313D01*
X131802838Y-79327224D01*
X131484939Y-79327133D01*
X131174897Y-79327039D01*
X130873020Y-79326943D01*
X130579619Y-79326844D01*
X130295004Y-79326744D01*
X130019484Y-79326641D01*
X129753368Y-79326537D01*
X129496967Y-79326430D01*
X129250589Y-79326322D01*
X129014545Y-79326213D01*
X128789144Y-79326102D01*
X128574696Y-79325990D01*
X128371510Y-79325876D01*
X128179896Y-79325762D01*
X128000164Y-79325647D01*
X127832624Y-79325531D01*
X127677584Y-79325414D01*
X127535354Y-79325297D01*
X127406245Y-79325179D01*
X127290566Y-79325061D01*
X127188626Y-79324943D01*
X127100735Y-79324825D01*
X127027203Y-79324707D01*
X126968339Y-79324589D01*
X126924453Y-79324472D01*
X126895854Y-79324355D01*
X126882853Y-79324239D01*
X126882058Y-79324208D01*
X126864970Y-79321861D01*
X126837220Y-79318122D01*
X126803998Y-79313688D01*
X126794114Y-79312376D01*
X126658628Y-79286513D01*
X126527616Y-79245953D01*
X126402091Y-79191608D01*
X126283068Y-79124391D01*
X126171561Y-79045216D01*
X126068584Y-78954996D01*
X125975150Y-78854643D01*
X125892275Y-78745072D01*
X125820971Y-78627194D01*
X125762254Y-78501925D01*
X125717137Y-78370175D01*
X125707475Y-78333837D01*
X125704084Y-78320581D01*
X125700885Y-78308413D01*
X125697873Y-78296863D01*
X125695042Y-78285455D01*
X125692386Y-78273719D01*
X125689902Y-78261181D01*
X125687583Y-78247368D01*
X125685425Y-78231808D01*
X125683422Y-78214027D01*
X125681569Y-78193554D01*
X125679861Y-78169915D01*
X125678292Y-78142637D01*
X125676858Y-78111249D01*
X125675554Y-78075276D01*
X125674373Y-78034246D01*
X125673311Y-77987687D01*
X125672364Y-77935125D01*
X125671524Y-77876089D01*
X125670788Y-77810104D01*
X125670150Y-77736699D01*
X125669605Y-77655400D01*
X125669148Y-77565736D01*
X125668773Y-77467232D01*
X125668476Y-77359417D01*
X125668251Y-77241817D01*
X125668093Y-77113960D01*
X125667997Y-76975373D01*
X125667957Y-76825583D01*
X125667969Y-76664117D01*
X125668027Y-76490504D01*
X125668125Y-76304269D01*
X125668260Y-76104940D01*
X125668426Y-75892045D01*
X125668617Y-75665110D01*
X125668828Y-75423663D01*
X125669054Y-75167232D01*
X125669285Y-74901532D01*
X125946680Y-74901532D01*
X125946688Y-75174272D01*
X125946709Y-75431476D01*
X125946743Y-75673598D01*
X125946793Y-75901092D01*
X125946861Y-76114412D01*
X125946946Y-76314013D01*
X125947053Y-76500347D01*
X125947181Y-76673869D01*
X125947333Y-76835033D01*
X125947510Y-76984292D01*
X125947715Y-77122102D01*
X125947947Y-77248915D01*
X125948210Y-77365187D01*
X125948505Y-77471370D01*
X125948833Y-77567919D01*
X125949197Y-77655287D01*
X125949597Y-77733930D01*
X125950035Y-77804300D01*
X125950514Y-77866851D01*
X125951034Y-77922039D01*
X125951597Y-77970315D01*
X125952206Y-78012136D01*
X125952860Y-78047954D01*
X125953563Y-78078224D01*
X125954316Y-78103399D01*
X125955120Y-78123934D01*
X125955977Y-78140282D01*
X125956889Y-78152898D01*
X125957857Y-78162235D01*
X125958421Y-78166181D01*
X125986689Y-78293291D01*
X126028962Y-78414374D01*
X126084576Y-78528264D01*
X126152863Y-78633797D01*
X126233157Y-78729805D01*
X126324792Y-78815124D01*
X126333241Y-78821972D01*
X126435338Y-78894759D01*
X126542662Y-78953246D01*
X126656882Y-78998175D01*
X126779669Y-79030287D01*
X126818099Y-79037477D01*
X126823619Y-79037997D01*
X126834175Y-79038500D01*
X126850003Y-79038987D01*
X126871340Y-79039458D01*
X126898422Y-79039913D01*
X126931486Y-79040353D01*
X126970769Y-79040778D01*
X127016506Y-79041189D01*
X127068936Y-79041584D01*
X127128293Y-79041966D01*
X127194816Y-79042333D01*
X127268740Y-79042687D01*
X127350302Y-79043027D01*
X127439740Y-79043354D01*
X127537288Y-79043668D01*
X127643185Y-79043970D01*
X127757666Y-79044259D01*
X127880968Y-79044536D01*
X128013329Y-79044801D01*
X128154984Y-79045055D01*
X128306169Y-79045298D01*
X128467123Y-79045529D01*
X128638081Y-79045750D01*
X128819279Y-79045960D01*
X129010955Y-79046160D01*
X129213346Y-79046350D01*
X129426687Y-79046530D01*
X129651215Y-79046701D01*
X129887167Y-79046863D01*
X130134780Y-79047016D01*
X130394290Y-79047160D01*
X130665934Y-79047296D01*
X130949948Y-79047424D01*
X131246569Y-79047544D01*
X131556034Y-79047657D01*
X131878579Y-79047762D01*
X132214441Y-79047861D01*
X132563856Y-79047953D01*
X132927061Y-79048038D01*
X133304293Y-79048117D01*
X133695788Y-79048191D01*
X134101783Y-79048258D01*
X134522515Y-79048321D01*
X134958219Y-79048378D01*
X135409134Y-79048431D01*
X135875495Y-79048479D01*
X136357538Y-79048522D01*
X136503997Y-79048535D01*
X136981879Y-79048572D01*
X137444028Y-79048604D01*
X137890704Y-79048632D01*
X138322165Y-79048654D01*
X138738670Y-79048670D01*
X139140476Y-79048680D01*
X139527842Y-79048684D01*
X139901026Y-79048681D01*
X140260287Y-79048672D01*
X140605882Y-79048655D01*
X140938071Y-79048630D01*
X141257111Y-79048598D01*
X141563261Y-79048558D01*
X141856778Y-79048510D01*
X142137923Y-79048452D01*
X142406951Y-79048386D01*
X142664123Y-79048311D01*
X142909696Y-79048226D01*
X143143928Y-79048131D01*
X143367079Y-79048027D01*
X143579405Y-79047911D01*
X143781166Y-79047786D01*
X143972620Y-79047649D01*
X144154025Y-79047501D01*
X144325639Y-79047341D01*
X144487721Y-79047169D01*
X144640529Y-79046986D01*
X144784321Y-79046790D01*
X144919356Y-79046581D01*
X145045891Y-79046359D01*
X145164186Y-79046124D01*
X145274498Y-79045875D01*
X145377087Y-79045613D01*
X145472209Y-79045336D01*
X145560124Y-79045045D01*
X145641089Y-79044739D01*
X145715363Y-79044418D01*
X145783205Y-79044081D01*
X145844873Y-79043729D01*
X145900624Y-79043362D01*
X145950718Y-79042977D01*
X145995412Y-79042577D01*
X146034965Y-79042159D01*
X146069635Y-79041725D01*
X146099681Y-79041273D01*
X146125360Y-79040803D01*
X146146932Y-79040316D01*
X146164653Y-79039810D01*
X146178784Y-79039286D01*
X146189581Y-79038743D01*
X146197304Y-79038181D01*
X146202127Y-79037613D01*
X146329236Y-79009345D01*
X146450319Y-78967072D01*
X146564210Y-78911458D01*
X146669742Y-78843171D01*
X146765751Y-78762877D01*
X146851069Y-78671242D01*
X146857918Y-78662793D01*
X146931835Y-78558542D01*
X146991340Y-78447980D01*
X147036758Y-78330351D01*
X147068417Y-78204899D01*
X147076698Y-78156416D01*
X147077507Y-78145081D01*
X147078273Y-78122005D01*
X147078996Y-78086987D01*
X147079676Y-78039823D01*
X147080315Y-77980310D01*
X147080912Y-77908244D01*
X147081469Y-77823423D01*
X147081985Y-77725644D01*
X147082462Y-77614702D01*
X147082900Y-77490396D01*
X147083299Y-77352522D01*
X147083661Y-77200877D01*
X147083984Y-77035257D01*
X147084271Y-76855459D01*
X147084521Y-76661282D01*
X147084736Y-76452520D01*
X147084915Y-76228971D01*
X147085059Y-75990433D01*
X147085169Y-75736701D01*
X147085246Y-75467572D01*
X147085289Y-75182844D01*
X147085300Y-74906464D01*
X147085291Y-74633724D01*
X147085271Y-74376519D01*
X147085236Y-74134397D01*
X147085186Y-73906903D01*
X147085119Y-73693583D01*
X147085033Y-73493983D01*
X147084927Y-73307649D01*
X147084799Y-73134127D01*
X147084647Y-72972963D01*
X147084469Y-72823703D01*
X147084265Y-72685893D01*
X147084032Y-72559080D01*
X147083769Y-72442808D01*
X147083474Y-72336625D01*
X147083146Y-72240077D01*
X147082783Y-72152708D01*
X147082383Y-72074066D01*
X147081944Y-72003696D01*
X147081466Y-71941144D01*
X147080946Y-71885957D01*
X147080382Y-71837680D01*
X147079774Y-71795859D01*
X147079119Y-71760041D01*
X147078417Y-71729771D01*
X147077664Y-71704596D01*
X147076860Y-71684061D01*
X147076003Y-71667713D01*
X147075091Y-71655097D01*
X147074122Y-71645760D01*
X147073558Y-71641814D01*
X147045291Y-71514704D01*
X147003017Y-71393621D01*
X146947404Y-71279731D01*
X146879117Y-71174199D01*
X146798822Y-71078190D01*
X146707187Y-70992872D01*
X146698738Y-70986023D01*
X146594487Y-70912106D01*
X146483925Y-70852601D01*
X146366296Y-70807183D01*
X146240845Y-70775524D01*
X146192362Y-70767243D01*
X146183778Y-70766777D01*
X146164230Y-70766326D01*
X146133587Y-70765889D01*
X146091716Y-70765467D01*
X146038486Y-70765058D01*
X145973763Y-70764663D01*
X145897416Y-70764282D01*
X145809312Y-70763915D01*
X145709320Y-70763561D01*
X145597306Y-70763220D01*
X145473140Y-70762893D01*
X145336687Y-70762579D01*
X145187817Y-70762278D01*
X145026397Y-70761989D01*
X144852294Y-70761714D01*
X144665377Y-70761451D01*
X144465513Y-70761201D01*
X144252571Y-70760964D01*
X144026417Y-70760738D01*
X143786919Y-70760525D01*
X143533946Y-70760324D01*
X143267365Y-70760135D01*
X142987044Y-70759958D01*
X142692851Y-70759793D01*
X142384652Y-70759639D01*
X142062317Y-70759496D01*
X141725713Y-70759366D01*
X141374708Y-70759246D01*
X141009169Y-70759138D01*
X140628964Y-70759040D01*
X140233961Y-70758954D01*
X139824027Y-70758878D01*
X139399032Y-70758813D01*
X138958841Y-70758759D01*
X138503324Y-70758715D01*
X138032347Y-70758681D01*
X137545778Y-70758658D01*
X137043486Y-70758644D01*
X136525338Y-70758641D01*
X136518456Y-70758641D01*
X136040787Y-70758644D01*
X135578851Y-70758651D01*
X135132387Y-70758662D01*
X134701138Y-70758677D01*
X134284846Y-70758696D01*
X133883251Y-70758720D01*
X133496097Y-70758749D01*
X133123123Y-70758784D01*
X132764073Y-70758824D01*
X132418687Y-70758871D01*
X132086707Y-70758923D01*
X131767875Y-70758983D01*
X131461932Y-70759049D01*
X131168621Y-70759123D01*
X130887682Y-70759204D01*
X130618857Y-70759294D01*
X130361888Y-70759391D01*
X130116517Y-70759497D01*
X129882485Y-70759612D01*
X129659534Y-70759736D01*
X129447405Y-70759869D01*
X129245840Y-70760013D01*
X129054580Y-70760166D01*
X128873368Y-70760330D01*
X128701945Y-70760505D01*
X128540052Y-70760690D01*
X128387432Y-70760887D01*
X128243825Y-70761096D01*
X128108974Y-70761317D01*
X127982619Y-70761550D01*
X127864504Y-70761796D01*
X127754368Y-70762054D01*
X127651954Y-70762326D01*
X127557004Y-70762611D01*
X127469259Y-70762911D01*
X127388461Y-70763224D01*
X127314351Y-70763552D01*
X127246671Y-70763895D01*
X127185162Y-70764252D01*
X127129567Y-70764626D01*
X127079627Y-70765015D01*
X127035083Y-70765420D01*
X126995677Y-70765841D01*
X126961151Y-70766280D01*
X126931247Y-70766735D01*
X126905705Y-70767207D01*
X126884268Y-70767697D01*
X126866677Y-70768205D01*
X126852674Y-70768732D01*
X126842001Y-70769277D01*
X126834398Y-70769840D01*
X126829853Y-70770383D01*
X126702743Y-70798650D01*
X126581660Y-70840924D01*
X126467770Y-70896537D01*
X126362237Y-70964824D01*
X126266229Y-71045118D01*
X126180910Y-71136754D01*
X126174062Y-71145203D01*
X126100145Y-71249453D01*
X126040640Y-71360016D01*
X125995222Y-71477644D01*
X125963563Y-71603096D01*
X125955281Y-71651579D01*
X125954472Y-71662914D01*
X125953707Y-71685990D01*
X125952984Y-71721008D01*
X125952304Y-71768172D01*
X125951665Y-71827685D01*
X125951067Y-71899751D01*
X125950511Y-71984572D01*
X125949994Y-72082351D01*
X125949517Y-72193293D01*
X125949080Y-72317599D01*
X125948680Y-72455473D01*
X125948319Y-72607119D01*
X125947995Y-72772738D01*
X125947709Y-72952536D01*
X125947458Y-73146714D01*
X125947244Y-73355475D01*
X125947065Y-73579024D01*
X125946920Y-73817563D01*
X125946810Y-74071295D01*
X125946734Y-74340423D01*
X125946691Y-74625151D01*
X125946680Y-74901532D01*
X125669285Y-74901532D01*
X125669290Y-74895342D01*
X125669320Y-74860025D01*
X125669545Y-74588742D01*
X125669749Y-74332974D01*
X125669939Y-74092245D01*
X125670120Y-73866081D01*
X125670298Y-73654008D01*
X125670480Y-73455549D01*
X125670673Y-73270229D01*
X125670881Y-73097575D01*
X125671112Y-72937111D01*
X125671371Y-72788361D01*
X125671664Y-72650851D01*
X125671999Y-72524106D01*
X125672380Y-72407650D01*
X125672814Y-72301010D01*
X125673308Y-72203709D01*
X125673867Y-72115272D01*
X125674498Y-72035226D01*
X125675206Y-71963094D01*
X125675998Y-71898402D01*
X125676881Y-71840674D01*
X125677860Y-71789436D01*
X125678941Y-71744213D01*
X125680130Y-71704530D01*
X125681435Y-71669911D01*
X125682860Y-71639882D01*
X125684412Y-71613967D01*
X125686098Y-71591692D01*
X125687923Y-71572581D01*
X125689894Y-71556160D01*
X125692016Y-71541954D01*
X125694296Y-71529487D01*
X125696740Y-71518284D01*
X125699355Y-71507871D01*
X125702146Y-71497773D01*
X125705119Y-71487514D01*
X125708281Y-71476620D01*
X125711638Y-71464615D01*
X125713477Y-71457723D01*
X125756723Y-71323624D01*
X125814348Y-71195294D01*
X125885418Y-71073898D01*
X125968999Y-70960603D01*
X126064156Y-70856576D01*
X126169955Y-70762982D01*
X126285463Y-70680990D01*
X126378376Y-70627563D01*
X126483482Y-70578197D01*
X126589180Y-70539959D01*
X126700070Y-70511433D01*
X126820752Y-70491205D01*
X126822096Y-70491030D01*
X126827872Y-70490417D01*
X126835741Y-70489825D01*
X126845965Y-70489253D01*
X126858809Y-70488702D01*
X126874534Y-70488171D01*
X126893405Y-70487659D01*
X126915684Y-70487167D01*
X126941636Y-70486695D01*
X126971522Y-70486241D01*
X127005607Y-70485807D01*
X127044152Y-70485391D01*
X127087423Y-70484993D01*
X127135681Y-70484613D01*
X127189191Y-70484251D01*
X127248215Y-70483906D01*
X127313016Y-70483579D01*
X127383857Y-70483269D01*
X127461003Y-70482975D01*
X127544716Y-70482697D01*
X127635259Y-70482436D01*
X127732895Y-70482191D01*
X127837889Y-70481961D01*
X127950502Y-70481747D01*
X128070998Y-70481547D01*
X128199641Y-70481363D01*
X128336693Y-70481193D01*
X128482417Y-70481037D01*
X128637078Y-70480896D01*
X128800938Y-70480768D01*
X128974260Y-70480654D01*
X129157308Y-70480553D01*
X129350345Y-70480465D01*
X129553633Y-70480389D01*
X129767437Y-70480326D01*
X129992019Y-70480276D01*
X130227643Y-70480237D01*
X130474571Y-70480210D01*
X130733068Y-70480194D01*
X131003396Y-70480189D01*
X131285818Y-70480195D01*
G37*
G36*
X137004897Y-71114386D02*
G01*
X137462091Y-71114388D01*
X137903828Y-71114393D01*
X138330374Y-71114400D01*
X138741997Y-71114410D01*
X139138963Y-71114424D01*
X139521538Y-71114441D01*
X139889988Y-71114462D01*
X140244582Y-71114488D01*
X140585584Y-71114518D01*
X140913261Y-71114554D01*
X141227880Y-71114596D01*
X141529708Y-71114643D01*
X141819011Y-71114697D01*
X142096056Y-71114757D01*
X142361109Y-71114825D01*
X142614436Y-71114900D01*
X142856305Y-71114983D01*
X143086981Y-71115075D01*
X143306732Y-71115175D01*
X143515823Y-71115284D01*
X143714522Y-71115402D01*
X143903094Y-71115530D01*
X144081808Y-71115669D01*
X144250928Y-71115818D01*
X144410721Y-71115978D01*
X144561455Y-71116149D01*
X144703395Y-71116332D01*
X144836808Y-71116527D01*
X144961961Y-71116735D01*
X145079120Y-71116956D01*
X145188552Y-71117189D01*
X145290523Y-71117437D01*
X145385300Y-71117698D01*
X145473149Y-71117974D01*
X145554337Y-71118265D01*
X145629131Y-71118570D01*
X145697796Y-71118892D01*
X145760600Y-71119229D01*
X145817809Y-71119582D01*
X145869689Y-71119952D01*
X145916508Y-71120340D01*
X145958531Y-71120745D01*
X145996025Y-71121167D01*
X146029257Y-71121608D01*
X146058494Y-71122067D01*
X146084001Y-71122546D01*
X146106045Y-71123043D01*
X146124893Y-71123561D01*
X146140812Y-71124098D01*
X146154068Y-71124657D01*
X146164927Y-71125236D01*
X146173656Y-71125836D01*
X146180521Y-71126458D01*
X146185790Y-71127102D01*
X146189728Y-71127768D01*
X146191793Y-71128237D01*
X146299083Y-71163382D01*
X146397053Y-71210901D01*
X146484999Y-71270112D01*
X146562214Y-71340332D01*
X146627992Y-71420879D01*
X146681629Y-71511069D01*
X146722416Y-71610221D01*
X146735459Y-71654045D01*
X146753541Y-71722002D01*
X146753541Y-73093138D01*
X146753533Y-73267428D01*
X146753505Y-73426456D01*
X146753449Y-73570953D01*
X146753359Y-73701648D01*
X146753227Y-73819269D01*
X146753047Y-73924546D01*
X146752810Y-74018208D01*
X146752511Y-74100984D01*
X146752142Y-74173603D01*
X146751695Y-74236794D01*
X146751165Y-74291287D01*
X146750543Y-74337810D01*
X146749823Y-74377094D01*
X146748997Y-74409866D01*
X146748059Y-74436856D01*
X146747002Y-74458793D01*
X146745817Y-74476407D01*
X146744499Y-74490426D01*
X146743040Y-74501579D01*
X146741433Y-74510597D01*
X146739688Y-74518139D01*
X146704369Y-74625974D01*
X146656616Y-74724274D01*
X146597015Y-74812428D01*
X146526154Y-74889824D01*
X146444620Y-74955849D01*
X146353002Y-75009892D01*
X146251885Y-75051341D01*
X146217878Y-75061771D01*
X146153919Y-75079887D01*
X136567957Y-75080924D01*
X136164385Y-75080962D01*
X135765442Y-75080988D01*
X135371422Y-75081002D01*
X134982617Y-75081005D01*
X134599322Y-75080997D01*
X134221829Y-75080977D01*
X133850433Y-75080946D01*
X133485425Y-75080905D01*
X133127100Y-75080853D01*
X132775751Y-75080790D01*
X132431672Y-75080717D01*
X132095154Y-75080635D01*
X131766493Y-75080542D01*
X131445981Y-75080439D01*
X131133912Y-75080327D01*
X130830579Y-75080206D01*
X130536275Y-75080075D01*
X130251294Y-75079936D01*
X129975929Y-75079787D01*
X129710473Y-75079630D01*
X129455220Y-75079465D01*
X129210463Y-75079291D01*
X128976495Y-75079109D01*
X128753610Y-75078919D01*
X128542101Y-75078722D01*
X128342261Y-75078517D01*
X128154384Y-75078304D01*
X127978763Y-75078084D01*
X127815692Y-75077857D01*
X127665463Y-75077624D01*
X127528371Y-75077384D01*
X127404708Y-75077137D01*
X127294768Y-75076884D01*
X127198843Y-75076624D01*
X127117229Y-75076359D01*
X127050217Y-75076088D01*
X126998101Y-75075812D01*
X126961175Y-75075530D01*
X126939732Y-75075243D01*
X126934026Y-75075030D01*
X126830855Y-75052291D01*
X126733569Y-75015338D01*
X126643367Y-74965246D01*
X126561453Y-74903092D01*
X126489027Y-74829949D01*
X126427290Y-74746894D01*
X126377444Y-74655001D01*
X126340690Y-74555347D01*
X126336495Y-74540227D01*
X126318414Y-74472270D01*
X126318414Y-73268956D01*
X128481002Y-73268956D01*
X128483745Y-73337265D01*
X128490715Y-73397382D01*
X128492168Y-73405560D01*
X128516040Y-73497042D01*
X128551123Y-73577915D01*
X128597003Y-73647690D01*
X128653267Y-73705877D01*
X128719501Y-73751985D01*
X128795291Y-73785525D01*
X128819034Y-73792841D01*
X128856695Y-73799674D01*
X128904455Y-73802943D01*
X128957403Y-73802845D01*
X129010629Y-73799575D01*
X129059224Y-73793328D01*
X129098276Y-73784300D01*
X129106601Y-73781390D01*
X129146582Y-73761994D01*
X129188401Y-73735245D01*
X129226968Y-73704885D01*
X129257189Y-73674662D01*
X129264558Y-73665224D01*
X129278101Y-73647993D01*
X129288346Y-73638002D01*
X129290541Y-73637016D01*
X129293181Y-73644313D01*
X129295228Y-73664045D01*
X129296385Y-73692660D01*
X129296538Y-73708751D01*
X129296538Y-73780705D01*
X129468429Y-73780705D01*
X129640321Y-73780705D01*
X129640321Y-73243208D01*
X129875253Y-73243208D01*
X129876551Y-73301691D01*
X129879849Y-73355676D01*
X129885139Y-73401118D01*
X129890891Y-73428927D01*
X129922755Y-73516223D01*
X129966459Y-73592851D01*
X130021620Y-73658455D01*
X130087860Y-73712679D01*
X130164796Y-73755168D01*
X130252049Y-73785567D01*
X130279918Y-73792220D01*
X130314859Y-73797447D01*
X130361372Y-73801153D01*
X130415103Y-73803291D01*
X130471704Y-73803809D01*
X130526822Y-73802659D01*
X130576106Y-73799791D01*
X130610178Y-73795964D01*
X130676882Y-73783241D01*
X130742042Y-73766072D01*
X130799132Y-73746229D01*
X130809584Y-73741844D01*
X130847561Y-73725309D01*
X130847561Y-73597499D01*
X130847561Y-73469690D01*
X130789597Y-73497064D01*
X130736323Y-73520236D01*
X130687737Y-73536306D01*
X130638630Y-73546367D01*
X130583790Y-73551514D01*
X130523764Y-73552849D01*
X130463979Y-73551578D01*
X130416686Y-73547047D01*
X130378536Y-73538181D01*
X130346182Y-73523904D01*
X130316276Y-73503138D01*
X130287600Y-73476936D01*
X130263000Y-73450526D01*
X130245949Y-73425960D01*
X130233814Y-73398024D01*
X130223963Y-73361500D01*
X130220004Y-73342981D01*
X130214688Y-73316997D01*
X130579094Y-73316997D01*
X130943500Y-73316997D01*
X130943500Y-73200733D01*
X130940761Y-73110629D01*
X130932064Y-73032865D01*
X130916686Y-72964672D01*
X130893906Y-72903283D01*
X130863002Y-72845929D01*
X130843313Y-72816545D01*
X130792058Y-72756792D01*
X130731423Y-72708685D01*
X130660100Y-72671348D01*
X130625161Y-72659412D01*
X131005162Y-72659412D01*
X131007400Y-72667356D01*
X131014481Y-72688939D01*
X131025903Y-72722730D01*
X131041164Y-72767298D01*
X131059761Y-72821211D01*
X131081193Y-72883039D01*
X131104957Y-72951349D01*
X131130553Y-73024712D01*
X131157477Y-73101696D01*
X131185228Y-73180868D01*
X131213304Y-73260800D01*
X131241203Y-73340058D01*
X131268423Y-73417213D01*
X131294462Y-73490832D01*
X131318818Y-73559485D01*
X131340989Y-73621740D01*
X131360473Y-73676167D01*
X131376768Y-73721333D01*
X131389372Y-73755808D01*
X131394933Y-73770711D01*
X131400038Y-73773984D01*
X131413544Y-73776519D01*
X131436899Y-73778385D01*
X131471551Y-73779656D01*
X131518946Y-73780402D01*
X131580532Y-73780695D01*
X131597597Y-73780705D01*
X131796483Y-73780705D01*
X132350614Y-73780705D01*
X132526557Y-73780705D01*
X132702500Y-73780705D01*
X132700456Y-73221447D01*
X132926952Y-73221447D01*
X132927637Y-73288518D01*
X132932702Y-73349955D01*
X132941157Y-73396434D01*
X132971209Y-73486951D01*
X133012783Y-73566422D01*
X133065852Y-73634807D01*
X133115888Y-73680965D01*
X133161216Y-73714005D01*
X133207562Y-73740871D01*
X133258725Y-73763236D01*
X133318503Y-73782776D01*
X133385962Y-73800069D01*
X133406040Y-73802321D01*
X133438592Y-73803261D01*
X133480167Y-73803038D01*
X133527316Y-73801802D01*
X133576588Y-73799703D01*
X133624536Y-73796891D01*
X133667707Y-73793515D01*
X133702654Y-73789725D01*
X133725925Y-73785671D01*
X133727538Y-73785240D01*
X133760647Y-73774914D01*
X133794226Y-73762940D01*
X133809487Y-73756809D01*
X133845672Y-73741299D01*
X133845672Y-73601103D01*
X133845295Y-73555763D01*
X133844248Y-73516532D01*
X133842659Y-73485966D01*
X133840655Y-73466621D01*
X133838684Y-73460907D01*
X133828171Y-73464535D01*
X133809081Y-73473793D01*
X133796307Y-73480686D01*
X133727888Y-73511801D01*
X133658345Y-73530266D01*
X133589547Y-73536494D01*
X133523363Y-73530897D01*
X133461662Y-73513888D01*
X133406311Y-73485881D01*
X133359180Y-73447287D01*
X133322137Y-73398521D01*
X133309105Y-73373023D01*
X133290129Y-73313817D01*
X133281274Y-73248110D01*
X133281360Y-73243208D01*
X134008650Y-73243208D01*
X134009948Y-73301691D01*
X134013245Y-73355676D01*
X134018536Y-73401118D01*
X134024287Y-73428927D01*
X134056152Y-73516223D01*
X134099855Y-73592851D01*
X134155017Y-73658455D01*
X134221256Y-73712679D01*
X134298192Y-73755168D01*
X134385445Y-73785567D01*
X134413314Y-73792220D01*
X134448256Y-73797447D01*
X134494768Y-73801153D01*
X134548500Y-73803291D01*
X134605100Y-73803809D01*
X134660218Y-73802659D01*
X134709502Y-73799791D01*
X134743574Y-73795964D01*
X134810278Y-73783241D01*
X134875438Y-73766072D01*
X134913269Y-73752923D01*
X135204816Y-73752923D01*
X135254840Y-73767249D01*
X135307513Y-73781241D01*
X135355616Y-73791225D01*
X135403521Y-73797681D01*
X135455600Y-73801090D01*
X135516225Y-73801931D01*
X135564589Y-73801281D01*
X135631919Y-73799125D01*
X135685315Y-73795672D01*
X135726792Y-73790749D01*
X135756468Y-73784690D01*
X135768596Y-73780705D01*
X137163582Y-73780705D01*
X137339471Y-73780705D01*
X137515360Y-73780705D01*
X137515360Y-73464904D01*
X137722869Y-73464904D01*
X137724295Y-73503611D01*
X137727923Y-73542051D01*
X137733044Y-73573244D01*
X137734482Y-73579123D01*
X137759152Y-73640592D01*
X137797070Y-73694929D01*
X137846420Y-73740374D01*
X137905390Y-73775165D01*
X137955083Y-73793276D01*
X137995305Y-73800559D01*
X138044917Y-73803872D01*
X138097871Y-73803306D01*
X138148113Y-73798955D01*
X138189594Y-73790911D01*
X138193934Y-73789628D01*
X138227062Y-73777651D01*
X138260192Y-73763063D01*
X138277529Y-73753937D01*
X138297761Y-73739595D01*
X138322060Y-73718799D01*
X138347229Y-73694771D01*
X138370073Y-73670734D01*
X138387396Y-73649908D01*
X138396002Y-73635517D01*
X138396337Y-73634153D01*
X138397410Y-73637403D01*
X138399065Y-73653703D01*
X138401039Y-73680134D01*
X138402333Y-73700756D01*
X138406799Y-73776708D01*
X138573169Y-73778870D01*
X138739540Y-73781032D01*
X138739538Y-73780705D01*
X139010419Y-73780705D01*
X139186308Y-73780705D01*
X139362197Y-73780705D01*
X139362197Y-73721124D01*
X139362197Y-73661542D01*
X139400438Y-73699783D01*
X139456621Y-73746889D01*
X139516830Y-73779333D01*
X139554270Y-73791873D01*
X139594873Y-73799197D01*
X139645276Y-73803009D01*
X139699679Y-73803299D01*
X139752279Y-73800055D01*
X139797275Y-73793264D01*
X139801176Y-73792380D01*
X139876110Y-73766711D01*
X139944690Y-73727124D01*
X140006076Y-73674712D01*
X140032635Y-73642779D01*
X140349325Y-73642779D01*
X140362997Y-73694047D01*
X140370447Y-73710286D01*
X140395837Y-73744780D01*
X140433428Y-73774919D01*
X140465856Y-73792079D01*
X140494078Y-73799538D01*
X140531718Y-73803261D01*
X140572638Y-73803206D01*
X140610696Y-73799328D01*
X140635411Y-73793283D01*
X140684328Y-73768397D01*
X140721142Y-73733516D01*
X140745074Y-73689738D01*
X140755341Y-73638158D01*
X140755683Y-73624482D01*
X140748623Y-73570882D01*
X140728167Y-73525964D01*
X140694224Y-73489540D01*
X140687912Y-73484761D01*
X140648093Y-73461750D01*
X140604613Y-73449149D01*
X140553120Y-73445895D01*
X140532306Y-73446773D01*
X140475913Y-73456951D01*
X140428371Y-73478580D01*
X140390811Y-73509817D01*
X140364362Y-73548824D01*
X140350157Y-73593758D01*
X140349325Y-73642779D01*
X140032635Y-73642779D01*
X140059427Y-73610566D01*
X140103902Y-73535778D01*
X140138660Y-73451439D01*
X140162862Y-73358642D01*
X140170273Y-73313000D01*
X140175304Y-73253733D01*
X140175870Y-73217060D01*
X140941549Y-73217060D01*
X140941708Y-73272782D01*
X140942647Y-73315651D01*
X140944604Y-73348795D01*
X140947819Y-73375342D01*
X140952530Y-73398421D01*
X140956475Y-73412937D01*
X140990238Y-73502284D01*
X141035697Y-73580777D01*
X141092595Y-73648184D01*
X141160678Y-73704275D01*
X141239690Y-73748818D01*
X141329376Y-73781583D01*
X141376928Y-73793224D01*
X141415867Y-73798666D01*
X141465941Y-73801715D01*
X141522834Y-73802491D01*
X141582232Y-73801114D01*
X141639817Y-73797705D01*
X141691276Y-73792383D01*
X141732293Y-73785269D01*
X141740900Y-73783090D01*
X141828544Y-73751299D01*
X141907682Y-73707407D01*
X141976796Y-73652472D01*
X142034367Y-73587552D01*
X142046742Y-73569940D01*
X142085261Y-73504741D01*
X142113546Y-73438294D01*
X142132497Y-73367250D01*
X142143018Y-73288259D01*
X142146020Y-73201070D01*
X142140635Y-73104071D01*
X142124672Y-73017804D01*
X142097577Y-72940544D01*
X142058797Y-72870568D01*
X142026060Y-72826970D01*
X141963939Y-72763745D01*
X141893485Y-72713157D01*
X141813994Y-72674887D01*
X141740003Y-72653103D01*
X142368303Y-72653103D01*
X142368303Y-73216904D01*
X142368303Y-73780705D01*
X142543774Y-73780705D01*
X142719245Y-73780705D01*
X142721702Y-73458908D01*
X142722335Y-73378683D01*
X142722954Y-73312773D01*
X142723659Y-73259504D01*
X142723914Y-73247378D01*
X143183895Y-73247378D01*
X143185559Y-73321798D01*
X143191270Y-73384807D01*
X143201875Y-73440664D01*
X143218217Y-73493624D01*
X143241144Y-73547944D01*
X143245364Y-73556805D01*
X143288892Y-73631708D01*
X143340723Y-73692993D01*
X143401061Y-73740789D01*
X143470113Y-73775221D01*
X143548083Y-73796416D01*
X143635176Y-73804501D01*
X143647179Y-73804595D01*
X143725750Y-73799799D01*
X143793703Y-73784921D01*
X143853615Y-73758912D01*
X143908064Y-73720724D01*
X143948177Y-73682045D01*
X143999276Y-73626854D01*
X143999137Y-73681794D01*
X143992893Y-73765011D01*
X143974605Y-73837712D01*
X143944270Y-73899898D01*
X143901887Y-73951575D01*
X143847452Y-73992746D01*
X143780963Y-74023414D01*
X143747476Y-74033692D01*
X143707543Y-74040621D01*
X143657679Y-74043791D01*
X143603490Y-74043221D01*
X143550582Y-74038931D01*
X143513182Y-74032883D01*
X143466981Y-74021221D01*
X143417738Y-74005582D01*
X143371028Y-73987960D01*
X143332422Y-73970348D01*
X143321246Y-73964197D01*
X143302250Y-73954064D01*
X143288840Y-73948806D01*
X143287267Y-73948599D01*
X143284657Y-73956278D01*
X143282503Y-73978054D01*
X143280904Y-74012042D01*
X143279955Y-74056352D01*
X143279729Y-74095420D01*
X143279729Y-74242241D01*
X143313708Y-74255091D01*
X143403523Y-74282015D01*
X143503483Y-74299199D01*
X143610843Y-74306365D01*
X143722859Y-74303235D01*
X143758379Y-74300102D01*
X143869389Y-74282486D01*
X143969130Y-74253607D01*
X144057542Y-74213516D01*
X144134563Y-74162264D01*
X144200136Y-74099903D01*
X144254200Y-74026483D01*
X144296694Y-73942055D01*
X144327559Y-73846670D01*
X144336005Y-73808688D01*
X144338282Y-73794035D01*
X144340245Y-73774076D01*
X144341913Y-73747716D01*
X144343307Y-73713859D01*
X144344446Y-73671411D01*
X144345350Y-73619276D01*
X144346039Y-73556359D01*
X144346535Y-73481565D01*
X144346855Y-73393799D01*
X144347021Y-73291966D01*
X144347057Y-73205068D01*
X144347057Y-72657413D01*
X144173166Y-72655258D01*
X143999276Y-72653103D01*
X143999276Y-72717863D01*
X143999276Y-72782623D01*
X143958675Y-72738199D01*
X143906084Y-72692257D01*
X143844215Y-72658632D01*
X143774376Y-72637657D01*
X143697875Y-72629667D01*
X143616022Y-72634996D01*
X143579540Y-72641458D01*
X143498425Y-72666446D01*
X143424342Y-72705559D01*
X143358281Y-72758115D01*
X143301232Y-72823436D01*
X143288854Y-72841143D01*
X143249021Y-72910024D01*
X143219233Y-72983526D01*
X143198866Y-73064057D01*
X143187299Y-73154026D01*
X143183895Y-73247378D01*
X142723914Y-73247378D01*
X142724547Y-73217203D01*
X142725715Y-73184194D01*
X142727261Y-73158805D01*
X142729283Y-73139361D01*
X142731879Y-73124187D01*
X142735146Y-73111610D01*
X142739181Y-73099955D01*
X142743253Y-73089613D01*
X142772818Y-73035154D01*
X142812125Y-72992666D01*
X142859799Y-72962625D01*
X142914463Y-72945512D01*
X142974743Y-72941804D01*
X143039263Y-72951980D01*
X143089849Y-72969111D01*
X143094593Y-72970127D01*
X143098127Y-72967376D01*
X143100628Y-72958900D01*
X143102273Y-72942741D01*
X143103239Y-72916941D01*
X143103701Y-72879543D01*
X143103836Y-72828587D01*
X143103840Y-72813972D01*
X143103840Y-72653020D01*
X143081854Y-72644426D01*
X143062201Y-72640543D01*
X143031629Y-72638873D01*
X142995089Y-72639676D01*
X142993414Y-72639772D01*
X142923865Y-72650609D01*
X142863585Y-72674452D01*
X142812245Y-72711519D01*
X142769517Y-72762029D01*
X142745244Y-72804104D01*
X142724079Y-72846861D01*
X142720082Y-72752137D01*
X142716084Y-72657413D01*
X142542194Y-72655258D01*
X142368303Y-72653103D01*
X141740003Y-72653103D01*
X141724759Y-72648615D01*
X141625076Y-72634019D01*
X141596789Y-72632066D01*
X141487356Y-72632445D01*
X141385834Y-72645619D01*
X141292822Y-72671231D01*
X141208922Y-72708923D01*
X141134735Y-72758337D01*
X141070862Y-72819116D01*
X141017903Y-72890902D01*
X140976460Y-72973337D01*
X140963305Y-73009023D01*
X140955560Y-73033235D01*
X140949932Y-73054639D01*
X140946077Y-73076520D01*
X140943652Y-73102167D01*
X140942312Y-73134866D01*
X140941714Y-73177905D01*
X140941549Y-73217060D01*
X140175870Y-73217060D01*
X140176338Y-73186785D01*
X140173636Y-73117552D01*
X140167455Y-73051430D01*
X140158053Y-72993816D01*
X140154191Y-72977211D01*
X140125085Y-72890179D01*
X140085618Y-72815082D01*
X140036257Y-72752271D01*
X139977470Y-72702091D01*
X139909724Y-72664892D01*
X139833489Y-72641022D01*
X139749230Y-72630828D01*
X139689902Y-72631731D01*
X139608653Y-72643796D01*
X139535771Y-72669257D01*
X139470060Y-72708691D01*
X139410326Y-72762680D01*
X139402940Y-72770794D01*
X139362197Y-72816506D01*
X139362197Y-72467130D01*
X139362197Y-72117753D01*
X139186308Y-72117753D01*
X139010419Y-72117753D01*
X139010419Y-72949229D01*
X139010419Y-73780705D01*
X138739538Y-73780705D01*
X138736654Y-73383119D01*
X138735939Y-73288326D01*
X138735179Y-73207974D01*
X138734220Y-73140517D01*
X138732906Y-73084407D01*
X138731085Y-73038096D01*
X138728602Y-73000037D01*
X138725302Y-72968683D01*
X138722130Y-72949229D01*
X138721031Y-72942486D01*
X138715635Y-72919898D01*
X138708961Y-72899372D01*
X138700852Y-72879361D01*
X138691156Y-72858316D01*
X138682573Y-72840561D01*
X138644539Y-72780103D01*
X138594459Y-72729511D01*
X138533067Y-72689044D01*
X138461100Y-72658959D01*
X138379292Y-72639516D01*
X138288379Y-72630973D01*
X138189097Y-72633589D01*
X138117520Y-72641823D01*
X138056652Y-72652645D01*
X137993945Y-72666920D01*
X137934439Y-72683319D01*
X137883174Y-72700512D01*
X137861142Y-72709458D01*
X137827164Y-72724471D01*
X137827164Y-72856837D01*
X137827436Y-72900819D01*
X137828188Y-72938616D01*
X137829327Y-72967600D01*
X137830756Y-72985139D01*
X137831926Y-72989204D01*
X137841007Y-72984998D01*
X137857048Y-72974683D01*
X137859742Y-72972788D01*
X137891249Y-72953936D01*
X137933620Y-72933619D01*
X137982118Y-72913869D01*
X138032006Y-72896716D01*
X138048716Y-72891759D01*
X138097855Y-72880967D01*
X138150915Y-72874545D01*
X138203928Y-72872504D01*
X138252928Y-72874855D01*
X138293947Y-72881611D01*
X138319847Y-72890969D01*
X138345419Y-72907646D01*
X138368329Y-72927429D01*
X138373101Y-72932655D01*
X138384681Y-72951324D01*
X138395195Y-72976425D01*
X138403289Y-73003176D01*
X138407607Y-73026797D01*
X138406794Y-73042506D01*
X138405013Y-73045281D01*
X138395572Y-73047835D01*
X138372660Y-73051976D01*
X138338677Y-73057332D01*
X138296020Y-73063531D01*
X138247089Y-73070202D01*
X138227593Y-73072752D01*
X138143069Y-73084417D01*
X138072482Y-73096021D01*
X138013797Y-73108225D01*
X137964979Y-73121690D01*
X137923990Y-73137079D01*
X137888796Y-73155053D01*
X137857361Y-73176274D01*
X137827648Y-73201403D01*
X137825429Y-73203467D01*
X137781994Y-73251852D01*
X137751159Y-73304988D01*
X137731973Y-73365299D01*
X137723486Y-73435206D01*
X137722869Y-73464904D01*
X137515360Y-73464904D01*
X137515360Y-72949229D01*
X137515360Y-72117753D01*
X137339471Y-72117753D01*
X137163582Y-72117753D01*
X137163582Y-72949229D01*
X137163582Y-73780705D01*
X135768596Y-73780705D01*
X135816772Y-73764875D01*
X135875582Y-73738364D01*
X135927754Y-73707741D01*
X135961816Y-73681517D01*
X136005428Y-73631943D01*
X136038108Y-73572906D01*
X136058687Y-73507604D01*
X136066001Y-73439235D01*
X136063947Y-73401487D01*
X136053240Y-73343927D01*
X136037187Y-73301007D01*
X136276141Y-73301007D01*
X136579950Y-73301007D01*
X136883758Y-73301007D01*
X136883758Y-73181083D01*
X136883758Y-73061158D01*
X136579950Y-73061158D01*
X136276141Y-73061158D01*
X136276141Y-73181083D01*
X136276141Y-73301007D01*
X136037187Y-73301007D01*
X136034390Y-73293529D01*
X136006159Y-73249113D01*
X135967311Y-73209496D01*
X135927290Y-73181083D01*
X135916607Y-73173499D01*
X135852811Y-73139939D01*
X135774685Y-73107636D01*
X135744734Y-73096763D01*
X135682672Y-73073999D01*
X135634560Y-73054062D01*
X135598839Y-73035893D01*
X135573949Y-73018434D01*
X135558331Y-73000625D01*
X135550423Y-72981408D01*
X135548599Y-72963615D01*
X135550887Y-72949229D01*
X135553352Y-72933731D01*
X135569274Y-72911122D01*
X135596313Y-72893395D01*
X135646090Y-72876343D01*
X135705887Y-72870254D01*
X135774247Y-72874961D01*
X135849714Y-72890293D01*
X135930830Y-72916083D01*
X135986323Y-72938562D01*
X135990119Y-72936780D01*
X135992883Y-72926473D01*
X135994746Y-72905927D01*
X135995837Y-72873431D01*
X135996287Y-72827273D01*
X135996317Y-72807274D01*
X135996317Y-72671603D01*
X135914369Y-72654133D01*
X135808539Y-72637069D01*
X135704623Y-72630962D01*
X135604904Y-72635632D01*
X135511666Y-72650896D01*
X135427190Y-72676575D01*
X135382977Y-72696236D01*
X135326572Y-72732678D01*
X135277704Y-72779778D01*
X135240175Y-72833749D01*
X135235041Y-72843649D01*
X135223665Y-72867634D01*
X135216163Y-72887391D01*
X135211732Y-72907379D01*
X135209568Y-72932058D01*
X135208866Y-72965887D01*
X135208813Y-72989204D01*
X135209062Y-73029729D01*
X135210345Y-73058728D01*
X135213468Y-73080661D01*
X135219234Y-73099992D01*
X135228450Y-73121181D01*
X135235091Y-73134859D01*
X135259157Y-73175267D01*
X135290165Y-73211331D01*
X135329740Y-73244118D01*
X135379507Y-73274698D01*
X135441091Y-73304139D01*
X135516118Y-73333510D01*
X135561040Y-73349128D01*
X135614380Y-73368074D01*
X135654418Y-73385003D01*
X135683476Y-73401295D01*
X135703876Y-73418332D01*
X135717942Y-73437495D01*
X135721622Y-73444588D01*
X135729586Y-73463788D01*
X135729824Y-73477933D01*
X135722034Y-73495559D01*
X135719660Y-73499935D01*
X135701578Y-73524517D01*
X135676724Y-73542280D01*
X135642707Y-73554155D01*
X135597138Y-73561073D01*
X135556594Y-73563482D01*
X135467217Y-73560200D01*
X135382353Y-73543450D01*
X135298078Y-73512373D01*
X135276770Y-73502328D01*
X135248511Y-73488490D01*
X135225824Y-73477439D01*
X135212491Y-73471014D01*
X135210812Y-73470234D01*
X135208892Y-73476923D01*
X135207228Y-73497130D01*
X135205923Y-73528385D01*
X135205084Y-73568216D01*
X135204816Y-73610246D01*
X135204816Y-73752923D01*
X134913269Y-73752923D01*
X134932528Y-73746229D01*
X134942981Y-73741844D01*
X134980957Y-73725309D01*
X134980957Y-73610246D01*
X134980957Y-73597499D01*
X134980957Y-73469690D01*
X134922993Y-73497064D01*
X134869719Y-73520236D01*
X134821134Y-73536306D01*
X134772026Y-73546367D01*
X134717186Y-73551514D01*
X134657161Y-73552849D01*
X134597375Y-73551578D01*
X134550082Y-73547047D01*
X134511933Y-73538181D01*
X134479579Y-73523904D01*
X134449672Y-73503138D01*
X134420997Y-73476936D01*
X134396396Y-73450526D01*
X134379345Y-73425960D01*
X134367210Y-73398024D01*
X134357360Y-73361500D01*
X134353401Y-73342981D01*
X134348084Y-73316997D01*
X134712490Y-73316997D01*
X135076896Y-73316997D01*
X135076896Y-73200733D01*
X135074158Y-73110629D01*
X135065460Y-73032865D01*
X135050083Y-72964672D01*
X135027303Y-72903283D01*
X134996398Y-72845929D01*
X134976710Y-72816545D01*
X134925455Y-72756792D01*
X134864820Y-72708685D01*
X134793496Y-72671348D01*
X134723436Y-72647414D01*
X134676525Y-72638443D01*
X134619492Y-72633541D01*
X134557552Y-72632632D01*
X134495917Y-72635640D01*
X134439801Y-72642488D01*
X134397324Y-72652179D01*
X134325570Y-72679317D01*
X134261869Y-72714828D01*
X134201618Y-72761541D01*
X134168691Y-72792624D01*
X134108428Y-72863343D01*
X134061794Y-72941850D01*
X134028078Y-73029379D01*
X134023601Y-73045169D01*
X134016827Y-73081207D01*
X134012082Y-73128922D01*
X134009359Y-73184270D01*
X134008650Y-73243208D01*
X133281360Y-73243208D01*
X133282460Y-73180697D01*
X133293606Y-73116373D01*
X133314402Y-73060378D01*
X133338128Y-73022827D01*
X133369450Y-72985949D01*
X133403644Y-72954756D01*
X133431072Y-72936642D01*
X133492821Y-72913177D01*
X133561120Y-72901977D01*
X133632417Y-72902910D01*
X133703162Y-72915843D01*
X133769804Y-72940645D01*
X133787587Y-72949889D01*
X133811269Y-72962379D01*
X133829750Y-72970844D01*
X133837556Y-72973214D01*
X133840724Y-72965362D01*
X133843150Y-72942347D01*
X133844788Y-72904980D01*
X133845593Y-72854074D01*
X133845672Y-72828855D01*
X133845672Y-72684496D01*
X133810966Y-72669144D01*
X133777983Y-72656128D01*
X133744242Y-72646572D01*
X133706576Y-72640046D01*
X133661819Y-72636120D01*
X133606808Y-72634363D01*
X133553856Y-72634228D01*
X133498854Y-72634904D01*
X133456210Y-72636413D01*
X133422299Y-72639082D01*
X133393499Y-72643238D01*
X133366186Y-72649208D01*
X133354956Y-72652152D01*
X133261101Y-72685077D01*
X133177443Y-72729772D01*
X133104592Y-72785656D01*
X133043158Y-72852150D01*
X132993753Y-72928672D01*
X132956987Y-73014642D01*
X132949932Y-73037230D01*
X132938224Y-73090723D01*
X132930522Y-73153822D01*
X132926952Y-73221447D01*
X132700456Y-73221447D01*
X132700447Y-73219059D01*
X132698395Y-72657413D01*
X132524504Y-72655258D01*
X132350614Y-72653103D01*
X132350614Y-73216904D01*
X132350614Y-73780705D01*
X131796483Y-73780705D01*
X132004391Y-73223056D01*
X132006680Y-73216904D01*
X132037903Y-73132977D01*
X132069656Y-73047250D01*
X132099223Y-72967051D01*
X132126175Y-72893560D01*
X132150085Y-72827955D01*
X132170525Y-72771412D01*
X132187069Y-72725110D01*
X132199287Y-72690227D01*
X132206753Y-72667941D01*
X132209038Y-72659430D01*
X132209030Y-72659412D01*
X132200438Y-72657680D01*
X132178175Y-72656145D01*
X132144559Y-72654882D01*
X132101908Y-72653967D01*
X132052541Y-72653477D01*
X132026885Y-72653415D01*
X131968675Y-72653506D01*
X131924480Y-72653878D01*
X131892327Y-72654683D01*
X131870240Y-72656072D01*
X131856246Y-72658195D01*
X131848370Y-72661203D01*
X131844638Y-72665247D01*
X131843796Y-72667406D01*
X131831668Y-72708310D01*
X131816909Y-72759096D01*
X131800037Y-72817904D01*
X131781567Y-72882875D01*
X131762017Y-72952150D01*
X131741901Y-73023869D01*
X131721736Y-73096172D01*
X131702039Y-73167200D01*
X131683327Y-73235093D01*
X131666114Y-73297992D01*
X131650918Y-73354036D01*
X131638255Y-73401367D01*
X131628641Y-73438125D01*
X131622593Y-73462450D01*
X131620916Y-73470161D01*
X131610124Y-73528864D01*
X131596286Y-73459334D01*
X131591222Y-73437193D01*
X131582171Y-73401234D01*
X131569558Y-73353007D01*
X131553809Y-73294062D01*
X131535348Y-73225950D01*
X131514601Y-73150221D01*
X131491992Y-73068426D01*
X131467947Y-72982114D01*
X131442892Y-72892838D01*
X131417250Y-72802147D01*
X131391448Y-72711591D01*
X131386809Y-72695389D01*
X131374781Y-72653415D01*
X131191592Y-72653415D01*
X131139162Y-72653666D01*
X131092304Y-72654368D01*
X131053307Y-72655448D01*
X131024461Y-72656833D01*
X131008055Y-72658449D01*
X131005162Y-72659412D01*
X130625161Y-72659412D01*
X130590040Y-72647414D01*
X130543129Y-72638443D01*
X130486096Y-72633541D01*
X130424155Y-72632632D01*
X130362520Y-72635640D01*
X130306405Y-72642488D01*
X130263928Y-72652179D01*
X130192173Y-72679317D01*
X130128472Y-72714828D01*
X130068222Y-72761541D01*
X130035294Y-72792624D01*
X129975032Y-72863343D01*
X129928397Y-72941850D01*
X129894682Y-73029379D01*
X129890204Y-73045169D01*
X129883431Y-73081207D01*
X129878686Y-73128922D01*
X129875962Y-73184270D01*
X129875253Y-73243208D01*
X129640321Y-73243208D01*
X129640321Y-72949229D01*
X129640321Y-72321940D01*
X132328267Y-72321940D01*
X132332755Y-72355022D01*
X132334648Y-72361673D01*
X132352219Y-72394916D01*
X132380616Y-72427494D01*
X132415136Y-72454939D01*
X132451074Y-72472784D01*
X132451911Y-72473056D01*
X132493646Y-72481145D01*
X132540852Y-72482076D01*
X132586968Y-72476240D01*
X132625433Y-72464027D01*
X132628486Y-72462532D01*
X132665444Y-72436877D01*
X132696624Y-72402529D01*
X132717242Y-72364864D01*
X132718435Y-72361438D01*
X132723379Y-72336332D01*
X132725370Y-72304395D01*
X132724820Y-72285523D01*
X132714107Y-72235214D01*
X132689730Y-72193141D01*
X132651501Y-72159003D01*
X132640610Y-72152173D01*
X132620882Y-72141468D01*
X132602890Y-72134823D01*
X132581809Y-72131291D01*
X132552812Y-72129923D01*
X132526503Y-72129745D01*
X132489309Y-72130215D01*
X132463321Y-72132232D01*
X132443768Y-72136707D01*
X132425881Y-72144552D01*
X132414012Y-72151226D01*
X132372349Y-72183747D01*
X132344458Y-72224355D01*
X132330141Y-72273360D01*
X132328913Y-72283935D01*
X132328267Y-72321940D01*
X129640321Y-72321940D01*
X129640321Y-72117753D01*
X129468429Y-72117753D01*
X129296538Y-72117753D01*
X129296538Y-72447408D01*
X129296538Y-72777063D01*
X129260241Y-72735570D01*
X129212571Y-72692923D01*
X129154369Y-72660788D01*
X129087549Y-72639637D01*
X129014024Y-72629942D01*
X128935709Y-72632175D01*
X128878123Y-72641286D01*
X128796411Y-72666440D01*
X128722379Y-72705305D01*
X128656683Y-72757228D01*
X128599981Y-72821554D01*
X128552930Y-72897629D01*
X128516188Y-72984799D01*
X128508407Y-73009191D01*
X128496191Y-73062573D01*
X128487421Y-73126841D01*
X128482293Y-73197225D01*
X128481002Y-73268956D01*
X126318414Y-73268956D01*
X126318414Y-73101133D01*
X126318421Y-72926844D01*
X126318450Y-72767815D01*
X126318505Y-72623318D01*
X126318595Y-72492624D01*
X126318727Y-72375003D01*
X126318908Y-72269726D01*
X126319144Y-72176064D01*
X126319444Y-72093288D01*
X126319813Y-72020669D01*
X126320259Y-71957478D01*
X126320790Y-71902985D01*
X126321411Y-71856461D01*
X126322132Y-71817178D01*
X126322957Y-71784406D01*
X126323895Y-71757416D01*
X126324953Y-71735478D01*
X126326137Y-71717865D01*
X126327456Y-71703846D01*
X126328915Y-71692692D01*
X126330522Y-71683675D01*
X126332266Y-71676132D01*
X126367411Y-71568843D01*
X126414930Y-71470872D01*
X126474141Y-71382927D01*
X126544361Y-71305712D01*
X126624907Y-71239933D01*
X126715098Y-71186297D01*
X126814249Y-71145509D01*
X126858074Y-71132467D01*
X126926031Y-71114385D01*
X136531980Y-71114385D01*
X137004897Y-71114386D01*
G37*
D11*
X118639719Y-59489719D03*
X121889719Y-59489719D03*
X121889719Y-53539719D03*
X118639719Y-53539719D03*
D12*
X135714719Y-62264719D03*
X135714719Y-66764719D03*
X144814719Y-62264719D03*
X144814719Y-66764719D03*
D13*
X139514719Y-38514719D03*
D14*
X144264719Y-37514719D03*
D13*
X149014719Y-38514719D03*
D15*
X142264719Y-41964719D03*
X146264719Y-41964719D03*
D16*
X72750000Y-74050000D03*
X72750000Y-77450000D03*
D17*
X55064719Y-42514719D03*
X58464719Y-42514719D03*
D18*
X110564719Y-64014719D03*
X113964719Y-64014719D03*
D19*
X82264719Y-58214719D03*
X82264719Y-54814719D03*
D20*
X125500000Y-55125000D03*
X125500000Y-57875000D03*
D12*
X143714719Y-54264719D03*
X143714719Y-58764719D03*
X152814719Y-54264719D03*
X152814719Y-58764719D03*
X51714719Y-58264719D03*
X51714719Y-62764719D03*
X60814719Y-58264719D03*
X60814719Y-62764719D03*
D13*
X59514719Y-38514719D03*
D14*
X64264719Y-37514719D03*
D13*
X69014719Y-38514719D03*
D15*
X66264719Y-41964719D03*
X62264719Y-41964719D03*
D21*
X86485281Y-77450000D03*
X86485281Y-74050000D03*
D11*
X86639719Y-59489719D03*
X89889719Y-59489719D03*
X89889719Y-53539719D03*
X86639719Y-53539719D03*
D18*
X102564719Y-64014719D03*
X105964719Y-64014719D03*
D22*
X90301200Y-78494950D03*
X91571200Y-78494950D03*
X92841200Y-78494950D03*
X94111200Y-78494950D03*
X95381200Y-78494950D03*
X96651200Y-78494950D03*
X97921200Y-78494950D03*
X99191200Y-78494950D03*
X99191200Y-73005050D03*
X97921200Y-73005050D03*
X96651200Y-73005050D03*
X95381200Y-73005050D03*
X94111200Y-73005050D03*
X92841200Y-73005050D03*
X91571200Y-73005050D03*
X90301200Y-73005050D03*
D12*
X59714719Y-50264719D03*
X59714719Y-54764719D03*
X68814719Y-50264719D03*
X68814719Y-54764719D03*
D16*
X148750000Y-62800000D03*
X148750000Y-66200000D03*
D11*
X110639719Y-59489719D03*
X113889719Y-59489719D03*
X113889719Y-53539719D03*
X110639719Y-53539719D03*
D16*
X152750000Y-62800000D03*
X152750000Y-66200000D03*
X80750000Y-74050000D03*
X80750000Y-77450000D03*
D18*
X86564719Y-64014719D03*
X89964719Y-64014719D03*
D16*
X68750000Y-74050000D03*
X68750000Y-77450000D03*
D18*
X118564719Y-64014719D03*
X121964719Y-64014719D03*
D11*
X102639719Y-59489719D03*
X105889719Y-59489719D03*
X105889719Y-53539719D03*
X102639719Y-53539719D03*
D23*
X127575000Y-57800000D03*
D12*
X59714719Y-66264719D03*
X59714719Y-70764719D03*
X68814719Y-66264719D03*
X68814719Y-70764719D03*
D24*
X110500000Y-72500000D03*
X113000000Y-72500000D03*
X115500000Y-72500000D03*
X110500000Y-79000000D03*
X113000000Y-79000000D03*
X115500000Y-79000000D03*
D16*
X76750000Y-74050000D03*
X76750000Y-77450000D03*
D11*
X94639719Y-59489719D03*
X97889719Y-59489719D03*
X97889719Y-53539719D03*
X94639719Y-53539719D03*
D18*
X94564719Y-64014719D03*
X97964719Y-64014719D03*
D12*
X67714719Y-58264719D03*
X67714719Y-62764719D03*
X76814719Y-58264719D03*
X76814719Y-62764719D03*
D25*
X82674719Y-47564719D03*
X92834719Y-47564719D03*
X104264719Y-47564719D03*
X115694719Y-47564719D03*
X125854719Y-47564719D03*
D26*
X159264719Y-59014719D03*
D27*
X153464719Y-42514719D03*
X150064719Y-42514719D03*
M02*
