%TF.GenerationSoftware,KiCad,Pcbnew,8.0.2-1*%
%TF.CreationDate,2024-07-01T17:17:08+01:00*%
%TF.ProjectId,solderbit-gamepad,736f6c64-6572-4626-9974-2d67616d6570,v0.6*%
%TF.SameCoordinates,Original*%
%TF.FileFunction,Soldermask,Bot*%
%TF.FilePolarity,Negative*%
%FSLAX46Y46*%
G04 Gerber Fmt 4.6, Leading zero omitted, Abs format (unit mm)*
G04 Created by KiCad (PCBNEW 8.0.2-1) date 2024-07-01 17:17:08*
%MOMM*%
%LPD*%
G01*
G04 APERTURE LIST*
G04 Aperture macros list*
%AMRoundRect*
0 Rectangle with rounded corners*
0 $1 Rounding radius*
0 $2 $3 $4 $5 $6 $7 $8 $9 X,Y pos of 4 corners*
0 Add a 4 corners polygon primitive as box body*
4,1,4,$2,$3,$4,$5,$6,$7,$8,$9,$2,$3,0*
0 Add four circle primitives for the rounded corners*
1,1,$1+$1,$2,$3*
1,1,$1+$1,$4,$5*
1,1,$1+$1,$6,$7*
1,1,$1+$1,$8,$9*
0 Add four rect primitives between the rounded corners*
20,1,$1+$1,$2,$3,$4,$5,0*
20,1,$1+$1,$4,$5,$6,$7,0*
20,1,$1+$1,$6,$7,$8,$9,0*
20,1,$1+$1,$8,$9,$2,$3,0*%
%AMFreePoly0*
4,1,29,3.751870,14.076870,3.763000,14.050000,3.763000,7.950000,3.751870,7.923130,3.725000,7.912000,-2.290440,7.912000,-2.288343,3.088000,3.725000,3.088000,3.751870,3.076870,3.763000,3.050000,3.763000,-3.050000,3.751870,-3.076870,3.725000,-3.088000,-3.725000,-3.088000,-3.751870,-3.076870,-3.763000,-3.050000,-3.763000,3.050000,-3.751870,3.076870,-3.725000,3.088000,-2.859560,3.088000,
-2.861657,7.912000,-3.725000,7.912000,-3.751870,7.923130,-3.763000,7.950000,-3.763000,14.050000,-3.751870,14.076870,-3.725000,14.088000,3.725000,14.088000,3.751870,14.076870,3.751870,14.076870,$1*%
G04 Aperture macros list end*
%ADD10C,0.000000*%
%ADD11O,2.776000X1.176000*%
%ADD12C,1.800000*%
%ADD13FreePoly0,0.000000*%
%ADD14RoundRect,0.038000X-3.725000X-3.050000X3.725000X-3.050000X3.725000X3.050000X-3.725000X3.050000X0*%
%ADD15C,3.400000*%
G04 APERTURE END LIST*
D10*
G36*
X130264719Y-51814719D02*
G01*
X130262399Y-51983065D01*
X130224701Y-52317640D01*
X130149780Y-52645891D01*
X130038578Y-52963689D01*
X129892492Y-53267038D01*
X129713361Y-53552123D01*
X129503437Y-53815360D01*
X129265360Y-54053437D01*
X129002123Y-54263361D01*
X128717038Y-54442492D01*
X128413689Y-54588578D01*
X128095891Y-54699780D01*
X127767640Y-54774701D01*
X127433065Y-54812399D01*
X127264719Y-54814719D01*
X81264720Y-54814719D01*
X81096374Y-54812399D01*
X80761799Y-54774701D01*
X80433548Y-54699780D01*
X80115750Y-54588578D01*
X79812400Y-54442492D01*
X79527315Y-54263361D01*
X79264078Y-54053437D01*
X79026001Y-53815360D01*
X78816077Y-53552123D01*
X78636946Y-53267038D01*
X78490860Y-52963688D01*
X78379658Y-52645890D01*
X78304737Y-52317639D01*
X78267039Y-51983064D01*
X78264719Y-51814718D01*
X78264719Y-38564719D01*
X130264719Y-38564719D01*
X130264719Y-51814719D01*
G37*
D11*
X144264719Y-37514719D03*
X64264719Y-37514719D03*
D12*
X127575000Y-57800000D03*
D13*
X132000000Y-73750000D03*
D14*
X76250000Y-62750000D03*
X76250000Y-73750000D03*
D15*
X159264719Y-59014719D03*
M02*
