M48
; DRILL file {KiCad 8.0.2-1} date 2024-07-01T17:17:11+0100
; FORMAT={-:-/ absolute / metric / decimal}
; #@! TF.CreationDate,2024-07-01T17:17:11+01:00
; #@! TF.GenerationSoftware,Kicad,Pcbnew,8.0.2-1
; #@! TF.FileFunction,Plated,1,2,PTH
FMAT,2
METRIC
; #@! TA.AperFunction,Plated,PTH,ViaDrill
T1C0.400
; #@! TA.AperFunction,Plated,PTH,ComponentDrill
T2C0.600
; #@! TA.AperFunction,Plated,PTH,ComponentDrill
T3C3.000
; #@! TA.AperFunction,Plated,PTH,ComponentDrill
T4C4.000
%
G90
G05
T1
X54.75Y-60.5
X62.5Y-68.5
X62.75Y-52.5
X64.25Y-41.75
X66.0Y-77.5
X70.5Y-60.5
X83.75Y-66.675
X88.75Y-76.75
X92.85Y-74.75
X92.85Y-76.75
X94.15Y-74.75
X94.15Y-76.75
X95.427Y-71.066
X95.45Y-74.75
X95.45Y-76.75
X96.25Y-55.75
X96.75Y-74.75
X96.75Y-76.75
X98.5Y-70.0
X101.75Y-70.0
X104.265Y-55.75
X112.25Y-55.75
X115.5Y-74.5
X138.75Y-64.5
X144.25Y-41.75
X146.75Y-56.5
X156.5Y-42.5
T3
X159.265Y-59.015
T4
X82.675Y-47.565
X92.835Y-47.565
X104.265Y-47.565
X115.695Y-47.565
X125.855Y-47.565
T2
X63.465Y-37.515G85X65.065Y-37.515
G05
X143.465Y-37.515G85X145.065Y-37.515
G05
M30
