%TF.GenerationSoftware,KiCad,Pcbnew,8.0.2-1*%
%TF.CreationDate,2024-07-01T17:17:11+01:00*%
%TF.ProjectId,solderbit-gamepad,736f6c64-6572-4626-9974-2d67616d6570,v0.6*%
%TF.SameCoordinates,Original*%
%TF.FileFunction,Drillmap*%
%TF.FilePolarity,Positive*%
%FSLAX45Y45*%
G04 Gerber Fmt 4.5, Leading zero omitted, Abs format (unit mm)*
G04 Created by KiCad (PCBNEW 8.0.2-1) date 2024-07-01 17:17:11*
%MOMM*%
%LPD*%
G01*
G04 APERTURE LIST*
%ADD10C,0.100000*%
%ADD11C,0.200000*%
%ADD12C,0.300000*%
%ADD13C,0.400000*%
G04 APERTURE END LIST*
D10*
X7524990Y-3651472D02*
G75*
G02*
X7825000Y-3949275I0J-300018D01*
G01*
X13326039Y-3651472D02*
X14951470Y-3651472D01*
X12725000Y-4476472D02*
X8125000Y-4476472D01*
X14951470Y-3651472D02*
G75*
G02*
X16151468Y-4851472I0J-1199998D01*
G01*
X13025000Y-4176470D02*
X13025000Y-3951470D01*
X16151472Y-4851472D02*
X16151472Y-6951472D01*
X16151472Y-6951472D02*
G75*
G02*
X14951472Y-8151472I-1200000J0D01*
G01*
X8125000Y-4476472D02*
G75*
G02*
X7825008Y-4176472I0J299992D01*
G01*
X4701472Y-4851472D02*
X4701472Y-6951472D01*
X14951472Y-8151472D02*
X5901472Y-8151472D01*
X4701472Y-4851472D02*
G75*
G02*
X5901472Y-3651472I1200000J0D01*
G01*
X7825000Y-4176472D02*
X7825000Y-3949275D01*
X13025000Y-3951470D02*
G75*
G02*
X13326039Y-3651472I300000J0D01*
G01*
X5901472Y-8151472D02*
G75*
G02*
X4701472Y-6951472I0J1200000D01*
G01*
X13025000Y-4176470D02*
G75*
G02*
X12725000Y-4476470I-300000J0D01*
G01*
X7524990Y-3651472D02*
X5901472Y-3651472D01*
D11*
D10*
X5455000Y-6030000D02*
X5495000Y-6070000D01*
X5495000Y-6030000D02*
X5455000Y-6070000D01*
X6230000Y-6830000D02*
X6270000Y-6870000D01*
X6270000Y-6830000D02*
X6230000Y-6870000D01*
X6255000Y-5230000D02*
X6295000Y-5270000D01*
X6295000Y-5230000D02*
X6255000Y-5270000D01*
X6405000Y-4155000D02*
X6445000Y-4195000D01*
X6445000Y-4155000D02*
X6405000Y-4195000D01*
X6580000Y-7730000D02*
X6620000Y-7770000D01*
X6620000Y-7730000D02*
X6580000Y-7770000D01*
X7030000Y-6030000D02*
X7070000Y-6070000D01*
X7070000Y-6030000D02*
X7030000Y-6070000D01*
X8355000Y-6647500D02*
X8395000Y-6687500D01*
X8395000Y-6647500D02*
X8355000Y-6687500D01*
X8855000Y-7655000D02*
X8895000Y-7695000D01*
X8895000Y-7655000D02*
X8855000Y-7695000D01*
X9264999Y-7455000D02*
X9304999Y-7495000D01*
X9304999Y-7455000D02*
X9264999Y-7495000D01*
X9264999Y-7655000D02*
X9304999Y-7695000D01*
X9304999Y-7655000D02*
X9264999Y-7695000D01*
X9394999Y-7455000D02*
X9434999Y-7495000D01*
X9434999Y-7455000D02*
X9394999Y-7495000D01*
X9394999Y-7655000D02*
X9434999Y-7695000D01*
X9434999Y-7655000D02*
X9394999Y-7695000D01*
X9522658Y-7086618D02*
X9562658Y-7126618D01*
X9562658Y-7086618D02*
X9522658Y-7126618D01*
X9525000Y-7455000D02*
X9565000Y-7495000D01*
X9565000Y-7455000D02*
X9525000Y-7495000D01*
X9525000Y-7655000D02*
X9565000Y-7695000D01*
X9565000Y-7655000D02*
X9525000Y-7695000D01*
X9605000Y-5555000D02*
X9645000Y-5595000D01*
X9645000Y-5555000D02*
X9605000Y-5595000D01*
X9655000Y-7455000D02*
X9695000Y-7495000D01*
X9695000Y-7455000D02*
X9655000Y-7495000D01*
X9655000Y-7655000D02*
X9695000Y-7695000D01*
X9695000Y-7655000D02*
X9655000Y-7695000D01*
X9830000Y-6980000D02*
X9870000Y-7020000D01*
X9870000Y-6980000D02*
X9830000Y-7020000D01*
X10155000Y-6980000D02*
X10195000Y-7020000D01*
X10195000Y-6980000D02*
X10155000Y-7020000D01*
X10406472Y-5555000D02*
X10446472Y-5595000D01*
X10446472Y-5555000D02*
X10406472Y-5595000D01*
X11205000Y-5555000D02*
X11245000Y-5595000D01*
X11245000Y-5555000D02*
X11205000Y-5595000D01*
X11530000Y-7430000D02*
X11570000Y-7470000D01*
X11570000Y-7430000D02*
X11530000Y-7470000D01*
X13855000Y-6430000D02*
X13895000Y-6470000D01*
X13895000Y-6430000D02*
X13855000Y-6470000D01*
X14405000Y-4155000D02*
X14445000Y-4195000D01*
X14445000Y-4155000D02*
X14405000Y-4195000D01*
X14655000Y-5630000D02*
X14695000Y-5670000D01*
X14695000Y-5630000D02*
X14655000Y-5670000D01*
X15630000Y-4230000D02*
X15670000Y-4270000D01*
X15670000Y-4230000D02*
X15630000Y-4270000D01*
X6456472Y-3751472D02*
G75*
G02*
X6396472Y-3751472I-30000J0D01*
G01*
X6396472Y-3751472D02*
G75*
G02*
X6456472Y-3751472I30000J0D01*
G01*
X6346472Y-3781472D02*
X6506472Y-3781472D01*
X6506472Y-3721472D02*
G75*
G02*
X6506472Y-3781472I0J-30000D01*
G01*
X6506472Y-3721472D02*
X6346472Y-3721472D01*
X6346472Y-3721472D02*
G75*
G03*
X6346472Y-3781472I0J-30000D01*
G01*
X14456472Y-3751472D02*
G75*
G02*
X14396472Y-3751472I-30000J0D01*
G01*
X14396472Y-3751472D02*
G75*
G02*
X14456472Y-3751472I30000J0D01*
G01*
X14346472Y-3781472D02*
X14506472Y-3781472D01*
X14506472Y-3721472D02*
G75*
G02*
X14506472Y-3781472I0J-30000D01*
G01*
X14506472Y-3721472D02*
X14346472Y-3721472D01*
X14346472Y-3721472D02*
G75*
G03*
X14346472Y-3781472I0J-30000D01*
G01*
D12*
X15926472Y-5751472D02*
X15926472Y-6051472D01*
X15776472Y-5901472D02*
X16076472Y-5901472D01*
D13*
X8408895Y-4897895D02*
X8408895Y-4615049D01*
X8126049Y-4615049D01*
X8126049Y-4897895D01*
X8408895Y-4897895D01*
X9424895Y-4897895D02*
X9424895Y-4615049D01*
X9142049Y-4615049D01*
X9142049Y-4897895D01*
X9424895Y-4897895D01*
X10567895Y-4897895D02*
X10567895Y-4615049D01*
X10285049Y-4615049D01*
X10285049Y-4897895D01*
X10567895Y-4897895D01*
X11710895Y-4897895D02*
X11710895Y-4615049D01*
X11428049Y-4615049D01*
X11428049Y-4897895D01*
X11710895Y-4897895D01*
X12726895Y-4897895D02*
X12726895Y-4615049D01*
X12444049Y-4615049D01*
X12444049Y-4897895D01*
X12726895Y-4897895D01*
D11*
X4957249Y-8467956D02*
X4957249Y-8267956D01*
X4957249Y-8267956D02*
X5004868Y-8267956D01*
X5004868Y-8267956D02*
X5033439Y-8277479D01*
X5033439Y-8277479D02*
X5052487Y-8296527D01*
X5052487Y-8296527D02*
X5062011Y-8315575D01*
X5062011Y-8315575D02*
X5071534Y-8353670D01*
X5071534Y-8353670D02*
X5071534Y-8382241D01*
X5071534Y-8382241D02*
X5062011Y-8420337D01*
X5062011Y-8420337D02*
X5052487Y-8439384D01*
X5052487Y-8439384D02*
X5033439Y-8458432D01*
X5033439Y-8458432D02*
X5004868Y-8467956D01*
X5004868Y-8467956D02*
X4957249Y-8467956D01*
X5157249Y-8467956D02*
X5157249Y-8334622D01*
X5157249Y-8372718D02*
X5166773Y-8353670D01*
X5166773Y-8353670D02*
X5176296Y-8344146D01*
X5176296Y-8344146D02*
X5195344Y-8334622D01*
X5195344Y-8334622D02*
X5214392Y-8334622D01*
X5281058Y-8467956D02*
X5281058Y-8334622D01*
X5281058Y-8267956D02*
X5271534Y-8277479D01*
X5271534Y-8277479D02*
X5281058Y-8287003D01*
X5281058Y-8287003D02*
X5290582Y-8277479D01*
X5290582Y-8277479D02*
X5281058Y-8267956D01*
X5281058Y-8267956D02*
X5281058Y-8287003D01*
X5404868Y-8467956D02*
X5385820Y-8458432D01*
X5385820Y-8458432D02*
X5376296Y-8439384D01*
X5376296Y-8439384D02*
X5376296Y-8267956D01*
X5509630Y-8467956D02*
X5490582Y-8458432D01*
X5490582Y-8458432D02*
X5481058Y-8439384D01*
X5481058Y-8439384D02*
X5481058Y-8267956D01*
X5738201Y-8467956D02*
X5738201Y-8267956D01*
X5738201Y-8267956D02*
X5804868Y-8410813D01*
X5804868Y-8410813D02*
X5871534Y-8267956D01*
X5871534Y-8267956D02*
X5871534Y-8467956D01*
X6052487Y-8467956D02*
X6052487Y-8363194D01*
X6052487Y-8363194D02*
X6042963Y-8344146D01*
X6042963Y-8344146D02*
X6023915Y-8334622D01*
X6023915Y-8334622D02*
X5985820Y-8334622D01*
X5985820Y-8334622D02*
X5966772Y-8344146D01*
X6052487Y-8458432D02*
X6033439Y-8467956D01*
X6033439Y-8467956D02*
X5985820Y-8467956D01*
X5985820Y-8467956D02*
X5966772Y-8458432D01*
X5966772Y-8458432D02*
X5957249Y-8439384D01*
X5957249Y-8439384D02*
X5957249Y-8420337D01*
X5957249Y-8420337D02*
X5966772Y-8401289D01*
X5966772Y-8401289D02*
X5985820Y-8391765D01*
X5985820Y-8391765D02*
X6033439Y-8391765D01*
X6033439Y-8391765D02*
X6052487Y-8382241D01*
X6147725Y-8334622D02*
X6147725Y-8534622D01*
X6147725Y-8344146D02*
X6166772Y-8334622D01*
X6166772Y-8334622D02*
X6204868Y-8334622D01*
X6204868Y-8334622D02*
X6223915Y-8344146D01*
X6223915Y-8344146D02*
X6233439Y-8353670D01*
X6233439Y-8353670D02*
X6242963Y-8372718D01*
X6242963Y-8372718D02*
X6242963Y-8429860D01*
X6242963Y-8429860D02*
X6233439Y-8448908D01*
X6233439Y-8448908D02*
X6223915Y-8458432D01*
X6223915Y-8458432D02*
X6204868Y-8467956D01*
X6204868Y-8467956D02*
X6166772Y-8467956D01*
X6166772Y-8467956D02*
X6147725Y-8458432D01*
X6328677Y-8448908D02*
X6338201Y-8458432D01*
X6338201Y-8458432D02*
X6328677Y-8467956D01*
X6328677Y-8467956D02*
X6319153Y-8458432D01*
X6319153Y-8458432D02*
X6328677Y-8448908D01*
X6328677Y-8448908D02*
X6328677Y-8467956D01*
X6328677Y-8344146D02*
X6338201Y-8353670D01*
X6338201Y-8353670D02*
X6328677Y-8363194D01*
X6328677Y-8363194D02*
X6319153Y-8353670D01*
X6319153Y-8353670D02*
X6328677Y-8344146D01*
X6328677Y-8344146D02*
X6328677Y-8363194D01*
D10*
X4656472Y-8776472D02*
X4696472Y-8816472D01*
X4696472Y-8776472D02*
X4656472Y-8816472D01*
D11*
X4995344Y-8687956D02*
X5014392Y-8687956D01*
X5014392Y-8687956D02*
X5033439Y-8697480D01*
X5033439Y-8697480D02*
X5042963Y-8707003D01*
X5042963Y-8707003D02*
X5052487Y-8726051D01*
X5052487Y-8726051D02*
X5062011Y-8764146D01*
X5062011Y-8764146D02*
X5062011Y-8811765D01*
X5062011Y-8811765D02*
X5052487Y-8849860D01*
X5052487Y-8849860D02*
X5042963Y-8868908D01*
X5042963Y-8868908D02*
X5033439Y-8878432D01*
X5033439Y-8878432D02*
X5014392Y-8887956D01*
X5014392Y-8887956D02*
X4995344Y-8887956D01*
X4995344Y-8887956D02*
X4976296Y-8878432D01*
X4976296Y-8878432D02*
X4966773Y-8868908D01*
X4966773Y-8868908D02*
X4957249Y-8849860D01*
X4957249Y-8849860D02*
X4947725Y-8811765D01*
X4947725Y-8811765D02*
X4947725Y-8764146D01*
X4947725Y-8764146D02*
X4957249Y-8726051D01*
X4957249Y-8726051D02*
X4966773Y-8707003D01*
X4966773Y-8707003D02*
X4976296Y-8697480D01*
X4976296Y-8697480D02*
X4995344Y-8687956D01*
X5147725Y-8868908D02*
X5157249Y-8878432D01*
X5157249Y-8878432D02*
X5147725Y-8887956D01*
X5147725Y-8887956D02*
X5138201Y-8878432D01*
X5138201Y-8878432D02*
X5147725Y-8868908D01*
X5147725Y-8868908D02*
X5147725Y-8887956D01*
X5328677Y-8754622D02*
X5328677Y-8887956D01*
X5281058Y-8678432D02*
X5233439Y-8821289D01*
X5233439Y-8821289D02*
X5357249Y-8821289D01*
X5471534Y-8687956D02*
X5490582Y-8687956D01*
X5490582Y-8687956D02*
X5509630Y-8697480D01*
X5509630Y-8697480D02*
X5519154Y-8707003D01*
X5519154Y-8707003D02*
X5528677Y-8726051D01*
X5528677Y-8726051D02*
X5538201Y-8764146D01*
X5538201Y-8764146D02*
X5538201Y-8811765D01*
X5538201Y-8811765D02*
X5528677Y-8849860D01*
X5528677Y-8849860D02*
X5519154Y-8868908D01*
X5519154Y-8868908D02*
X5509630Y-8878432D01*
X5509630Y-8878432D02*
X5490582Y-8887956D01*
X5490582Y-8887956D02*
X5471534Y-8887956D01*
X5471534Y-8887956D02*
X5452487Y-8878432D01*
X5452487Y-8878432D02*
X5442963Y-8868908D01*
X5442963Y-8868908D02*
X5433439Y-8849860D01*
X5433439Y-8849860D02*
X5423915Y-8811765D01*
X5423915Y-8811765D02*
X5423915Y-8764146D01*
X5423915Y-8764146D02*
X5433439Y-8726051D01*
X5433439Y-8726051D02*
X5442963Y-8707003D01*
X5442963Y-8707003D02*
X5452487Y-8697480D01*
X5452487Y-8697480D02*
X5471534Y-8687956D01*
X5662011Y-8687956D02*
X5681058Y-8687956D01*
X5681058Y-8687956D02*
X5700106Y-8697480D01*
X5700106Y-8697480D02*
X5709630Y-8707003D01*
X5709630Y-8707003D02*
X5719153Y-8726051D01*
X5719153Y-8726051D02*
X5728677Y-8764146D01*
X5728677Y-8764146D02*
X5728677Y-8811765D01*
X5728677Y-8811765D02*
X5719153Y-8849860D01*
X5719153Y-8849860D02*
X5709630Y-8868908D01*
X5709630Y-8868908D02*
X5700106Y-8878432D01*
X5700106Y-8878432D02*
X5681058Y-8887956D01*
X5681058Y-8887956D02*
X5662011Y-8887956D01*
X5662011Y-8887956D02*
X5642963Y-8878432D01*
X5642963Y-8878432D02*
X5633439Y-8868908D01*
X5633439Y-8868908D02*
X5623915Y-8849860D01*
X5623915Y-8849860D02*
X5614392Y-8811765D01*
X5614392Y-8811765D02*
X5614392Y-8764146D01*
X5614392Y-8764146D02*
X5623915Y-8726051D01*
X5623915Y-8726051D02*
X5633439Y-8707003D01*
X5633439Y-8707003D02*
X5642963Y-8697480D01*
X5642963Y-8697480D02*
X5662011Y-8687956D01*
X5814392Y-8887956D02*
X5814392Y-8754622D01*
X5814392Y-8773670D02*
X5823915Y-8764146D01*
X5823915Y-8764146D02*
X5842963Y-8754622D01*
X5842963Y-8754622D02*
X5871534Y-8754622D01*
X5871534Y-8754622D02*
X5890582Y-8764146D01*
X5890582Y-8764146D02*
X5900106Y-8783194D01*
X5900106Y-8783194D02*
X5900106Y-8887956D01*
X5900106Y-8783194D02*
X5909630Y-8764146D01*
X5909630Y-8764146D02*
X5928677Y-8754622D01*
X5928677Y-8754622D02*
X5957249Y-8754622D01*
X5957249Y-8754622D02*
X5976296Y-8764146D01*
X5976296Y-8764146D02*
X5985820Y-8783194D01*
X5985820Y-8783194D02*
X5985820Y-8887956D01*
X6081058Y-8887956D02*
X6081058Y-8754622D01*
X6081058Y-8773670D02*
X6090582Y-8764146D01*
X6090582Y-8764146D02*
X6109630Y-8754622D01*
X6109630Y-8754622D02*
X6138201Y-8754622D01*
X6138201Y-8754622D02*
X6157249Y-8764146D01*
X6157249Y-8764146D02*
X6166773Y-8783194D01*
X6166773Y-8783194D02*
X6166773Y-8887956D01*
X6166773Y-8783194D02*
X6176296Y-8764146D01*
X6176296Y-8764146D02*
X6195344Y-8754622D01*
X6195344Y-8754622D02*
X6223915Y-8754622D01*
X6223915Y-8754622D02*
X6242963Y-8764146D01*
X6242963Y-8764146D02*
X6252487Y-8783194D01*
X6252487Y-8783194D02*
X6252487Y-8887956D01*
X6642963Y-8678432D02*
X6471535Y-8935575D01*
X6900106Y-8687956D02*
X6919154Y-8687956D01*
X6919154Y-8687956D02*
X6938201Y-8697480D01*
X6938201Y-8697480D02*
X6947725Y-8707003D01*
X6947725Y-8707003D02*
X6957249Y-8726051D01*
X6957249Y-8726051D02*
X6966773Y-8764146D01*
X6966773Y-8764146D02*
X6966773Y-8811765D01*
X6966773Y-8811765D02*
X6957249Y-8849860D01*
X6957249Y-8849860D02*
X6947725Y-8868908D01*
X6947725Y-8868908D02*
X6938201Y-8878432D01*
X6938201Y-8878432D02*
X6919154Y-8887956D01*
X6919154Y-8887956D02*
X6900106Y-8887956D01*
X6900106Y-8887956D02*
X6881058Y-8878432D01*
X6881058Y-8878432D02*
X6871535Y-8868908D01*
X6871535Y-8868908D02*
X6862011Y-8849860D01*
X6862011Y-8849860D02*
X6852487Y-8811765D01*
X6852487Y-8811765D02*
X6852487Y-8764146D01*
X6852487Y-8764146D02*
X6862011Y-8726051D01*
X6862011Y-8726051D02*
X6871535Y-8707003D01*
X6871535Y-8707003D02*
X6881058Y-8697480D01*
X6881058Y-8697480D02*
X6900106Y-8687956D01*
X7052487Y-8868908D02*
X7062011Y-8878432D01*
X7062011Y-8878432D02*
X7052487Y-8887956D01*
X7052487Y-8887956D02*
X7042963Y-8878432D01*
X7042963Y-8878432D02*
X7052487Y-8868908D01*
X7052487Y-8868908D02*
X7052487Y-8887956D01*
X7185820Y-8687956D02*
X7204868Y-8687956D01*
X7204868Y-8687956D02*
X7223916Y-8697480D01*
X7223916Y-8697480D02*
X7233439Y-8707003D01*
X7233439Y-8707003D02*
X7242963Y-8726051D01*
X7242963Y-8726051D02*
X7252487Y-8764146D01*
X7252487Y-8764146D02*
X7252487Y-8811765D01*
X7252487Y-8811765D02*
X7242963Y-8849860D01*
X7242963Y-8849860D02*
X7233439Y-8868908D01*
X7233439Y-8868908D02*
X7223916Y-8878432D01*
X7223916Y-8878432D02*
X7204868Y-8887956D01*
X7204868Y-8887956D02*
X7185820Y-8887956D01*
X7185820Y-8887956D02*
X7166773Y-8878432D01*
X7166773Y-8878432D02*
X7157249Y-8868908D01*
X7157249Y-8868908D02*
X7147725Y-8849860D01*
X7147725Y-8849860D02*
X7138201Y-8811765D01*
X7138201Y-8811765D02*
X7138201Y-8764146D01*
X7138201Y-8764146D02*
X7147725Y-8726051D01*
X7147725Y-8726051D02*
X7157249Y-8707003D01*
X7157249Y-8707003D02*
X7166773Y-8697480D01*
X7166773Y-8697480D02*
X7185820Y-8687956D01*
X7442963Y-8887956D02*
X7328677Y-8887956D01*
X7385820Y-8887956D02*
X7385820Y-8687956D01*
X7385820Y-8687956D02*
X7366773Y-8716527D01*
X7366773Y-8716527D02*
X7347725Y-8735575D01*
X7347725Y-8735575D02*
X7328677Y-8745099D01*
X7623916Y-8687956D02*
X7528677Y-8687956D01*
X7528677Y-8687956D02*
X7519154Y-8783194D01*
X7519154Y-8783194D02*
X7528677Y-8773670D01*
X7528677Y-8773670D02*
X7547725Y-8764146D01*
X7547725Y-8764146D02*
X7595344Y-8764146D01*
X7595344Y-8764146D02*
X7614392Y-8773670D01*
X7614392Y-8773670D02*
X7623916Y-8783194D01*
X7623916Y-8783194D02*
X7633439Y-8802241D01*
X7633439Y-8802241D02*
X7633439Y-8849860D01*
X7633439Y-8849860D02*
X7623916Y-8868908D01*
X7623916Y-8868908D02*
X7614392Y-8878432D01*
X7614392Y-8878432D02*
X7595344Y-8887956D01*
X7595344Y-8887956D02*
X7547725Y-8887956D01*
X7547725Y-8887956D02*
X7528677Y-8878432D01*
X7528677Y-8878432D02*
X7519154Y-8868908D01*
X7700106Y-8687956D02*
X7833439Y-8687956D01*
X7833439Y-8687956D02*
X7747725Y-8887956D01*
X7900106Y-8687956D02*
X7900106Y-8726051D01*
X7976297Y-8687956D02*
X7976297Y-8726051D01*
X8271535Y-8964146D02*
X8262011Y-8954622D01*
X8262011Y-8954622D02*
X8242963Y-8926051D01*
X8242963Y-8926051D02*
X8233439Y-8907003D01*
X8233439Y-8907003D02*
X8223916Y-8878432D01*
X8223916Y-8878432D02*
X8214392Y-8830813D01*
X8214392Y-8830813D02*
X8214392Y-8792718D01*
X8214392Y-8792718D02*
X8223916Y-8745099D01*
X8223916Y-8745099D02*
X8233439Y-8716527D01*
X8233439Y-8716527D02*
X8242963Y-8697480D01*
X8242963Y-8697480D02*
X8262011Y-8668908D01*
X8262011Y-8668908D02*
X8271535Y-8659384D01*
X8338201Y-8707003D02*
X8347725Y-8697480D01*
X8347725Y-8697480D02*
X8366773Y-8687956D01*
X8366773Y-8687956D02*
X8414392Y-8687956D01*
X8414392Y-8687956D02*
X8433440Y-8697480D01*
X8433440Y-8697480D02*
X8442963Y-8707003D01*
X8442963Y-8707003D02*
X8452487Y-8726051D01*
X8452487Y-8726051D02*
X8452487Y-8745099D01*
X8452487Y-8745099D02*
X8442963Y-8773670D01*
X8442963Y-8773670D02*
X8328678Y-8887956D01*
X8328678Y-8887956D02*
X8452487Y-8887956D01*
X8519154Y-8687956D02*
X8652487Y-8687956D01*
X8652487Y-8687956D02*
X8566773Y-8887956D01*
X8881059Y-8887956D02*
X8881059Y-8687956D01*
X8966773Y-8887956D02*
X8966773Y-8783194D01*
X8966773Y-8783194D02*
X8957249Y-8764146D01*
X8957249Y-8764146D02*
X8938202Y-8754622D01*
X8938202Y-8754622D02*
X8909630Y-8754622D01*
X8909630Y-8754622D02*
X8890582Y-8764146D01*
X8890582Y-8764146D02*
X8881059Y-8773670D01*
X9090582Y-8887956D02*
X9071535Y-8878432D01*
X9071535Y-8878432D02*
X9062011Y-8868908D01*
X9062011Y-8868908D02*
X9052487Y-8849860D01*
X9052487Y-8849860D02*
X9052487Y-8792718D01*
X9052487Y-8792718D02*
X9062011Y-8773670D01*
X9062011Y-8773670D02*
X9071535Y-8764146D01*
X9071535Y-8764146D02*
X9090582Y-8754622D01*
X9090582Y-8754622D02*
X9119154Y-8754622D01*
X9119154Y-8754622D02*
X9138202Y-8764146D01*
X9138202Y-8764146D02*
X9147725Y-8773670D01*
X9147725Y-8773670D02*
X9157249Y-8792718D01*
X9157249Y-8792718D02*
X9157249Y-8849860D01*
X9157249Y-8849860D02*
X9147725Y-8868908D01*
X9147725Y-8868908D02*
X9138202Y-8878432D01*
X9138202Y-8878432D02*
X9119154Y-8887956D01*
X9119154Y-8887956D02*
X9090582Y-8887956D01*
X9271535Y-8887956D02*
X9252487Y-8878432D01*
X9252487Y-8878432D02*
X9242963Y-8859384D01*
X9242963Y-8859384D02*
X9242963Y-8687956D01*
X9423916Y-8878432D02*
X9404868Y-8887956D01*
X9404868Y-8887956D02*
X9366773Y-8887956D01*
X9366773Y-8887956D02*
X9347725Y-8878432D01*
X9347725Y-8878432D02*
X9338202Y-8859384D01*
X9338202Y-8859384D02*
X9338202Y-8783194D01*
X9338202Y-8783194D02*
X9347725Y-8764146D01*
X9347725Y-8764146D02*
X9366773Y-8754622D01*
X9366773Y-8754622D02*
X9404868Y-8754622D01*
X9404868Y-8754622D02*
X9423916Y-8764146D01*
X9423916Y-8764146D02*
X9433440Y-8783194D01*
X9433440Y-8783194D02*
X9433440Y-8802241D01*
X9433440Y-8802241D02*
X9338202Y-8821289D01*
X9509630Y-8878432D02*
X9528678Y-8887956D01*
X9528678Y-8887956D02*
X9566773Y-8887956D01*
X9566773Y-8887956D02*
X9585821Y-8878432D01*
X9585821Y-8878432D02*
X9595344Y-8859384D01*
X9595344Y-8859384D02*
X9595344Y-8849860D01*
X9595344Y-8849860D02*
X9585821Y-8830813D01*
X9585821Y-8830813D02*
X9566773Y-8821289D01*
X9566773Y-8821289D02*
X9538202Y-8821289D01*
X9538202Y-8821289D02*
X9519154Y-8811765D01*
X9519154Y-8811765D02*
X9509630Y-8792718D01*
X9509630Y-8792718D02*
X9509630Y-8783194D01*
X9509630Y-8783194D02*
X9519154Y-8764146D01*
X9519154Y-8764146D02*
X9538202Y-8754622D01*
X9538202Y-8754622D02*
X9566773Y-8754622D01*
X9566773Y-8754622D02*
X9585821Y-8764146D01*
X9662011Y-8964146D02*
X9671535Y-8954622D01*
X9671535Y-8954622D02*
X9690583Y-8926051D01*
X9690583Y-8926051D02*
X9700106Y-8907003D01*
X9700106Y-8907003D02*
X9709630Y-8878432D01*
X9709630Y-8878432D02*
X9719154Y-8830813D01*
X9719154Y-8830813D02*
X9719154Y-8792718D01*
X9719154Y-8792718D02*
X9709630Y-8745099D01*
X9709630Y-8745099D02*
X9700106Y-8716527D01*
X9700106Y-8716527D02*
X9690583Y-8697480D01*
X9690583Y-8697480D02*
X9671535Y-8668908D01*
X9671535Y-8668908D02*
X9662011Y-8659384D01*
D10*
X4696472Y-9060472D02*
G75*
G02*
X4636472Y-9060472I-30000J0D01*
G01*
X4636472Y-9060472D02*
G75*
G02*
X4696472Y-9060472I30000J0D01*
G01*
D11*
X4995344Y-8951956D02*
X5014392Y-8951956D01*
X5014392Y-8951956D02*
X5033439Y-8961480D01*
X5033439Y-8961480D02*
X5042963Y-8971003D01*
X5042963Y-8971003D02*
X5052487Y-8990051D01*
X5052487Y-8990051D02*
X5062011Y-9028146D01*
X5062011Y-9028146D02*
X5062011Y-9075765D01*
X5062011Y-9075765D02*
X5052487Y-9113860D01*
X5052487Y-9113860D02*
X5042963Y-9132908D01*
X5042963Y-9132908D02*
X5033439Y-9142432D01*
X5033439Y-9142432D02*
X5014392Y-9151956D01*
X5014392Y-9151956D02*
X4995344Y-9151956D01*
X4995344Y-9151956D02*
X4976296Y-9142432D01*
X4976296Y-9142432D02*
X4966773Y-9132908D01*
X4966773Y-9132908D02*
X4957249Y-9113860D01*
X4957249Y-9113860D02*
X4947725Y-9075765D01*
X4947725Y-9075765D02*
X4947725Y-9028146D01*
X4947725Y-9028146D02*
X4957249Y-8990051D01*
X4957249Y-8990051D02*
X4966773Y-8971003D01*
X4966773Y-8971003D02*
X4976296Y-8961480D01*
X4976296Y-8961480D02*
X4995344Y-8951956D01*
X5147725Y-9132908D02*
X5157249Y-9142432D01*
X5157249Y-9142432D02*
X5147725Y-9151956D01*
X5147725Y-9151956D02*
X5138201Y-9142432D01*
X5138201Y-9142432D02*
X5147725Y-9132908D01*
X5147725Y-9132908D02*
X5147725Y-9151956D01*
X5328677Y-8951956D02*
X5290582Y-8951956D01*
X5290582Y-8951956D02*
X5271534Y-8961480D01*
X5271534Y-8961480D02*
X5262011Y-8971003D01*
X5262011Y-8971003D02*
X5242963Y-8999575D01*
X5242963Y-8999575D02*
X5233439Y-9037670D01*
X5233439Y-9037670D02*
X5233439Y-9113860D01*
X5233439Y-9113860D02*
X5242963Y-9132908D01*
X5242963Y-9132908D02*
X5252487Y-9142432D01*
X5252487Y-9142432D02*
X5271534Y-9151956D01*
X5271534Y-9151956D02*
X5309630Y-9151956D01*
X5309630Y-9151956D02*
X5328677Y-9142432D01*
X5328677Y-9142432D02*
X5338201Y-9132908D01*
X5338201Y-9132908D02*
X5347725Y-9113860D01*
X5347725Y-9113860D02*
X5347725Y-9066241D01*
X5347725Y-9066241D02*
X5338201Y-9047194D01*
X5338201Y-9047194D02*
X5328677Y-9037670D01*
X5328677Y-9037670D02*
X5309630Y-9028146D01*
X5309630Y-9028146D02*
X5271534Y-9028146D01*
X5271534Y-9028146D02*
X5252487Y-9037670D01*
X5252487Y-9037670D02*
X5242963Y-9047194D01*
X5242963Y-9047194D02*
X5233439Y-9066241D01*
X5471534Y-8951956D02*
X5490582Y-8951956D01*
X5490582Y-8951956D02*
X5509630Y-8961480D01*
X5509630Y-8961480D02*
X5519154Y-8971003D01*
X5519154Y-8971003D02*
X5528677Y-8990051D01*
X5528677Y-8990051D02*
X5538201Y-9028146D01*
X5538201Y-9028146D02*
X5538201Y-9075765D01*
X5538201Y-9075765D02*
X5528677Y-9113860D01*
X5528677Y-9113860D02*
X5519154Y-9132908D01*
X5519154Y-9132908D02*
X5509630Y-9142432D01*
X5509630Y-9142432D02*
X5490582Y-9151956D01*
X5490582Y-9151956D02*
X5471534Y-9151956D01*
X5471534Y-9151956D02*
X5452487Y-9142432D01*
X5452487Y-9142432D02*
X5442963Y-9132908D01*
X5442963Y-9132908D02*
X5433439Y-9113860D01*
X5433439Y-9113860D02*
X5423915Y-9075765D01*
X5423915Y-9075765D02*
X5423915Y-9028146D01*
X5423915Y-9028146D02*
X5433439Y-8990051D01*
X5433439Y-8990051D02*
X5442963Y-8971003D01*
X5442963Y-8971003D02*
X5452487Y-8961480D01*
X5452487Y-8961480D02*
X5471534Y-8951956D01*
X5662011Y-8951956D02*
X5681058Y-8951956D01*
X5681058Y-8951956D02*
X5700106Y-8961480D01*
X5700106Y-8961480D02*
X5709630Y-8971003D01*
X5709630Y-8971003D02*
X5719153Y-8990051D01*
X5719153Y-8990051D02*
X5728677Y-9028146D01*
X5728677Y-9028146D02*
X5728677Y-9075765D01*
X5728677Y-9075765D02*
X5719153Y-9113860D01*
X5719153Y-9113860D02*
X5709630Y-9132908D01*
X5709630Y-9132908D02*
X5700106Y-9142432D01*
X5700106Y-9142432D02*
X5681058Y-9151956D01*
X5681058Y-9151956D02*
X5662011Y-9151956D01*
X5662011Y-9151956D02*
X5642963Y-9142432D01*
X5642963Y-9142432D02*
X5633439Y-9132908D01*
X5633439Y-9132908D02*
X5623915Y-9113860D01*
X5623915Y-9113860D02*
X5614392Y-9075765D01*
X5614392Y-9075765D02*
X5614392Y-9028146D01*
X5614392Y-9028146D02*
X5623915Y-8990051D01*
X5623915Y-8990051D02*
X5633439Y-8971003D01*
X5633439Y-8971003D02*
X5642963Y-8961480D01*
X5642963Y-8961480D02*
X5662011Y-8951956D01*
X5814392Y-9151956D02*
X5814392Y-9018622D01*
X5814392Y-9037670D02*
X5823915Y-9028146D01*
X5823915Y-9028146D02*
X5842963Y-9018622D01*
X5842963Y-9018622D02*
X5871534Y-9018622D01*
X5871534Y-9018622D02*
X5890582Y-9028146D01*
X5890582Y-9028146D02*
X5900106Y-9047194D01*
X5900106Y-9047194D02*
X5900106Y-9151956D01*
X5900106Y-9047194D02*
X5909630Y-9028146D01*
X5909630Y-9028146D02*
X5928677Y-9018622D01*
X5928677Y-9018622D02*
X5957249Y-9018622D01*
X5957249Y-9018622D02*
X5976296Y-9028146D01*
X5976296Y-9028146D02*
X5985820Y-9047194D01*
X5985820Y-9047194D02*
X5985820Y-9151956D01*
X6081058Y-9151956D02*
X6081058Y-9018622D01*
X6081058Y-9037670D02*
X6090582Y-9028146D01*
X6090582Y-9028146D02*
X6109630Y-9018622D01*
X6109630Y-9018622D02*
X6138201Y-9018622D01*
X6138201Y-9018622D02*
X6157249Y-9028146D01*
X6157249Y-9028146D02*
X6166773Y-9047194D01*
X6166773Y-9047194D02*
X6166773Y-9151956D01*
X6166773Y-9047194D02*
X6176296Y-9028146D01*
X6176296Y-9028146D02*
X6195344Y-9018622D01*
X6195344Y-9018622D02*
X6223915Y-9018622D01*
X6223915Y-9018622D02*
X6242963Y-9028146D01*
X6242963Y-9028146D02*
X6252487Y-9047194D01*
X6252487Y-9047194D02*
X6252487Y-9151956D01*
X6642963Y-8942432D02*
X6471535Y-9199575D01*
X6900106Y-8951956D02*
X6919154Y-8951956D01*
X6919154Y-8951956D02*
X6938201Y-8961480D01*
X6938201Y-8961480D02*
X6947725Y-8971003D01*
X6947725Y-8971003D02*
X6957249Y-8990051D01*
X6957249Y-8990051D02*
X6966773Y-9028146D01*
X6966773Y-9028146D02*
X6966773Y-9075765D01*
X6966773Y-9075765D02*
X6957249Y-9113860D01*
X6957249Y-9113860D02*
X6947725Y-9132908D01*
X6947725Y-9132908D02*
X6938201Y-9142432D01*
X6938201Y-9142432D02*
X6919154Y-9151956D01*
X6919154Y-9151956D02*
X6900106Y-9151956D01*
X6900106Y-9151956D02*
X6881058Y-9142432D01*
X6881058Y-9142432D02*
X6871535Y-9132908D01*
X6871535Y-9132908D02*
X6862011Y-9113860D01*
X6862011Y-9113860D02*
X6852487Y-9075765D01*
X6852487Y-9075765D02*
X6852487Y-9028146D01*
X6852487Y-9028146D02*
X6862011Y-8990051D01*
X6862011Y-8990051D02*
X6871535Y-8971003D01*
X6871535Y-8971003D02*
X6881058Y-8961480D01*
X6881058Y-8961480D02*
X6900106Y-8951956D01*
X7052487Y-9132908D02*
X7062011Y-9142432D01*
X7062011Y-9142432D02*
X7052487Y-9151956D01*
X7052487Y-9151956D02*
X7042963Y-9142432D01*
X7042963Y-9142432D02*
X7052487Y-9132908D01*
X7052487Y-9132908D02*
X7052487Y-9151956D01*
X7185820Y-8951956D02*
X7204868Y-8951956D01*
X7204868Y-8951956D02*
X7223916Y-8961480D01*
X7223916Y-8961480D02*
X7233439Y-8971003D01*
X7233439Y-8971003D02*
X7242963Y-8990051D01*
X7242963Y-8990051D02*
X7252487Y-9028146D01*
X7252487Y-9028146D02*
X7252487Y-9075765D01*
X7252487Y-9075765D02*
X7242963Y-9113860D01*
X7242963Y-9113860D02*
X7233439Y-9132908D01*
X7233439Y-9132908D02*
X7223916Y-9142432D01*
X7223916Y-9142432D02*
X7204868Y-9151956D01*
X7204868Y-9151956D02*
X7185820Y-9151956D01*
X7185820Y-9151956D02*
X7166773Y-9142432D01*
X7166773Y-9142432D02*
X7157249Y-9132908D01*
X7157249Y-9132908D02*
X7147725Y-9113860D01*
X7147725Y-9113860D02*
X7138201Y-9075765D01*
X7138201Y-9075765D02*
X7138201Y-9028146D01*
X7138201Y-9028146D02*
X7147725Y-8990051D01*
X7147725Y-8990051D02*
X7157249Y-8971003D01*
X7157249Y-8971003D02*
X7166773Y-8961480D01*
X7166773Y-8961480D02*
X7185820Y-8951956D01*
X7328677Y-8971003D02*
X7338201Y-8961480D01*
X7338201Y-8961480D02*
X7357249Y-8951956D01*
X7357249Y-8951956D02*
X7404868Y-8951956D01*
X7404868Y-8951956D02*
X7423916Y-8961480D01*
X7423916Y-8961480D02*
X7433439Y-8971003D01*
X7433439Y-8971003D02*
X7442963Y-8990051D01*
X7442963Y-8990051D02*
X7442963Y-9009099D01*
X7442963Y-9009099D02*
X7433439Y-9037670D01*
X7433439Y-9037670D02*
X7319154Y-9151956D01*
X7319154Y-9151956D02*
X7442963Y-9151956D01*
X7509630Y-8951956D02*
X7633439Y-8951956D01*
X7633439Y-8951956D02*
X7566773Y-9028146D01*
X7566773Y-9028146D02*
X7595344Y-9028146D01*
X7595344Y-9028146D02*
X7614392Y-9037670D01*
X7614392Y-9037670D02*
X7623916Y-9047194D01*
X7623916Y-9047194D02*
X7633439Y-9066241D01*
X7633439Y-9066241D02*
X7633439Y-9113860D01*
X7633439Y-9113860D02*
X7623916Y-9132908D01*
X7623916Y-9132908D02*
X7614392Y-9142432D01*
X7614392Y-9142432D02*
X7595344Y-9151956D01*
X7595344Y-9151956D02*
X7538201Y-9151956D01*
X7538201Y-9151956D02*
X7519154Y-9142432D01*
X7519154Y-9142432D02*
X7509630Y-9132908D01*
X7804868Y-8951956D02*
X7766773Y-8951956D01*
X7766773Y-8951956D02*
X7747725Y-8961480D01*
X7747725Y-8961480D02*
X7738201Y-8971003D01*
X7738201Y-8971003D02*
X7719154Y-8999575D01*
X7719154Y-8999575D02*
X7709630Y-9037670D01*
X7709630Y-9037670D02*
X7709630Y-9113860D01*
X7709630Y-9113860D02*
X7719154Y-9132908D01*
X7719154Y-9132908D02*
X7728677Y-9142432D01*
X7728677Y-9142432D02*
X7747725Y-9151956D01*
X7747725Y-9151956D02*
X7785820Y-9151956D01*
X7785820Y-9151956D02*
X7804868Y-9142432D01*
X7804868Y-9142432D02*
X7814392Y-9132908D01*
X7814392Y-9132908D02*
X7823916Y-9113860D01*
X7823916Y-9113860D02*
X7823916Y-9066241D01*
X7823916Y-9066241D02*
X7814392Y-9047194D01*
X7814392Y-9047194D02*
X7804868Y-9037670D01*
X7804868Y-9037670D02*
X7785820Y-9028146D01*
X7785820Y-9028146D02*
X7747725Y-9028146D01*
X7747725Y-9028146D02*
X7728677Y-9037670D01*
X7728677Y-9037670D02*
X7719154Y-9047194D01*
X7719154Y-9047194D02*
X7709630Y-9066241D01*
X7900106Y-8951956D02*
X7900106Y-8990051D01*
X7976297Y-8951956D02*
X7976297Y-8990051D01*
X8271535Y-9228146D02*
X8262011Y-9218622D01*
X8262011Y-9218622D02*
X8242963Y-9190051D01*
X8242963Y-9190051D02*
X8233439Y-9171003D01*
X8233439Y-9171003D02*
X8223916Y-9142432D01*
X8223916Y-9142432D02*
X8214392Y-9094813D01*
X8214392Y-9094813D02*
X8214392Y-9056718D01*
X8214392Y-9056718D02*
X8223916Y-9009099D01*
X8223916Y-9009099D02*
X8233439Y-8980527D01*
X8233439Y-8980527D02*
X8242963Y-8961480D01*
X8242963Y-8961480D02*
X8262011Y-8932908D01*
X8262011Y-8932908D02*
X8271535Y-8923384D01*
X8385820Y-8951956D02*
X8404868Y-8951956D01*
X8404868Y-8951956D02*
X8423916Y-8961480D01*
X8423916Y-8961480D02*
X8433440Y-8971003D01*
X8433440Y-8971003D02*
X8442963Y-8990051D01*
X8442963Y-8990051D02*
X8452487Y-9028146D01*
X8452487Y-9028146D02*
X8452487Y-9075765D01*
X8452487Y-9075765D02*
X8442963Y-9113860D01*
X8442963Y-9113860D02*
X8433440Y-9132908D01*
X8433440Y-9132908D02*
X8423916Y-9142432D01*
X8423916Y-9142432D02*
X8404868Y-9151956D01*
X8404868Y-9151956D02*
X8385820Y-9151956D01*
X8385820Y-9151956D02*
X8366773Y-9142432D01*
X8366773Y-9142432D02*
X8357249Y-9132908D01*
X8357249Y-9132908D02*
X8347725Y-9113860D01*
X8347725Y-9113860D02*
X8338201Y-9075765D01*
X8338201Y-9075765D02*
X8338201Y-9028146D01*
X8338201Y-9028146D02*
X8347725Y-8990051D01*
X8347725Y-8990051D02*
X8357249Y-8971003D01*
X8357249Y-8971003D02*
X8366773Y-8961480D01*
X8366773Y-8961480D02*
X8385820Y-8951956D01*
X8690582Y-9151956D02*
X8690582Y-8951956D01*
X8776297Y-9151956D02*
X8776297Y-9047194D01*
X8776297Y-9047194D02*
X8766773Y-9028146D01*
X8766773Y-9028146D02*
X8747725Y-9018622D01*
X8747725Y-9018622D02*
X8719154Y-9018622D01*
X8719154Y-9018622D02*
X8700106Y-9028146D01*
X8700106Y-9028146D02*
X8690582Y-9037670D01*
X8900106Y-9151956D02*
X8881059Y-9142432D01*
X8881059Y-9142432D02*
X8871535Y-9132908D01*
X8871535Y-9132908D02*
X8862011Y-9113860D01*
X8862011Y-9113860D02*
X8862011Y-9056718D01*
X8862011Y-9056718D02*
X8871535Y-9037670D01*
X8871535Y-9037670D02*
X8881059Y-9028146D01*
X8881059Y-9028146D02*
X8900106Y-9018622D01*
X8900106Y-9018622D02*
X8928678Y-9018622D01*
X8928678Y-9018622D02*
X8947725Y-9028146D01*
X8947725Y-9028146D02*
X8957249Y-9037670D01*
X8957249Y-9037670D02*
X8966773Y-9056718D01*
X8966773Y-9056718D02*
X8966773Y-9113860D01*
X8966773Y-9113860D02*
X8957249Y-9132908D01*
X8957249Y-9132908D02*
X8947725Y-9142432D01*
X8947725Y-9142432D02*
X8928678Y-9151956D01*
X8928678Y-9151956D02*
X8900106Y-9151956D01*
X9081059Y-9151956D02*
X9062011Y-9142432D01*
X9062011Y-9142432D02*
X9052487Y-9123384D01*
X9052487Y-9123384D02*
X9052487Y-8951956D01*
X9233440Y-9142432D02*
X9214392Y-9151956D01*
X9214392Y-9151956D02*
X9176297Y-9151956D01*
X9176297Y-9151956D02*
X9157249Y-9142432D01*
X9157249Y-9142432D02*
X9147725Y-9123384D01*
X9147725Y-9123384D02*
X9147725Y-9047194D01*
X9147725Y-9047194D02*
X9157249Y-9028146D01*
X9157249Y-9028146D02*
X9176297Y-9018622D01*
X9176297Y-9018622D02*
X9214392Y-9018622D01*
X9214392Y-9018622D02*
X9233440Y-9028146D01*
X9233440Y-9028146D02*
X9242963Y-9047194D01*
X9242963Y-9047194D02*
X9242963Y-9066241D01*
X9242963Y-9066241D02*
X9147725Y-9085289D01*
X9319154Y-9142432D02*
X9338202Y-9151956D01*
X9338202Y-9151956D02*
X9376297Y-9151956D01*
X9376297Y-9151956D02*
X9395344Y-9142432D01*
X9395344Y-9142432D02*
X9404868Y-9123384D01*
X9404868Y-9123384D02*
X9404868Y-9113860D01*
X9404868Y-9113860D02*
X9395344Y-9094813D01*
X9395344Y-9094813D02*
X9376297Y-9085289D01*
X9376297Y-9085289D02*
X9347725Y-9085289D01*
X9347725Y-9085289D02*
X9328678Y-9075765D01*
X9328678Y-9075765D02*
X9319154Y-9056718D01*
X9319154Y-9056718D02*
X9319154Y-9047194D01*
X9319154Y-9047194D02*
X9328678Y-9028146D01*
X9328678Y-9028146D02*
X9347725Y-9018622D01*
X9347725Y-9018622D02*
X9376297Y-9018622D01*
X9376297Y-9018622D02*
X9395344Y-9028146D01*
X9642964Y-9075765D02*
X9795345Y-9075765D01*
X9719154Y-9151956D02*
X9719154Y-8999575D01*
X10033440Y-8971003D02*
X10042964Y-8961480D01*
X10042964Y-8961480D02*
X10062011Y-8951956D01*
X10062011Y-8951956D02*
X10109630Y-8951956D01*
X10109630Y-8951956D02*
X10128678Y-8961480D01*
X10128678Y-8961480D02*
X10138202Y-8971003D01*
X10138202Y-8971003D02*
X10147725Y-8990051D01*
X10147725Y-8990051D02*
X10147725Y-9009099D01*
X10147725Y-9009099D02*
X10138202Y-9037670D01*
X10138202Y-9037670D02*
X10023916Y-9151956D01*
X10023916Y-9151956D02*
X10147725Y-9151956D01*
X10376297Y-9142432D02*
X10395345Y-9151956D01*
X10395345Y-9151956D02*
X10433440Y-9151956D01*
X10433440Y-9151956D02*
X10452487Y-9142432D01*
X10452487Y-9142432D02*
X10462011Y-9123384D01*
X10462011Y-9123384D02*
X10462011Y-9113860D01*
X10462011Y-9113860D02*
X10452487Y-9094813D01*
X10452487Y-9094813D02*
X10433440Y-9085289D01*
X10433440Y-9085289D02*
X10404868Y-9085289D01*
X10404868Y-9085289D02*
X10385821Y-9075765D01*
X10385821Y-9075765D02*
X10376297Y-9056718D01*
X10376297Y-9056718D02*
X10376297Y-9047194D01*
X10376297Y-9047194D02*
X10385821Y-9028146D01*
X10385821Y-9028146D02*
X10404868Y-9018622D01*
X10404868Y-9018622D02*
X10433440Y-9018622D01*
X10433440Y-9018622D02*
X10452487Y-9028146D01*
X10576297Y-9151956D02*
X10557249Y-9142432D01*
X10557249Y-9142432D02*
X10547726Y-9123384D01*
X10547726Y-9123384D02*
X10547726Y-8951956D01*
X10681059Y-9151956D02*
X10662011Y-9142432D01*
X10662011Y-9142432D02*
X10652487Y-9132908D01*
X10652487Y-9132908D02*
X10642964Y-9113860D01*
X10642964Y-9113860D02*
X10642964Y-9056718D01*
X10642964Y-9056718D02*
X10652487Y-9037670D01*
X10652487Y-9037670D02*
X10662011Y-9028146D01*
X10662011Y-9028146D02*
X10681059Y-9018622D01*
X10681059Y-9018622D02*
X10709630Y-9018622D01*
X10709630Y-9018622D02*
X10728678Y-9028146D01*
X10728678Y-9028146D02*
X10738202Y-9037670D01*
X10738202Y-9037670D02*
X10747726Y-9056718D01*
X10747726Y-9056718D02*
X10747726Y-9113860D01*
X10747726Y-9113860D02*
X10738202Y-9132908D01*
X10738202Y-9132908D02*
X10728678Y-9142432D01*
X10728678Y-9142432D02*
X10709630Y-9151956D01*
X10709630Y-9151956D02*
X10681059Y-9151956D01*
X10804868Y-9018622D02*
X10881059Y-9018622D01*
X10833440Y-8951956D02*
X10833440Y-9123384D01*
X10833440Y-9123384D02*
X10842964Y-9142432D01*
X10842964Y-9142432D02*
X10862011Y-9151956D01*
X10862011Y-9151956D02*
X10881059Y-9151956D01*
X10938202Y-9142432D02*
X10957249Y-9151956D01*
X10957249Y-9151956D02*
X10995345Y-9151956D01*
X10995345Y-9151956D02*
X11014392Y-9142432D01*
X11014392Y-9142432D02*
X11023916Y-9123384D01*
X11023916Y-9123384D02*
X11023916Y-9113860D01*
X11023916Y-9113860D02*
X11014392Y-9094813D01*
X11014392Y-9094813D02*
X10995345Y-9085289D01*
X10995345Y-9085289D02*
X10966773Y-9085289D01*
X10966773Y-9085289D02*
X10947726Y-9075765D01*
X10947726Y-9075765D02*
X10938202Y-9056718D01*
X10938202Y-9056718D02*
X10938202Y-9047194D01*
X10938202Y-9047194D02*
X10947726Y-9028146D01*
X10947726Y-9028146D02*
X10966773Y-9018622D01*
X10966773Y-9018622D02*
X10995345Y-9018622D01*
X10995345Y-9018622D02*
X11014392Y-9028146D01*
X11090583Y-9228146D02*
X11100107Y-9218622D01*
X11100107Y-9218622D02*
X11119154Y-9190051D01*
X11119154Y-9190051D02*
X11128678Y-9171003D01*
X11128678Y-9171003D02*
X11138202Y-9142432D01*
X11138202Y-9142432D02*
X11147726Y-9094813D01*
X11147726Y-9094813D02*
X11147726Y-9056718D01*
X11147726Y-9056718D02*
X11138202Y-9009099D01*
X11138202Y-9009099D02*
X11128678Y-8980527D01*
X11128678Y-8980527D02*
X11119154Y-8961480D01*
X11119154Y-8961480D02*
X11100107Y-8932908D01*
X11100107Y-8932908D02*
X11090583Y-8923384D01*
X4596472Y-9224472D02*
X4596472Y-9424472D01*
X4496472Y-9324472D02*
X4696472Y-9324472D01*
X4938201Y-9215956D02*
X5062011Y-9215956D01*
X5062011Y-9215956D02*
X4995344Y-9292146D01*
X4995344Y-9292146D02*
X5023915Y-9292146D01*
X5023915Y-9292146D02*
X5042963Y-9301670D01*
X5042963Y-9301670D02*
X5052487Y-9311194D01*
X5052487Y-9311194D02*
X5062011Y-9330241D01*
X5062011Y-9330241D02*
X5062011Y-9377860D01*
X5062011Y-9377860D02*
X5052487Y-9396908D01*
X5052487Y-9396908D02*
X5042963Y-9406432D01*
X5042963Y-9406432D02*
X5023915Y-9415956D01*
X5023915Y-9415956D02*
X4966773Y-9415956D01*
X4966773Y-9415956D02*
X4947725Y-9406432D01*
X4947725Y-9406432D02*
X4938201Y-9396908D01*
X5147725Y-9396908D02*
X5157249Y-9406432D01*
X5157249Y-9406432D02*
X5147725Y-9415956D01*
X5147725Y-9415956D02*
X5138201Y-9406432D01*
X5138201Y-9406432D02*
X5147725Y-9396908D01*
X5147725Y-9396908D02*
X5147725Y-9415956D01*
X5281058Y-9215956D02*
X5300106Y-9215956D01*
X5300106Y-9215956D02*
X5319154Y-9225480D01*
X5319154Y-9225480D02*
X5328677Y-9235003D01*
X5328677Y-9235003D02*
X5338201Y-9254051D01*
X5338201Y-9254051D02*
X5347725Y-9292146D01*
X5347725Y-9292146D02*
X5347725Y-9339765D01*
X5347725Y-9339765D02*
X5338201Y-9377860D01*
X5338201Y-9377860D02*
X5328677Y-9396908D01*
X5328677Y-9396908D02*
X5319154Y-9406432D01*
X5319154Y-9406432D02*
X5300106Y-9415956D01*
X5300106Y-9415956D02*
X5281058Y-9415956D01*
X5281058Y-9415956D02*
X5262011Y-9406432D01*
X5262011Y-9406432D02*
X5252487Y-9396908D01*
X5252487Y-9396908D02*
X5242963Y-9377860D01*
X5242963Y-9377860D02*
X5233439Y-9339765D01*
X5233439Y-9339765D02*
X5233439Y-9292146D01*
X5233439Y-9292146D02*
X5242963Y-9254051D01*
X5242963Y-9254051D02*
X5252487Y-9235003D01*
X5252487Y-9235003D02*
X5262011Y-9225480D01*
X5262011Y-9225480D02*
X5281058Y-9215956D01*
X5471534Y-9215956D02*
X5490582Y-9215956D01*
X5490582Y-9215956D02*
X5509630Y-9225480D01*
X5509630Y-9225480D02*
X5519154Y-9235003D01*
X5519154Y-9235003D02*
X5528677Y-9254051D01*
X5528677Y-9254051D02*
X5538201Y-9292146D01*
X5538201Y-9292146D02*
X5538201Y-9339765D01*
X5538201Y-9339765D02*
X5528677Y-9377860D01*
X5528677Y-9377860D02*
X5519154Y-9396908D01*
X5519154Y-9396908D02*
X5509630Y-9406432D01*
X5509630Y-9406432D02*
X5490582Y-9415956D01*
X5490582Y-9415956D02*
X5471534Y-9415956D01*
X5471534Y-9415956D02*
X5452487Y-9406432D01*
X5452487Y-9406432D02*
X5442963Y-9396908D01*
X5442963Y-9396908D02*
X5433439Y-9377860D01*
X5433439Y-9377860D02*
X5423915Y-9339765D01*
X5423915Y-9339765D02*
X5423915Y-9292146D01*
X5423915Y-9292146D02*
X5433439Y-9254051D01*
X5433439Y-9254051D02*
X5442963Y-9235003D01*
X5442963Y-9235003D02*
X5452487Y-9225480D01*
X5452487Y-9225480D02*
X5471534Y-9215956D01*
X5662011Y-9215956D02*
X5681058Y-9215956D01*
X5681058Y-9215956D02*
X5700106Y-9225480D01*
X5700106Y-9225480D02*
X5709630Y-9235003D01*
X5709630Y-9235003D02*
X5719153Y-9254051D01*
X5719153Y-9254051D02*
X5728677Y-9292146D01*
X5728677Y-9292146D02*
X5728677Y-9339765D01*
X5728677Y-9339765D02*
X5719153Y-9377860D01*
X5719153Y-9377860D02*
X5709630Y-9396908D01*
X5709630Y-9396908D02*
X5700106Y-9406432D01*
X5700106Y-9406432D02*
X5681058Y-9415956D01*
X5681058Y-9415956D02*
X5662011Y-9415956D01*
X5662011Y-9415956D02*
X5642963Y-9406432D01*
X5642963Y-9406432D02*
X5633439Y-9396908D01*
X5633439Y-9396908D02*
X5623915Y-9377860D01*
X5623915Y-9377860D02*
X5614392Y-9339765D01*
X5614392Y-9339765D02*
X5614392Y-9292146D01*
X5614392Y-9292146D02*
X5623915Y-9254051D01*
X5623915Y-9254051D02*
X5633439Y-9235003D01*
X5633439Y-9235003D02*
X5642963Y-9225480D01*
X5642963Y-9225480D02*
X5662011Y-9215956D01*
X5814392Y-9415956D02*
X5814392Y-9282622D01*
X5814392Y-9301670D02*
X5823915Y-9292146D01*
X5823915Y-9292146D02*
X5842963Y-9282622D01*
X5842963Y-9282622D02*
X5871534Y-9282622D01*
X5871534Y-9282622D02*
X5890582Y-9292146D01*
X5890582Y-9292146D02*
X5900106Y-9311194D01*
X5900106Y-9311194D02*
X5900106Y-9415956D01*
X5900106Y-9311194D02*
X5909630Y-9292146D01*
X5909630Y-9292146D02*
X5928677Y-9282622D01*
X5928677Y-9282622D02*
X5957249Y-9282622D01*
X5957249Y-9282622D02*
X5976296Y-9292146D01*
X5976296Y-9292146D02*
X5985820Y-9311194D01*
X5985820Y-9311194D02*
X5985820Y-9415956D01*
X6081058Y-9415956D02*
X6081058Y-9282622D01*
X6081058Y-9301670D02*
X6090582Y-9292146D01*
X6090582Y-9292146D02*
X6109630Y-9282622D01*
X6109630Y-9282622D02*
X6138201Y-9282622D01*
X6138201Y-9282622D02*
X6157249Y-9292146D01*
X6157249Y-9292146D02*
X6166773Y-9311194D01*
X6166773Y-9311194D02*
X6166773Y-9415956D01*
X6166773Y-9311194D02*
X6176296Y-9292146D01*
X6176296Y-9292146D02*
X6195344Y-9282622D01*
X6195344Y-9282622D02*
X6223915Y-9282622D01*
X6223915Y-9282622D02*
X6242963Y-9292146D01*
X6242963Y-9292146D02*
X6252487Y-9311194D01*
X6252487Y-9311194D02*
X6252487Y-9415956D01*
X6642963Y-9206432D02*
X6471535Y-9463575D01*
X6900106Y-9215956D02*
X6919154Y-9215956D01*
X6919154Y-9215956D02*
X6938201Y-9225480D01*
X6938201Y-9225480D02*
X6947725Y-9235003D01*
X6947725Y-9235003D02*
X6957249Y-9254051D01*
X6957249Y-9254051D02*
X6966773Y-9292146D01*
X6966773Y-9292146D02*
X6966773Y-9339765D01*
X6966773Y-9339765D02*
X6957249Y-9377860D01*
X6957249Y-9377860D02*
X6947725Y-9396908D01*
X6947725Y-9396908D02*
X6938201Y-9406432D01*
X6938201Y-9406432D02*
X6919154Y-9415956D01*
X6919154Y-9415956D02*
X6900106Y-9415956D01*
X6900106Y-9415956D02*
X6881058Y-9406432D01*
X6881058Y-9406432D02*
X6871535Y-9396908D01*
X6871535Y-9396908D02*
X6862011Y-9377860D01*
X6862011Y-9377860D02*
X6852487Y-9339765D01*
X6852487Y-9339765D02*
X6852487Y-9292146D01*
X6852487Y-9292146D02*
X6862011Y-9254051D01*
X6862011Y-9254051D02*
X6871535Y-9235003D01*
X6871535Y-9235003D02*
X6881058Y-9225480D01*
X6881058Y-9225480D02*
X6900106Y-9215956D01*
X7052487Y-9396908D02*
X7062011Y-9406432D01*
X7062011Y-9406432D02*
X7052487Y-9415956D01*
X7052487Y-9415956D02*
X7042963Y-9406432D01*
X7042963Y-9406432D02*
X7052487Y-9396908D01*
X7052487Y-9396908D02*
X7052487Y-9415956D01*
X7252487Y-9415956D02*
X7138201Y-9415956D01*
X7195344Y-9415956D02*
X7195344Y-9215956D01*
X7195344Y-9215956D02*
X7176296Y-9244527D01*
X7176296Y-9244527D02*
X7157249Y-9263575D01*
X7157249Y-9263575D02*
X7138201Y-9273099D01*
X7442963Y-9415956D02*
X7328677Y-9415956D01*
X7385820Y-9415956D02*
X7385820Y-9215956D01*
X7385820Y-9215956D02*
X7366773Y-9244527D01*
X7366773Y-9244527D02*
X7347725Y-9263575D01*
X7347725Y-9263575D02*
X7328677Y-9273099D01*
X7557249Y-9301670D02*
X7538201Y-9292146D01*
X7538201Y-9292146D02*
X7528677Y-9282622D01*
X7528677Y-9282622D02*
X7519154Y-9263575D01*
X7519154Y-9263575D02*
X7519154Y-9254051D01*
X7519154Y-9254051D02*
X7528677Y-9235003D01*
X7528677Y-9235003D02*
X7538201Y-9225480D01*
X7538201Y-9225480D02*
X7557249Y-9215956D01*
X7557249Y-9215956D02*
X7595344Y-9215956D01*
X7595344Y-9215956D02*
X7614392Y-9225480D01*
X7614392Y-9225480D02*
X7623916Y-9235003D01*
X7623916Y-9235003D02*
X7633439Y-9254051D01*
X7633439Y-9254051D02*
X7633439Y-9263575D01*
X7633439Y-9263575D02*
X7623916Y-9282622D01*
X7623916Y-9282622D02*
X7614392Y-9292146D01*
X7614392Y-9292146D02*
X7595344Y-9301670D01*
X7595344Y-9301670D02*
X7557249Y-9301670D01*
X7557249Y-9301670D02*
X7538201Y-9311194D01*
X7538201Y-9311194D02*
X7528677Y-9320718D01*
X7528677Y-9320718D02*
X7519154Y-9339765D01*
X7519154Y-9339765D02*
X7519154Y-9377860D01*
X7519154Y-9377860D02*
X7528677Y-9396908D01*
X7528677Y-9396908D02*
X7538201Y-9406432D01*
X7538201Y-9406432D02*
X7557249Y-9415956D01*
X7557249Y-9415956D02*
X7595344Y-9415956D01*
X7595344Y-9415956D02*
X7614392Y-9406432D01*
X7614392Y-9406432D02*
X7623916Y-9396908D01*
X7623916Y-9396908D02*
X7633439Y-9377860D01*
X7633439Y-9377860D02*
X7633439Y-9339765D01*
X7633439Y-9339765D02*
X7623916Y-9320718D01*
X7623916Y-9320718D02*
X7614392Y-9311194D01*
X7614392Y-9311194D02*
X7595344Y-9301670D01*
X7823916Y-9415956D02*
X7709630Y-9415956D01*
X7766773Y-9415956D02*
X7766773Y-9215956D01*
X7766773Y-9215956D02*
X7747725Y-9244527D01*
X7747725Y-9244527D02*
X7728677Y-9263575D01*
X7728677Y-9263575D02*
X7709630Y-9273099D01*
X7900106Y-9215956D02*
X7900106Y-9254051D01*
X7976297Y-9215956D02*
X7976297Y-9254051D01*
X8271535Y-9492146D02*
X8262011Y-9482622D01*
X8262011Y-9482622D02*
X8242963Y-9454051D01*
X8242963Y-9454051D02*
X8233439Y-9435003D01*
X8233439Y-9435003D02*
X8223916Y-9406432D01*
X8223916Y-9406432D02*
X8214392Y-9358813D01*
X8214392Y-9358813D02*
X8214392Y-9320718D01*
X8214392Y-9320718D02*
X8223916Y-9273099D01*
X8223916Y-9273099D02*
X8233439Y-9244527D01*
X8233439Y-9244527D02*
X8242963Y-9225480D01*
X8242963Y-9225480D02*
X8262011Y-9196908D01*
X8262011Y-9196908D02*
X8271535Y-9187384D01*
X8452487Y-9415956D02*
X8338201Y-9415956D01*
X8395344Y-9415956D02*
X8395344Y-9215956D01*
X8395344Y-9215956D02*
X8376297Y-9244527D01*
X8376297Y-9244527D02*
X8357249Y-9263575D01*
X8357249Y-9263575D02*
X8338201Y-9273099D01*
X8690582Y-9415956D02*
X8690582Y-9215956D01*
X8776297Y-9415956D02*
X8776297Y-9311194D01*
X8776297Y-9311194D02*
X8766773Y-9292146D01*
X8766773Y-9292146D02*
X8747725Y-9282622D01*
X8747725Y-9282622D02*
X8719154Y-9282622D01*
X8719154Y-9282622D02*
X8700106Y-9292146D01*
X8700106Y-9292146D02*
X8690582Y-9301670D01*
X8900106Y-9415956D02*
X8881059Y-9406432D01*
X8881059Y-9406432D02*
X8871535Y-9396908D01*
X8871535Y-9396908D02*
X8862011Y-9377860D01*
X8862011Y-9377860D02*
X8862011Y-9320718D01*
X8862011Y-9320718D02*
X8871535Y-9301670D01*
X8871535Y-9301670D02*
X8881059Y-9292146D01*
X8881059Y-9292146D02*
X8900106Y-9282622D01*
X8900106Y-9282622D02*
X8928678Y-9282622D01*
X8928678Y-9282622D02*
X8947725Y-9292146D01*
X8947725Y-9292146D02*
X8957249Y-9301670D01*
X8957249Y-9301670D02*
X8966773Y-9320718D01*
X8966773Y-9320718D02*
X8966773Y-9377860D01*
X8966773Y-9377860D02*
X8957249Y-9396908D01*
X8957249Y-9396908D02*
X8947725Y-9406432D01*
X8947725Y-9406432D02*
X8928678Y-9415956D01*
X8928678Y-9415956D02*
X8900106Y-9415956D01*
X9081059Y-9415956D02*
X9062011Y-9406432D01*
X9062011Y-9406432D02*
X9052487Y-9387384D01*
X9052487Y-9387384D02*
X9052487Y-9215956D01*
X9233440Y-9406432D02*
X9214392Y-9415956D01*
X9214392Y-9415956D02*
X9176297Y-9415956D01*
X9176297Y-9415956D02*
X9157249Y-9406432D01*
X9157249Y-9406432D02*
X9147725Y-9387384D01*
X9147725Y-9387384D02*
X9147725Y-9311194D01*
X9147725Y-9311194D02*
X9157249Y-9292146D01*
X9157249Y-9292146D02*
X9176297Y-9282622D01*
X9176297Y-9282622D02*
X9214392Y-9282622D01*
X9214392Y-9282622D02*
X9233440Y-9292146D01*
X9233440Y-9292146D02*
X9242963Y-9311194D01*
X9242963Y-9311194D02*
X9242963Y-9330241D01*
X9242963Y-9330241D02*
X9147725Y-9349289D01*
X9309630Y-9492146D02*
X9319154Y-9482622D01*
X9319154Y-9482622D02*
X9338202Y-9454051D01*
X9338202Y-9454051D02*
X9347725Y-9435003D01*
X9347725Y-9435003D02*
X9357249Y-9406432D01*
X9357249Y-9406432D02*
X9366773Y-9358813D01*
X9366773Y-9358813D02*
X9366773Y-9320718D01*
X9366773Y-9320718D02*
X9357249Y-9273099D01*
X9357249Y-9273099D02*
X9347725Y-9244527D01*
X9347725Y-9244527D02*
X9338202Y-9225480D01*
X9338202Y-9225480D02*
X9319154Y-9196908D01*
X9319154Y-9196908D02*
X9309630Y-9187384D01*
X4667183Y-9715183D02*
X4667183Y-9573761D01*
X4525761Y-9573761D01*
X4525761Y-9715183D01*
X4667183Y-9715183D01*
X5042963Y-9602622D02*
X5042963Y-9735956D01*
X4995344Y-9526432D02*
X4947725Y-9669289D01*
X4947725Y-9669289D02*
X5071534Y-9669289D01*
X5147725Y-9716908D02*
X5157249Y-9726432D01*
X5157249Y-9726432D02*
X5147725Y-9735956D01*
X5147725Y-9735956D02*
X5138201Y-9726432D01*
X5138201Y-9726432D02*
X5147725Y-9716908D01*
X5147725Y-9716908D02*
X5147725Y-9735956D01*
X5281058Y-9535956D02*
X5300106Y-9535956D01*
X5300106Y-9535956D02*
X5319154Y-9545480D01*
X5319154Y-9545480D02*
X5328677Y-9555003D01*
X5328677Y-9555003D02*
X5338201Y-9574051D01*
X5338201Y-9574051D02*
X5347725Y-9612146D01*
X5347725Y-9612146D02*
X5347725Y-9659765D01*
X5347725Y-9659765D02*
X5338201Y-9697860D01*
X5338201Y-9697860D02*
X5328677Y-9716908D01*
X5328677Y-9716908D02*
X5319154Y-9726432D01*
X5319154Y-9726432D02*
X5300106Y-9735956D01*
X5300106Y-9735956D02*
X5281058Y-9735956D01*
X5281058Y-9735956D02*
X5262011Y-9726432D01*
X5262011Y-9726432D02*
X5252487Y-9716908D01*
X5252487Y-9716908D02*
X5242963Y-9697860D01*
X5242963Y-9697860D02*
X5233439Y-9659765D01*
X5233439Y-9659765D02*
X5233439Y-9612146D01*
X5233439Y-9612146D02*
X5242963Y-9574051D01*
X5242963Y-9574051D02*
X5252487Y-9555003D01*
X5252487Y-9555003D02*
X5262011Y-9545480D01*
X5262011Y-9545480D02*
X5281058Y-9535956D01*
X5471534Y-9535956D02*
X5490582Y-9535956D01*
X5490582Y-9535956D02*
X5509630Y-9545480D01*
X5509630Y-9545480D02*
X5519154Y-9555003D01*
X5519154Y-9555003D02*
X5528677Y-9574051D01*
X5528677Y-9574051D02*
X5538201Y-9612146D01*
X5538201Y-9612146D02*
X5538201Y-9659765D01*
X5538201Y-9659765D02*
X5528677Y-9697860D01*
X5528677Y-9697860D02*
X5519154Y-9716908D01*
X5519154Y-9716908D02*
X5509630Y-9726432D01*
X5509630Y-9726432D02*
X5490582Y-9735956D01*
X5490582Y-9735956D02*
X5471534Y-9735956D01*
X5471534Y-9735956D02*
X5452487Y-9726432D01*
X5452487Y-9726432D02*
X5442963Y-9716908D01*
X5442963Y-9716908D02*
X5433439Y-9697860D01*
X5433439Y-9697860D02*
X5423915Y-9659765D01*
X5423915Y-9659765D02*
X5423915Y-9612146D01*
X5423915Y-9612146D02*
X5433439Y-9574051D01*
X5433439Y-9574051D02*
X5442963Y-9555003D01*
X5442963Y-9555003D02*
X5452487Y-9545480D01*
X5452487Y-9545480D02*
X5471534Y-9535956D01*
X5662011Y-9535956D02*
X5681058Y-9535956D01*
X5681058Y-9535956D02*
X5700106Y-9545480D01*
X5700106Y-9545480D02*
X5709630Y-9555003D01*
X5709630Y-9555003D02*
X5719153Y-9574051D01*
X5719153Y-9574051D02*
X5728677Y-9612146D01*
X5728677Y-9612146D02*
X5728677Y-9659765D01*
X5728677Y-9659765D02*
X5719153Y-9697860D01*
X5719153Y-9697860D02*
X5709630Y-9716908D01*
X5709630Y-9716908D02*
X5700106Y-9726432D01*
X5700106Y-9726432D02*
X5681058Y-9735956D01*
X5681058Y-9735956D02*
X5662011Y-9735956D01*
X5662011Y-9735956D02*
X5642963Y-9726432D01*
X5642963Y-9726432D02*
X5633439Y-9716908D01*
X5633439Y-9716908D02*
X5623915Y-9697860D01*
X5623915Y-9697860D02*
X5614392Y-9659765D01*
X5614392Y-9659765D02*
X5614392Y-9612146D01*
X5614392Y-9612146D02*
X5623915Y-9574051D01*
X5623915Y-9574051D02*
X5633439Y-9555003D01*
X5633439Y-9555003D02*
X5642963Y-9545480D01*
X5642963Y-9545480D02*
X5662011Y-9535956D01*
X5814392Y-9735956D02*
X5814392Y-9602622D01*
X5814392Y-9621670D02*
X5823915Y-9612146D01*
X5823915Y-9612146D02*
X5842963Y-9602622D01*
X5842963Y-9602622D02*
X5871534Y-9602622D01*
X5871534Y-9602622D02*
X5890582Y-9612146D01*
X5890582Y-9612146D02*
X5900106Y-9631194D01*
X5900106Y-9631194D02*
X5900106Y-9735956D01*
X5900106Y-9631194D02*
X5909630Y-9612146D01*
X5909630Y-9612146D02*
X5928677Y-9602622D01*
X5928677Y-9602622D02*
X5957249Y-9602622D01*
X5957249Y-9602622D02*
X5976296Y-9612146D01*
X5976296Y-9612146D02*
X5985820Y-9631194D01*
X5985820Y-9631194D02*
X5985820Y-9735956D01*
X6081058Y-9735956D02*
X6081058Y-9602622D01*
X6081058Y-9621670D02*
X6090582Y-9612146D01*
X6090582Y-9612146D02*
X6109630Y-9602622D01*
X6109630Y-9602622D02*
X6138201Y-9602622D01*
X6138201Y-9602622D02*
X6157249Y-9612146D01*
X6157249Y-9612146D02*
X6166773Y-9631194D01*
X6166773Y-9631194D02*
X6166773Y-9735956D01*
X6166773Y-9631194D02*
X6176296Y-9612146D01*
X6176296Y-9612146D02*
X6195344Y-9602622D01*
X6195344Y-9602622D02*
X6223915Y-9602622D01*
X6223915Y-9602622D02*
X6242963Y-9612146D01*
X6242963Y-9612146D02*
X6252487Y-9631194D01*
X6252487Y-9631194D02*
X6252487Y-9735956D01*
X6642963Y-9526432D02*
X6471535Y-9783575D01*
X6900106Y-9535956D02*
X6919154Y-9535956D01*
X6919154Y-9535956D02*
X6938201Y-9545480D01*
X6938201Y-9545480D02*
X6947725Y-9555003D01*
X6947725Y-9555003D02*
X6957249Y-9574051D01*
X6957249Y-9574051D02*
X6966773Y-9612146D01*
X6966773Y-9612146D02*
X6966773Y-9659765D01*
X6966773Y-9659765D02*
X6957249Y-9697860D01*
X6957249Y-9697860D02*
X6947725Y-9716908D01*
X6947725Y-9716908D02*
X6938201Y-9726432D01*
X6938201Y-9726432D02*
X6919154Y-9735956D01*
X6919154Y-9735956D02*
X6900106Y-9735956D01*
X6900106Y-9735956D02*
X6881058Y-9726432D01*
X6881058Y-9726432D02*
X6871535Y-9716908D01*
X6871535Y-9716908D02*
X6862011Y-9697860D01*
X6862011Y-9697860D02*
X6852487Y-9659765D01*
X6852487Y-9659765D02*
X6852487Y-9612146D01*
X6852487Y-9612146D02*
X6862011Y-9574051D01*
X6862011Y-9574051D02*
X6871535Y-9555003D01*
X6871535Y-9555003D02*
X6881058Y-9545480D01*
X6881058Y-9545480D02*
X6900106Y-9535956D01*
X7052487Y-9716908D02*
X7062011Y-9726432D01*
X7062011Y-9726432D02*
X7052487Y-9735956D01*
X7052487Y-9735956D02*
X7042963Y-9726432D01*
X7042963Y-9726432D02*
X7052487Y-9716908D01*
X7052487Y-9716908D02*
X7052487Y-9735956D01*
X7252487Y-9735956D02*
X7138201Y-9735956D01*
X7195344Y-9735956D02*
X7195344Y-9535956D01*
X7195344Y-9535956D02*
X7176296Y-9564527D01*
X7176296Y-9564527D02*
X7157249Y-9583575D01*
X7157249Y-9583575D02*
X7138201Y-9593099D01*
X7433439Y-9535956D02*
X7338201Y-9535956D01*
X7338201Y-9535956D02*
X7328677Y-9631194D01*
X7328677Y-9631194D02*
X7338201Y-9621670D01*
X7338201Y-9621670D02*
X7357249Y-9612146D01*
X7357249Y-9612146D02*
X7404868Y-9612146D01*
X7404868Y-9612146D02*
X7423916Y-9621670D01*
X7423916Y-9621670D02*
X7433439Y-9631194D01*
X7433439Y-9631194D02*
X7442963Y-9650241D01*
X7442963Y-9650241D02*
X7442963Y-9697860D01*
X7442963Y-9697860D02*
X7433439Y-9716908D01*
X7433439Y-9716908D02*
X7423916Y-9726432D01*
X7423916Y-9726432D02*
X7404868Y-9735956D01*
X7404868Y-9735956D02*
X7357249Y-9735956D01*
X7357249Y-9735956D02*
X7338201Y-9726432D01*
X7338201Y-9726432D02*
X7328677Y-9716908D01*
X7509630Y-9535956D02*
X7642963Y-9535956D01*
X7642963Y-9535956D02*
X7557249Y-9735956D01*
X7814392Y-9535956D02*
X7719154Y-9535956D01*
X7719154Y-9535956D02*
X7709630Y-9631194D01*
X7709630Y-9631194D02*
X7719154Y-9621670D01*
X7719154Y-9621670D02*
X7738201Y-9612146D01*
X7738201Y-9612146D02*
X7785820Y-9612146D01*
X7785820Y-9612146D02*
X7804868Y-9621670D01*
X7804868Y-9621670D02*
X7814392Y-9631194D01*
X7814392Y-9631194D02*
X7823916Y-9650241D01*
X7823916Y-9650241D02*
X7823916Y-9697860D01*
X7823916Y-9697860D02*
X7814392Y-9716908D01*
X7814392Y-9716908D02*
X7804868Y-9726432D01*
X7804868Y-9726432D02*
X7785820Y-9735956D01*
X7785820Y-9735956D02*
X7738201Y-9735956D01*
X7738201Y-9735956D02*
X7719154Y-9726432D01*
X7719154Y-9726432D02*
X7709630Y-9716908D01*
X7900106Y-9535956D02*
X7900106Y-9574051D01*
X7976297Y-9535956D02*
X7976297Y-9574051D01*
X8271535Y-9812146D02*
X8262011Y-9802622D01*
X8262011Y-9802622D02*
X8242963Y-9774051D01*
X8242963Y-9774051D02*
X8233439Y-9755003D01*
X8233439Y-9755003D02*
X8223916Y-9726432D01*
X8223916Y-9726432D02*
X8214392Y-9678813D01*
X8214392Y-9678813D02*
X8214392Y-9640718D01*
X8214392Y-9640718D02*
X8223916Y-9593099D01*
X8223916Y-9593099D02*
X8233439Y-9564527D01*
X8233439Y-9564527D02*
X8242963Y-9545480D01*
X8242963Y-9545480D02*
X8262011Y-9516908D01*
X8262011Y-9516908D02*
X8271535Y-9507384D01*
X8442963Y-9535956D02*
X8347725Y-9535956D01*
X8347725Y-9535956D02*
X8338201Y-9631194D01*
X8338201Y-9631194D02*
X8347725Y-9621670D01*
X8347725Y-9621670D02*
X8366773Y-9612146D01*
X8366773Y-9612146D02*
X8414392Y-9612146D01*
X8414392Y-9612146D02*
X8433440Y-9621670D01*
X8433440Y-9621670D02*
X8442963Y-9631194D01*
X8442963Y-9631194D02*
X8452487Y-9650241D01*
X8452487Y-9650241D02*
X8452487Y-9697860D01*
X8452487Y-9697860D02*
X8442963Y-9716908D01*
X8442963Y-9716908D02*
X8433440Y-9726432D01*
X8433440Y-9726432D02*
X8414392Y-9735956D01*
X8414392Y-9735956D02*
X8366773Y-9735956D01*
X8366773Y-9735956D02*
X8347725Y-9726432D01*
X8347725Y-9726432D02*
X8338201Y-9716908D01*
X8690582Y-9735956D02*
X8690582Y-9535956D01*
X8776297Y-9735956D02*
X8776297Y-9631194D01*
X8776297Y-9631194D02*
X8766773Y-9612146D01*
X8766773Y-9612146D02*
X8747725Y-9602622D01*
X8747725Y-9602622D02*
X8719154Y-9602622D01*
X8719154Y-9602622D02*
X8700106Y-9612146D01*
X8700106Y-9612146D02*
X8690582Y-9621670D01*
X8900106Y-9735956D02*
X8881059Y-9726432D01*
X8881059Y-9726432D02*
X8871535Y-9716908D01*
X8871535Y-9716908D02*
X8862011Y-9697860D01*
X8862011Y-9697860D02*
X8862011Y-9640718D01*
X8862011Y-9640718D02*
X8871535Y-9621670D01*
X8871535Y-9621670D02*
X8881059Y-9612146D01*
X8881059Y-9612146D02*
X8900106Y-9602622D01*
X8900106Y-9602622D02*
X8928678Y-9602622D01*
X8928678Y-9602622D02*
X8947725Y-9612146D01*
X8947725Y-9612146D02*
X8957249Y-9621670D01*
X8957249Y-9621670D02*
X8966773Y-9640718D01*
X8966773Y-9640718D02*
X8966773Y-9697860D01*
X8966773Y-9697860D02*
X8957249Y-9716908D01*
X8957249Y-9716908D02*
X8947725Y-9726432D01*
X8947725Y-9726432D02*
X8928678Y-9735956D01*
X8928678Y-9735956D02*
X8900106Y-9735956D01*
X9081059Y-9735956D02*
X9062011Y-9726432D01*
X9062011Y-9726432D02*
X9052487Y-9707384D01*
X9052487Y-9707384D02*
X9052487Y-9535956D01*
X9233440Y-9726432D02*
X9214392Y-9735956D01*
X9214392Y-9735956D02*
X9176297Y-9735956D01*
X9176297Y-9735956D02*
X9157249Y-9726432D01*
X9157249Y-9726432D02*
X9147725Y-9707384D01*
X9147725Y-9707384D02*
X9147725Y-9631194D01*
X9147725Y-9631194D02*
X9157249Y-9612146D01*
X9157249Y-9612146D02*
X9176297Y-9602622D01*
X9176297Y-9602622D02*
X9214392Y-9602622D01*
X9214392Y-9602622D02*
X9233440Y-9612146D01*
X9233440Y-9612146D02*
X9242963Y-9631194D01*
X9242963Y-9631194D02*
X9242963Y-9650241D01*
X9242963Y-9650241D02*
X9147725Y-9669289D01*
X9319154Y-9726432D02*
X9338202Y-9735956D01*
X9338202Y-9735956D02*
X9376297Y-9735956D01*
X9376297Y-9735956D02*
X9395344Y-9726432D01*
X9395344Y-9726432D02*
X9404868Y-9707384D01*
X9404868Y-9707384D02*
X9404868Y-9697860D01*
X9404868Y-9697860D02*
X9395344Y-9678813D01*
X9395344Y-9678813D02*
X9376297Y-9669289D01*
X9376297Y-9669289D02*
X9347725Y-9669289D01*
X9347725Y-9669289D02*
X9328678Y-9659765D01*
X9328678Y-9659765D02*
X9319154Y-9640718D01*
X9319154Y-9640718D02*
X9319154Y-9631194D01*
X9319154Y-9631194D02*
X9328678Y-9612146D01*
X9328678Y-9612146D02*
X9347725Y-9602622D01*
X9347725Y-9602622D02*
X9376297Y-9602622D01*
X9376297Y-9602622D02*
X9395344Y-9612146D01*
X9471535Y-9812146D02*
X9481059Y-9802622D01*
X9481059Y-9802622D02*
X9500106Y-9774051D01*
X9500106Y-9774051D02*
X9509630Y-9755003D01*
X9509630Y-9755003D02*
X9519154Y-9726432D01*
X9519154Y-9726432D02*
X9528678Y-9678813D01*
X9528678Y-9678813D02*
X9528678Y-9640718D01*
X9528678Y-9640718D02*
X9519154Y-9593099D01*
X9519154Y-9593099D02*
X9509630Y-9564527D01*
X9509630Y-9564527D02*
X9500106Y-9545480D01*
X9500106Y-9545480D02*
X9481059Y-9516908D01*
X9481059Y-9516908D02*
X9471535Y-9507384D01*
M02*
