%TF.GenerationSoftware,KiCad,Pcbnew,8.0.2-1*%
%TF.CreationDate,2024-07-01T17:17:11+01:00*%
%TF.ProjectId,solderbit-gamepad,736f6c64-6572-4626-9974-2d67616d6570,v0.6*%
%TF.SameCoordinates,Original*%
%TF.FileFunction,Drillmap*%
%TF.FilePolarity,Positive*%
%FSLAX45Y45*%
G04 Gerber Fmt 4.5, Leading zero omitted, Abs format (unit mm)*
G04 Created by KiCad (PCBNEW 8.0.2-1) date 2024-07-01 17:17:11*
%MOMM*%
%LPD*%
G01*
G04 APERTURE LIST*
%ADD10C,0.100000*%
%ADD11C,0.200000*%
%ADD12C,0.180000*%
G04 APERTURE END LIST*
D10*
X7524990Y-3651472D02*
G75*
G02*
X7825000Y-3949275I0J-300018D01*
G01*
X13326039Y-3651472D02*
X14951470Y-3651472D01*
X12725000Y-4476472D02*
X8125000Y-4476472D01*
X14951470Y-3651472D02*
G75*
G02*
X16151468Y-4851472I0J-1199998D01*
G01*
X13025000Y-4176470D02*
X13025000Y-3951470D01*
X16151472Y-4851472D02*
X16151472Y-6951472D01*
X16151472Y-6951472D02*
G75*
G02*
X14951472Y-8151472I-1200000J0D01*
G01*
X8125000Y-4476472D02*
G75*
G02*
X7825008Y-4176472I0J299992D01*
G01*
X4701472Y-4851472D02*
X4701472Y-6951472D01*
X14951472Y-8151472D02*
X5901472Y-8151472D01*
X4701472Y-4851472D02*
G75*
G02*
X5901472Y-3651472I1200000J0D01*
G01*
X7825000Y-4176472D02*
X7825000Y-3949275D01*
X13025000Y-3951470D02*
G75*
G02*
X13326039Y-3651472I300000J0D01*
G01*
X5901472Y-8151472D02*
G75*
G02*
X4701472Y-6951472I0J1200000D01*
G01*
X13025000Y-4176470D02*
G75*
G02*
X12725000Y-4476470I-300000J0D01*
G01*
X7524990Y-3651472D02*
X5901472Y-3651472D01*
D11*
D12*
X12667500Y-5690000D02*
X12847500Y-5870000D01*
X12847500Y-5690000D02*
X12667500Y-5870000D01*
D11*
X4957249Y-8467956D02*
X4957249Y-8267956D01*
X4957249Y-8267956D02*
X5004868Y-8267956D01*
X5004868Y-8267956D02*
X5033439Y-8277479D01*
X5033439Y-8277479D02*
X5052487Y-8296527D01*
X5052487Y-8296527D02*
X5062011Y-8315575D01*
X5062011Y-8315575D02*
X5071534Y-8353670D01*
X5071534Y-8353670D02*
X5071534Y-8382241D01*
X5071534Y-8382241D02*
X5062011Y-8420337D01*
X5062011Y-8420337D02*
X5052487Y-8439384D01*
X5052487Y-8439384D02*
X5033439Y-8458432D01*
X5033439Y-8458432D02*
X5004868Y-8467956D01*
X5004868Y-8467956D02*
X4957249Y-8467956D01*
X5157249Y-8467956D02*
X5157249Y-8334622D01*
X5157249Y-8372718D02*
X5166773Y-8353670D01*
X5166773Y-8353670D02*
X5176296Y-8344146D01*
X5176296Y-8344146D02*
X5195344Y-8334622D01*
X5195344Y-8334622D02*
X5214392Y-8334622D01*
X5281058Y-8467956D02*
X5281058Y-8334622D01*
X5281058Y-8267956D02*
X5271534Y-8277479D01*
X5271534Y-8277479D02*
X5281058Y-8287003D01*
X5281058Y-8287003D02*
X5290582Y-8277479D01*
X5290582Y-8277479D02*
X5281058Y-8267956D01*
X5281058Y-8267956D02*
X5281058Y-8287003D01*
X5404868Y-8467956D02*
X5385820Y-8458432D01*
X5385820Y-8458432D02*
X5376296Y-8439384D01*
X5376296Y-8439384D02*
X5376296Y-8267956D01*
X5509630Y-8467956D02*
X5490582Y-8458432D01*
X5490582Y-8458432D02*
X5481058Y-8439384D01*
X5481058Y-8439384D02*
X5481058Y-8267956D01*
X5738201Y-8467956D02*
X5738201Y-8267956D01*
X5738201Y-8267956D02*
X5804868Y-8410813D01*
X5804868Y-8410813D02*
X5871534Y-8267956D01*
X5871534Y-8267956D02*
X5871534Y-8467956D01*
X6052487Y-8467956D02*
X6052487Y-8363194D01*
X6052487Y-8363194D02*
X6042963Y-8344146D01*
X6042963Y-8344146D02*
X6023915Y-8334622D01*
X6023915Y-8334622D02*
X5985820Y-8334622D01*
X5985820Y-8334622D02*
X5966772Y-8344146D01*
X6052487Y-8458432D02*
X6033439Y-8467956D01*
X6033439Y-8467956D02*
X5985820Y-8467956D01*
X5985820Y-8467956D02*
X5966772Y-8458432D01*
X5966772Y-8458432D02*
X5957249Y-8439384D01*
X5957249Y-8439384D02*
X5957249Y-8420337D01*
X5957249Y-8420337D02*
X5966772Y-8401289D01*
X5966772Y-8401289D02*
X5985820Y-8391765D01*
X5985820Y-8391765D02*
X6033439Y-8391765D01*
X6033439Y-8391765D02*
X6052487Y-8382241D01*
X6147725Y-8334622D02*
X6147725Y-8534622D01*
X6147725Y-8344146D02*
X6166772Y-8334622D01*
X6166772Y-8334622D02*
X6204868Y-8334622D01*
X6204868Y-8334622D02*
X6223915Y-8344146D01*
X6223915Y-8344146D02*
X6233439Y-8353670D01*
X6233439Y-8353670D02*
X6242963Y-8372718D01*
X6242963Y-8372718D02*
X6242963Y-8429860D01*
X6242963Y-8429860D02*
X6233439Y-8448908D01*
X6233439Y-8448908D02*
X6223915Y-8458432D01*
X6223915Y-8458432D02*
X6204868Y-8467956D01*
X6204868Y-8467956D02*
X6166772Y-8467956D01*
X6166772Y-8467956D02*
X6147725Y-8458432D01*
X6328677Y-8448908D02*
X6338201Y-8458432D01*
X6338201Y-8458432D02*
X6328677Y-8467956D01*
X6328677Y-8467956D02*
X6319153Y-8458432D01*
X6319153Y-8458432D02*
X6328677Y-8448908D01*
X6328677Y-8448908D02*
X6328677Y-8467956D01*
X6328677Y-8344146D02*
X6338201Y-8353670D01*
X6338201Y-8353670D02*
X6328677Y-8363194D01*
X6328677Y-8363194D02*
X6319153Y-8353670D01*
X6319153Y-8353670D02*
X6328677Y-8344146D01*
X6328677Y-8344146D02*
X6328677Y-8363194D01*
D12*
X4516472Y-8706472D02*
X4696472Y-8886472D01*
X4696472Y-8706472D02*
X4516472Y-8886472D01*
D11*
X5062011Y-8887956D02*
X4947725Y-8887956D01*
X5004868Y-8887956D02*
X5004868Y-8687956D01*
X5004868Y-8687956D02*
X4985820Y-8716527D01*
X4985820Y-8716527D02*
X4966773Y-8735575D01*
X4966773Y-8735575D02*
X4947725Y-8745099D01*
X5147725Y-8868908D02*
X5157249Y-8878432D01*
X5157249Y-8878432D02*
X5147725Y-8887956D01*
X5147725Y-8887956D02*
X5138201Y-8878432D01*
X5138201Y-8878432D02*
X5147725Y-8868908D01*
X5147725Y-8868908D02*
X5147725Y-8887956D01*
X5271534Y-8773670D02*
X5252487Y-8764146D01*
X5252487Y-8764146D02*
X5242963Y-8754622D01*
X5242963Y-8754622D02*
X5233439Y-8735575D01*
X5233439Y-8735575D02*
X5233439Y-8726051D01*
X5233439Y-8726051D02*
X5242963Y-8707003D01*
X5242963Y-8707003D02*
X5252487Y-8697480D01*
X5252487Y-8697480D02*
X5271534Y-8687956D01*
X5271534Y-8687956D02*
X5309630Y-8687956D01*
X5309630Y-8687956D02*
X5328677Y-8697480D01*
X5328677Y-8697480D02*
X5338201Y-8707003D01*
X5338201Y-8707003D02*
X5347725Y-8726051D01*
X5347725Y-8726051D02*
X5347725Y-8735575D01*
X5347725Y-8735575D02*
X5338201Y-8754622D01*
X5338201Y-8754622D02*
X5328677Y-8764146D01*
X5328677Y-8764146D02*
X5309630Y-8773670D01*
X5309630Y-8773670D02*
X5271534Y-8773670D01*
X5271534Y-8773670D02*
X5252487Y-8783194D01*
X5252487Y-8783194D02*
X5242963Y-8792718D01*
X5242963Y-8792718D02*
X5233439Y-8811765D01*
X5233439Y-8811765D02*
X5233439Y-8849860D01*
X5233439Y-8849860D02*
X5242963Y-8868908D01*
X5242963Y-8868908D02*
X5252487Y-8878432D01*
X5252487Y-8878432D02*
X5271534Y-8887956D01*
X5271534Y-8887956D02*
X5309630Y-8887956D01*
X5309630Y-8887956D02*
X5328677Y-8878432D01*
X5328677Y-8878432D02*
X5338201Y-8868908D01*
X5338201Y-8868908D02*
X5347725Y-8849860D01*
X5347725Y-8849860D02*
X5347725Y-8811765D01*
X5347725Y-8811765D02*
X5338201Y-8792718D01*
X5338201Y-8792718D02*
X5328677Y-8783194D01*
X5328677Y-8783194D02*
X5309630Y-8773670D01*
X5471534Y-8687956D02*
X5490582Y-8687956D01*
X5490582Y-8687956D02*
X5509630Y-8697480D01*
X5509630Y-8697480D02*
X5519154Y-8707003D01*
X5519154Y-8707003D02*
X5528677Y-8726051D01*
X5528677Y-8726051D02*
X5538201Y-8764146D01*
X5538201Y-8764146D02*
X5538201Y-8811765D01*
X5538201Y-8811765D02*
X5528677Y-8849860D01*
X5528677Y-8849860D02*
X5519154Y-8868908D01*
X5519154Y-8868908D02*
X5509630Y-8878432D01*
X5509630Y-8878432D02*
X5490582Y-8887956D01*
X5490582Y-8887956D02*
X5471534Y-8887956D01*
X5471534Y-8887956D02*
X5452487Y-8878432D01*
X5452487Y-8878432D02*
X5442963Y-8868908D01*
X5442963Y-8868908D02*
X5433439Y-8849860D01*
X5433439Y-8849860D02*
X5423915Y-8811765D01*
X5423915Y-8811765D02*
X5423915Y-8764146D01*
X5423915Y-8764146D02*
X5433439Y-8726051D01*
X5433439Y-8726051D02*
X5442963Y-8707003D01*
X5442963Y-8707003D02*
X5452487Y-8697480D01*
X5452487Y-8697480D02*
X5471534Y-8687956D01*
X5662011Y-8687956D02*
X5681058Y-8687956D01*
X5681058Y-8687956D02*
X5700106Y-8697480D01*
X5700106Y-8697480D02*
X5709630Y-8707003D01*
X5709630Y-8707003D02*
X5719153Y-8726051D01*
X5719153Y-8726051D02*
X5728677Y-8764146D01*
X5728677Y-8764146D02*
X5728677Y-8811765D01*
X5728677Y-8811765D02*
X5719153Y-8849860D01*
X5719153Y-8849860D02*
X5709630Y-8868908D01*
X5709630Y-8868908D02*
X5700106Y-8878432D01*
X5700106Y-8878432D02*
X5681058Y-8887956D01*
X5681058Y-8887956D02*
X5662011Y-8887956D01*
X5662011Y-8887956D02*
X5642963Y-8878432D01*
X5642963Y-8878432D02*
X5633439Y-8868908D01*
X5633439Y-8868908D02*
X5623915Y-8849860D01*
X5623915Y-8849860D02*
X5614392Y-8811765D01*
X5614392Y-8811765D02*
X5614392Y-8764146D01*
X5614392Y-8764146D02*
X5623915Y-8726051D01*
X5623915Y-8726051D02*
X5633439Y-8707003D01*
X5633439Y-8707003D02*
X5642963Y-8697480D01*
X5642963Y-8697480D02*
X5662011Y-8687956D01*
X5814392Y-8887956D02*
X5814392Y-8754622D01*
X5814392Y-8773670D02*
X5823915Y-8764146D01*
X5823915Y-8764146D02*
X5842963Y-8754622D01*
X5842963Y-8754622D02*
X5871534Y-8754622D01*
X5871534Y-8754622D02*
X5890582Y-8764146D01*
X5890582Y-8764146D02*
X5900106Y-8783194D01*
X5900106Y-8783194D02*
X5900106Y-8887956D01*
X5900106Y-8783194D02*
X5909630Y-8764146D01*
X5909630Y-8764146D02*
X5928677Y-8754622D01*
X5928677Y-8754622D02*
X5957249Y-8754622D01*
X5957249Y-8754622D02*
X5976296Y-8764146D01*
X5976296Y-8764146D02*
X5985820Y-8783194D01*
X5985820Y-8783194D02*
X5985820Y-8887956D01*
X6081058Y-8887956D02*
X6081058Y-8754622D01*
X6081058Y-8773670D02*
X6090582Y-8764146D01*
X6090582Y-8764146D02*
X6109630Y-8754622D01*
X6109630Y-8754622D02*
X6138201Y-8754622D01*
X6138201Y-8754622D02*
X6157249Y-8764146D01*
X6157249Y-8764146D02*
X6166773Y-8783194D01*
X6166773Y-8783194D02*
X6166773Y-8887956D01*
X6166773Y-8783194D02*
X6176296Y-8764146D01*
X6176296Y-8764146D02*
X6195344Y-8754622D01*
X6195344Y-8754622D02*
X6223915Y-8754622D01*
X6223915Y-8754622D02*
X6242963Y-8764146D01*
X6242963Y-8764146D02*
X6252487Y-8783194D01*
X6252487Y-8783194D02*
X6252487Y-8887956D01*
X6642963Y-8678432D02*
X6471535Y-8935575D01*
X6900106Y-8687956D02*
X6919154Y-8687956D01*
X6919154Y-8687956D02*
X6938201Y-8697480D01*
X6938201Y-8697480D02*
X6947725Y-8707003D01*
X6947725Y-8707003D02*
X6957249Y-8726051D01*
X6957249Y-8726051D02*
X6966773Y-8764146D01*
X6966773Y-8764146D02*
X6966773Y-8811765D01*
X6966773Y-8811765D02*
X6957249Y-8849860D01*
X6957249Y-8849860D02*
X6947725Y-8868908D01*
X6947725Y-8868908D02*
X6938201Y-8878432D01*
X6938201Y-8878432D02*
X6919154Y-8887956D01*
X6919154Y-8887956D02*
X6900106Y-8887956D01*
X6900106Y-8887956D02*
X6881058Y-8878432D01*
X6881058Y-8878432D02*
X6871535Y-8868908D01*
X6871535Y-8868908D02*
X6862011Y-8849860D01*
X6862011Y-8849860D02*
X6852487Y-8811765D01*
X6852487Y-8811765D02*
X6852487Y-8764146D01*
X6852487Y-8764146D02*
X6862011Y-8726051D01*
X6862011Y-8726051D02*
X6871535Y-8707003D01*
X6871535Y-8707003D02*
X6881058Y-8697480D01*
X6881058Y-8697480D02*
X6900106Y-8687956D01*
X7052487Y-8868908D02*
X7062011Y-8878432D01*
X7062011Y-8878432D02*
X7052487Y-8887956D01*
X7052487Y-8887956D02*
X7042963Y-8878432D01*
X7042963Y-8878432D02*
X7052487Y-8868908D01*
X7052487Y-8868908D02*
X7052487Y-8887956D01*
X7185820Y-8687956D02*
X7204868Y-8687956D01*
X7204868Y-8687956D02*
X7223916Y-8697480D01*
X7223916Y-8697480D02*
X7233439Y-8707003D01*
X7233439Y-8707003D02*
X7242963Y-8726051D01*
X7242963Y-8726051D02*
X7252487Y-8764146D01*
X7252487Y-8764146D02*
X7252487Y-8811765D01*
X7252487Y-8811765D02*
X7242963Y-8849860D01*
X7242963Y-8849860D02*
X7233439Y-8868908D01*
X7233439Y-8868908D02*
X7223916Y-8878432D01*
X7223916Y-8878432D02*
X7204868Y-8887956D01*
X7204868Y-8887956D02*
X7185820Y-8887956D01*
X7185820Y-8887956D02*
X7166773Y-8878432D01*
X7166773Y-8878432D02*
X7157249Y-8868908D01*
X7157249Y-8868908D02*
X7147725Y-8849860D01*
X7147725Y-8849860D02*
X7138201Y-8811765D01*
X7138201Y-8811765D02*
X7138201Y-8764146D01*
X7138201Y-8764146D02*
X7147725Y-8726051D01*
X7147725Y-8726051D02*
X7157249Y-8707003D01*
X7157249Y-8707003D02*
X7166773Y-8697480D01*
X7166773Y-8697480D02*
X7185820Y-8687956D01*
X7319154Y-8687956D02*
X7452487Y-8687956D01*
X7452487Y-8687956D02*
X7366773Y-8887956D01*
X7566773Y-8687956D02*
X7585820Y-8687956D01*
X7585820Y-8687956D02*
X7604868Y-8697480D01*
X7604868Y-8697480D02*
X7614392Y-8707003D01*
X7614392Y-8707003D02*
X7623916Y-8726051D01*
X7623916Y-8726051D02*
X7633439Y-8764146D01*
X7633439Y-8764146D02*
X7633439Y-8811765D01*
X7633439Y-8811765D02*
X7623916Y-8849860D01*
X7623916Y-8849860D02*
X7614392Y-8868908D01*
X7614392Y-8868908D02*
X7604868Y-8878432D01*
X7604868Y-8878432D02*
X7585820Y-8887956D01*
X7585820Y-8887956D02*
X7566773Y-8887956D01*
X7566773Y-8887956D02*
X7547725Y-8878432D01*
X7547725Y-8878432D02*
X7538201Y-8868908D01*
X7538201Y-8868908D02*
X7528677Y-8849860D01*
X7528677Y-8849860D02*
X7519154Y-8811765D01*
X7519154Y-8811765D02*
X7519154Y-8764146D01*
X7519154Y-8764146D02*
X7528677Y-8726051D01*
X7528677Y-8726051D02*
X7538201Y-8707003D01*
X7538201Y-8707003D02*
X7547725Y-8697480D01*
X7547725Y-8697480D02*
X7566773Y-8687956D01*
X7728677Y-8887956D02*
X7766773Y-8887956D01*
X7766773Y-8887956D02*
X7785820Y-8878432D01*
X7785820Y-8878432D02*
X7795344Y-8868908D01*
X7795344Y-8868908D02*
X7814392Y-8840337D01*
X7814392Y-8840337D02*
X7823916Y-8802241D01*
X7823916Y-8802241D02*
X7823916Y-8726051D01*
X7823916Y-8726051D02*
X7814392Y-8707003D01*
X7814392Y-8707003D02*
X7804868Y-8697480D01*
X7804868Y-8697480D02*
X7785820Y-8687956D01*
X7785820Y-8687956D02*
X7747725Y-8687956D01*
X7747725Y-8687956D02*
X7728677Y-8697480D01*
X7728677Y-8697480D02*
X7719154Y-8707003D01*
X7719154Y-8707003D02*
X7709630Y-8726051D01*
X7709630Y-8726051D02*
X7709630Y-8773670D01*
X7709630Y-8773670D02*
X7719154Y-8792718D01*
X7719154Y-8792718D02*
X7728677Y-8802241D01*
X7728677Y-8802241D02*
X7747725Y-8811765D01*
X7747725Y-8811765D02*
X7785820Y-8811765D01*
X7785820Y-8811765D02*
X7804868Y-8802241D01*
X7804868Y-8802241D02*
X7814392Y-8792718D01*
X7814392Y-8792718D02*
X7823916Y-8773670D01*
X7900106Y-8687956D02*
X7900106Y-8726051D01*
X7976297Y-8687956D02*
X7976297Y-8726051D01*
X8271535Y-8964146D02*
X8262011Y-8954622D01*
X8262011Y-8954622D02*
X8242963Y-8926051D01*
X8242963Y-8926051D02*
X8233439Y-8907003D01*
X8233439Y-8907003D02*
X8223916Y-8878432D01*
X8223916Y-8878432D02*
X8214392Y-8830813D01*
X8214392Y-8830813D02*
X8214392Y-8792718D01*
X8214392Y-8792718D02*
X8223916Y-8745099D01*
X8223916Y-8745099D02*
X8233439Y-8716527D01*
X8233439Y-8716527D02*
X8242963Y-8697480D01*
X8242963Y-8697480D02*
X8262011Y-8668908D01*
X8262011Y-8668908D02*
X8271535Y-8659384D01*
X8452487Y-8887956D02*
X8338201Y-8887956D01*
X8395344Y-8887956D02*
X8395344Y-8687956D01*
X8395344Y-8687956D02*
X8376297Y-8716527D01*
X8376297Y-8716527D02*
X8357249Y-8735575D01*
X8357249Y-8735575D02*
X8338201Y-8745099D01*
X8690582Y-8887956D02*
X8690582Y-8687956D01*
X8776297Y-8887956D02*
X8776297Y-8783194D01*
X8776297Y-8783194D02*
X8766773Y-8764146D01*
X8766773Y-8764146D02*
X8747725Y-8754622D01*
X8747725Y-8754622D02*
X8719154Y-8754622D01*
X8719154Y-8754622D02*
X8700106Y-8764146D01*
X8700106Y-8764146D02*
X8690582Y-8773670D01*
X8900106Y-8887956D02*
X8881059Y-8878432D01*
X8881059Y-8878432D02*
X8871535Y-8868908D01*
X8871535Y-8868908D02*
X8862011Y-8849860D01*
X8862011Y-8849860D02*
X8862011Y-8792718D01*
X8862011Y-8792718D02*
X8871535Y-8773670D01*
X8871535Y-8773670D02*
X8881059Y-8764146D01*
X8881059Y-8764146D02*
X8900106Y-8754622D01*
X8900106Y-8754622D02*
X8928678Y-8754622D01*
X8928678Y-8754622D02*
X8947725Y-8764146D01*
X8947725Y-8764146D02*
X8957249Y-8773670D01*
X8957249Y-8773670D02*
X8966773Y-8792718D01*
X8966773Y-8792718D02*
X8966773Y-8849860D01*
X8966773Y-8849860D02*
X8957249Y-8868908D01*
X8957249Y-8868908D02*
X8947725Y-8878432D01*
X8947725Y-8878432D02*
X8928678Y-8887956D01*
X8928678Y-8887956D02*
X8900106Y-8887956D01*
X9081059Y-8887956D02*
X9062011Y-8878432D01*
X9062011Y-8878432D02*
X9052487Y-8859384D01*
X9052487Y-8859384D02*
X9052487Y-8687956D01*
X9233440Y-8878432D02*
X9214392Y-8887956D01*
X9214392Y-8887956D02*
X9176297Y-8887956D01*
X9176297Y-8887956D02*
X9157249Y-8878432D01*
X9157249Y-8878432D02*
X9147725Y-8859384D01*
X9147725Y-8859384D02*
X9147725Y-8783194D01*
X9147725Y-8783194D02*
X9157249Y-8764146D01*
X9157249Y-8764146D02*
X9176297Y-8754622D01*
X9176297Y-8754622D02*
X9214392Y-8754622D01*
X9214392Y-8754622D02*
X9233440Y-8764146D01*
X9233440Y-8764146D02*
X9242963Y-8783194D01*
X9242963Y-8783194D02*
X9242963Y-8802241D01*
X9242963Y-8802241D02*
X9147725Y-8821289D01*
X9309630Y-8964146D02*
X9319154Y-8954622D01*
X9319154Y-8954622D02*
X9338202Y-8926051D01*
X9338202Y-8926051D02*
X9347725Y-8907003D01*
X9347725Y-8907003D02*
X9357249Y-8878432D01*
X9357249Y-8878432D02*
X9366773Y-8830813D01*
X9366773Y-8830813D02*
X9366773Y-8792718D01*
X9366773Y-8792718D02*
X9357249Y-8745099D01*
X9357249Y-8745099D02*
X9347725Y-8716527D01*
X9347725Y-8716527D02*
X9338202Y-8697480D01*
X9338202Y-8697480D02*
X9319154Y-8668908D01*
X9319154Y-8668908D02*
X9309630Y-8659384D01*
X9671535Y-8964146D02*
X9662011Y-8954622D01*
X9662011Y-8954622D02*
X9642963Y-8926051D01*
X9642963Y-8926051D02*
X9633440Y-8907003D01*
X9633440Y-8907003D02*
X9623916Y-8878432D01*
X9623916Y-8878432D02*
X9614392Y-8830813D01*
X9614392Y-8830813D02*
X9614392Y-8792718D01*
X9614392Y-8792718D02*
X9623916Y-8745099D01*
X9623916Y-8745099D02*
X9633440Y-8716527D01*
X9633440Y-8716527D02*
X9642963Y-8697480D01*
X9642963Y-8697480D02*
X9662011Y-8668908D01*
X9662011Y-8668908D02*
X9671535Y-8659384D01*
X9747725Y-8754622D02*
X9747725Y-8887956D01*
X9747725Y-8773670D02*
X9757249Y-8764146D01*
X9757249Y-8764146D02*
X9776297Y-8754622D01*
X9776297Y-8754622D02*
X9804868Y-8754622D01*
X9804868Y-8754622D02*
X9823916Y-8764146D01*
X9823916Y-8764146D02*
X9833440Y-8783194D01*
X9833440Y-8783194D02*
X9833440Y-8887956D01*
X9957249Y-8887956D02*
X9938202Y-8878432D01*
X9938202Y-8878432D02*
X9928678Y-8868908D01*
X9928678Y-8868908D02*
X9919154Y-8849860D01*
X9919154Y-8849860D02*
X9919154Y-8792718D01*
X9919154Y-8792718D02*
X9928678Y-8773670D01*
X9928678Y-8773670D02*
X9938202Y-8764146D01*
X9938202Y-8764146D02*
X9957249Y-8754622D01*
X9957249Y-8754622D02*
X9985821Y-8754622D01*
X9985821Y-8754622D02*
X10004868Y-8764146D01*
X10004868Y-8764146D02*
X10014392Y-8773670D01*
X10014392Y-8773670D02*
X10023916Y-8792718D01*
X10023916Y-8792718D02*
X10023916Y-8849860D01*
X10023916Y-8849860D02*
X10014392Y-8868908D01*
X10014392Y-8868908D02*
X10004868Y-8878432D01*
X10004868Y-8878432D02*
X9985821Y-8887956D01*
X9985821Y-8887956D02*
X9957249Y-8887956D01*
X10081059Y-8754622D02*
X10157249Y-8754622D01*
X10109630Y-8687956D02*
X10109630Y-8859384D01*
X10109630Y-8859384D02*
X10119154Y-8878432D01*
X10119154Y-8878432D02*
X10138202Y-8887956D01*
X10138202Y-8887956D02*
X10157249Y-8887956D01*
X10376297Y-8754622D02*
X10376297Y-8954622D01*
X10376297Y-8764146D02*
X10395344Y-8754622D01*
X10395344Y-8754622D02*
X10433440Y-8754622D01*
X10433440Y-8754622D02*
X10452487Y-8764146D01*
X10452487Y-8764146D02*
X10462011Y-8773670D01*
X10462011Y-8773670D02*
X10471535Y-8792718D01*
X10471535Y-8792718D02*
X10471535Y-8849860D01*
X10471535Y-8849860D02*
X10462011Y-8868908D01*
X10462011Y-8868908D02*
X10452487Y-8878432D01*
X10452487Y-8878432D02*
X10433440Y-8887956D01*
X10433440Y-8887956D02*
X10395344Y-8887956D01*
X10395344Y-8887956D02*
X10376297Y-8878432D01*
X10585821Y-8887956D02*
X10566773Y-8878432D01*
X10566773Y-8878432D02*
X10557249Y-8859384D01*
X10557249Y-8859384D02*
X10557249Y-8687956D01*
X10747725Y-8887956D02*
X10747725Y-8783194D01*
X10747725Y-8783194D02*
X10738202Y-8764146D01*
X10738202Y-8764146D02*
X10719154Y-8754622D01*
X10719154Y-8754622D02*
X10681059Y-8754622D01*
X10681059Y-8754622D02*
X10662011Y-8764146D01*
X10747725Y-8878432D02*
X10728678Y-8887956D01*
X10728678Y-8887956D02*
X10681059Y-8887956D01*
X10681059Y-8887956D02*
X10662011Y-8878432D01*
X10662011Y-8878432D02*
X10652487Y-8859384D01*
X10652487Y-8859384D02*
X10652487Y-8840337D01*
X10652487Y-8840337D02*
X10662011Y-8821289D01*
X10662011Y-8821289D02*
X10681059Y-8811765D01*
X10681059Y-8811765D02*
X10728678Y-8811765D01*
X10728678Y-8811765D02*
X10747725Y-8802241D01*
X10814392Y-8754622D02*
X10890583Y-8754622D01*
X10842964Y-8687956D02*
X10842964Y-8859384D01*
X10842964Y-8859384D02*
X10852487Y-8878432D01*
X10852487Y-8878432D02*
X10871535Y-8887956D01*
X10871535Y-8887956D02*
X10890583Y-8887956D01*
X11033440Y-8878432D02*
X11014392Y-8887956D01*
X11014392Y-8887956D02*
X10976297Y-8887956D01*
X10976297Y-8887956D02*
X10957249Y-8878432D01*
X10957249Y-8878432D02*
X10947725Y-8859384D01*
X10947725Y-8859384D02*
X10947725Y-8783194D01*
X10947725Y-8783194D02*
X10957249Y-8764146D01*
X10957249Y-8764146D02*
X10976297Y-8754622D01*
X10976297Y-8754622D02*
X11014392Y-8754622D01*
X11014392Y-8754622D02*
X11033440Y-8764146D01*
X11033440Y-8764146D02*
X11042964Y-8783194D01*
X11042964Y-8783194D02*
X11042964Y-8802241D01*
X11042964Y-8802241D02*
X10947725Y-8821289D01*
X11214392Y-8887956D02*
X11214392Y-8687956D01*
X11214392Y-8878432D02*
X11195344Y-8887956D01*
X11195344Y-8887956D02*
X11157249Y-8887956D01*
X11157249Y-8887956D02*
X11138202Y-8878432D01*
X11138202Y-8878432D02*
X11128678Y-8868908D01*
X11128678Y-8868908D02*
X11119154Y-8849860D01*
X11119154Y-8849860D02*
X11119154Y-8792718D01*
X11119154Y-8792718D02*
X11128678Y-8773670D01*
X11128678Y-8773670D02*
X11138202Y-8764146D01*
X11138202Y-8764146D02*
X11157249Y-8754622D01*
X11157249Y-8754622D02*
X11195344Y-8754622D01*
X11195344Y-8754622D02*
X11214392Y-8764146D01*
X11290583Y-8964146D02*
X11300106Y-8954622D01*
X11300106Y-8954622D02*
X11319154Y-8926051D01*
X11319154Y-8926051D02*
X11328678Y-8907003D01*
X11328678Y-8907003D02*
X11338202Y-8878432D01*
X11338202Y-8878432D02*
X11347725Y-8830813D01*
X11347725Y-8830813D02*
X11347725Y-8792718D01*
X11347725Y-8792718D02*
X11338202Y-8745099D01*
X11338202Y-8745099D02*
X11328678Y-8716527D01*
X11328678Y-8716527D02*
X11319154Y-8697480D01*
X11319154Y-8697480D02*
X11300106Y-8668908D01*
X11300106Y-8668908D02*
X11290583Y-8659384D01*
M02*
